<svg xmlns="http://www.w3.org/2000/svg" viewBox="0 0 92.04 92.04"><defs><style>.cls-1{fill:#124c60;}.cls-2{fill:#062f3a;}.cls-3{fill:#4c5155;}.cls-4{fill:#b8c7d8;}.cls-5{fill:#a3b5c6;}.cls-6{fill:#8da3b5;}.cls-7{fill:#ebecf0;}.cls-8{fill:#3a4245;}.cls-9{fill:#767a7d;}.cls-10{fill:#589eb7;}.cls-11{fill:#fff;}</style></defs><title>1</title><g id="Layer_2" data-name="Layer 2"><g id="Layer_1-2" data-name="Layer 1"><circle class="cls-1" cx="46.02" cy="46.02" r="46.02"/><path class="cls-2" d="M92,46a46.23,46.23,0,0,0-.75-8.24L69.35,15.84a2.06,2.06,0,0,1,.56,1.41v55a2.07,2.07,0,0,1-2.07,2.07H24.6a2,2,0,0,1-.35,0l17.6,17.6c1.37.12,2.76.2,4.17.2A46,46,0,0,0,92,46Z"/><rect class="cls-3" x="25.49" y="72.04" width="4.26" height="4.47" rx="1.03" ry="1.03"/><rect class="cls-3" x="62.7" y="72.04" width="4.26" height="4.47" rx="1.03" ry="1.03"/><rect class="cls-4" x="22.53" y="15.18" width="47.38" height="59.09" rx="2.07" ry="2.07"/><path class="cls-4" d="M69.25,15.74l.1.1Z"/><path class="cls-4" d="M24.25,74.24l-1.68-1.68A2.06,2.06,0,0,0,24.25,74.24Z"/><path class="cls-5" d="M22.53,72.21a2.07,2.07,0,0,0,2.07,2.07H67.85a2.07,2.07,0,0,0,2.07-2.07v-55Z"/><rect class="cls-6" x="22.53" y="16.01" width="47.38" height="8.94" rx="2.07" ry="2.07"/><circle class="cls-6" cx="46.22" cy="45.79" r="14.3"/><circle class="cls-7" cx="46.22" cy="44.55" r="14.3"/><circle class="cls-8" cx="46.22" cy="44.55" r="8.27"/><path class="cls-9" d="M50.82,40a6.14,6.14,0,0,0-8.68,0l8.68,8.68A6.14,6.14,0,0,0,50.82,40Z"/><rect class="cls-3" x="22.53" y="15.18" width="47.38" height="8.94" rx="2.07" ry="2.07"/><rect class="cls-10" x="39.07" y="17.25" width="14.3" height="5.08" rx="2.07" ry="2.07"/><path class="cls-11" d="M44.23,19.78H43L43.3,18h1.25Zm-.94-.26H44l.23-1.28h-.73Z"/><path class="cls-11" d="M44,21.32H42.71L43,19.52h1.25ZM43,21.06h.73L44,19.78h-.73Z"/><path class="cls-11" d="M46.83,19.78H45.58L45.89,18h1.25Zm-.94-.26h.73l.23-1.28h-.73Z"/><path class="cls-11" d="M46.55,21.32H45.31l.32-1.79h1.25Zm-.94-.26h.73l.23-1.28h-.73Z"/><path class="cls-11" d="M49.42,19.78H48.17L48.49,18h1.25Zm-.94-.26h.73l.23-1.28H48.7Z"/><path class="cls-11" d="M49.15,21.32H47.9l.32-1.79h1.25Zm-.94-.26h.73l.23-1.28h-.73Z"/><rect class="cls-10" x="58.4" y="18.52" width="7.15" height="2.54" rx="1.03" ry="1.03"/><rect class="cls-10" x="26.89" y="18.52" width="7.15" height="2.54" rx="1.03" ry="1.03"/></g></g></svg>