<svg xmlns="http://www.w3.org/2000/svg" viewBox="0 0 92.04 92.04"><defs><style>.cls-1{fill:#f99b1d;}.cls-2{fill:#d37505;}.cls-3{fill:#4c5155;}.cls-4{fill:#b8c7d8;}.cls-5,.cls-8{fill:#fff;}.cls-6{fill:#3a4245;}.cls-7{fill:#4d5256;}.cls-8{opacity:0.2;}.cls-9{fill:#589eb7;opacity:0.5;}</style></defs><title>2</title><g id="Layer_2" data-name="Layer 2"><g id="Layer_1-2" data-name="Layer 1"><circle class="cls-1" cx="46.02" cy="46.02" r="46.02"/><path class="cls-2" d="M16.2,65.28,42.83,91.92C43.89,92,44.95,92,46,92A46,46,0,0,0,91.55,39.35L76.17,24Z"/><rect class="cls-3" x="20.63" y="63.9" width="4.42" height="4.64" rx="1.07" ry="1.07"/><path class="cls-3" d="M68.47,63.9h2.28A1.07,1.07,0,0,1,71.82,65v2.49a1.07,1.07,0,0,1-1.07,1.07H68.47a1.08,1.08,0,0,1-1.08-1.08V65A1.07,1.07,0,0,1,68.47,63.9Z"/><path class="cls-4" d="M17.7,23.42h57a2.15,2.15,0,0,1,2.15,2.15V64a2.14,2.14,0,0,1-2.14,2.14h-57A2.15,2.15,0,0,1,15.56,64V25.56A2.15,2.15,0,0,1,17.7,23.42Z"/><path class="cls-5" d="M63.39,54.85h10a.38.38,0,0,1,.38.38v6.72a.37.37,0,0,1-.37.37h-10a.38.38,0,0,1-.38-.38V55.22A.37.37,0,0,1,63.39,54.85Z"/><path class="cls-6" d="M20.7,27.13H57.24a2.52,2.52,0,0,1,2.52,2.52V59.92a2.53,2.53,0,0,1-2.53,2.53H20.7a2.52,2.52,0,0,1-2.52-2.52V29.65A2.52,2.52,0,0,1,20.7,27.13Z"/><rect class="cls-7" x="24.38" y="34.17" width="29.17" height="20.67"/><polygon class="cls-8" points="20.4 60.59 57.55 60.59 57.55 28.73 20.4 60.59"/><path class="cls-7" d="M73.86,52H63.1V27.11H73.86Zm-10.54-.22H73.64V27.32H63.31Z"/><path class="cls-7" d="M68.59,31.28H63.1V27.11h5.48Zm-5.27-.21h5.06V27.32H63.31Z"/><path class="cls-7" d="M73.86,31.28H68.37V27.11h5.49Zm-5.27-.21h5.06V27.32H68.59Z"/><path class="cls-7" d="M68.59,35.23H63.1V31.06h5.48ZM63.31,35h5.06V31.28H63.31Z"/><path class="cls-7" d="M73.86,35.23H68.37V31.06h5.49ZM68.59,35h5.06V31.28H68.59Z"/><path class="cls-7" d="M68.59,39.18H63.1V35h5.48ZM63.31,39h5.06V35.23H63.31Z"/><path class="cls-7" d="M73.86,39.18H68.37V35h5.49ZM68.59,39h5.06V35.23H68.59Z"/><circle class="cls-9" cx="68.73" cy="44.37" r="1.97"/><circle class="cls-9" cx="69.96" cy="46.34" r="1.97"/><circle class="cls-9" cx="67.21" cy="46.34" r="1.97"/></g></g></svg>