<svg xmlns="http://www.w3.org/2000/svg" viewBox="0 0 92.04 92.04"><defs><style>.cls-1{fill:#124c60;}.cls-2{fill:#062f3a;}.cls-3{fill:#4c5155;}.cls-4{fill:#8da3b5;}.cls-5{fill:#589eb7;}.cls-6{fill:#42889b;}.cls-7{fill:#b8c7d8;}.cls-8{fill:#a3b5c6;}.cls-9{fill:#fff;}.cls-10{fill:#ff3912;}</style></defs><title>3</title><g id="Layer_2" data-name="Layer 2"><g id="Layer_1-2" data-name="Layer 1"><circle class="cls-1" cx="46.02" cy="46.02" r="46.02"/><path class="cls-2" d="M23.1,27.86,33.42,38.18l-9.21,36.2L41.66,91.83C43.1,92,44.55,92,46,92A46,46,0,0,0,90.27,33.39L71.69,14.82Z"/><rect class="cls-3" x="29.52" y="72.58" width="3.43" height="3.6" rx="0.83" ry="0.83"/><rect class="cls-3" x="59.5" y="72.58" width="3.43" height="3.6" rx="0.83" ry="0.83"/><rect class="cls-4" x="43.91" y="27.12" width="4.62" height="11.21"/><path class="cls-4" d="M34.17,30.62H58.28a4.18,4.18,0,0,0,4.18-4.18V18.23H30v8.21A4.18,4.18,0,0,0,34.17,30.62Z"/><path class="cls-5" d="M27.3,29.39H65.14a6.55,6.55,0,0,0,6.56-6.55v-8H20.75v8A6.55,6.55,0,0,0,27.3,29.39Z"/><path class="cls-6" d="M65.14,26.44H27.3a6.55,6.55,0,0,1-6.56-6.55v3a6.55,6.55,0,0,0,6.56,6.55H65.14a6.55,6.55,0,0,0,6.56-6.55v-3A6.56,6.56,0,0,1,65.14,26.44Z"/><path class="cls-7" d="M61.67,35.38H30.77a6.56,6.56,0,0,0-6.55,6.56V74.38h44V41.94A6.56,6.56,0,0,0,61.67,35.38Z"/><path class="cls-8" d="M66.31,37.3,24.21,74.38h44V41.94A6.53,6.53,0,0,0,66.31,37.3Z"/><circle class="cls-4" cx="46.22" cy="56.13" r="12.95"/><circle class="cls-9" cx="46.22" cy="53.67" r="12.95"/><polygon class="cls-5" points="46.56 54.9 46.22 43.19 45.88 54.9 46.56 54.9"/><rect class="cls-5" x="34.68" y="53.59" width="2.3" height="0.32"/><rect class="cls-5" x="55.47" y="53.59" width="2.3" height="0.32"/><rect class="cls-10" x="46.06" y="42.21" width="0.32" height="2.3"/><polygon class="cls-5" points="37.95 45.7 38.17 45.48 39.8 47.1 39.57 47.32 37.95 45.7"/><polygon class="cls-5" points="52.65 60.4 52.87 60.17 54.49 61.8 54.27 62.02 52.65 60.4"/><polygon class="cls-5" points="54.27 45.48 54.49 45.7 52.87 47.32 52.65 47.1 54.27 45.48"/><polygon class="cls-5" points="39.57 60.17 39.8 60.4 38.17 62.02 37.95 61.8 39.57 60.17"/><rect class="cls-9" x="42.14" y="36.72" width="8.17" height="1.61"/></g></g></svg>