<svg xmlns="http://www.w3.org/2000/svg" xmlns:xlink="http://www.w3.org/1999/xlink" viewBox="0 0 246.23 124.76"><defs><style>.cls-1{isolation:isolate;}.cls-2,.cls-20{mix-blend-mode:multiply;}.cls-2{fill:url(#Áåçûìÿííûé_ãðàäèåíò_16);}.cls-3{fill:#7ebfce;}.cls-4{fill:#b6e7f2;}.cls-5{fill:#2a445d;}.cls-6{fill:#48647c;}.cls-7{fill:#6aafba;}.cls-8{fill:#628096;}.cls-9{fill:#fff;}.cls-10,.cls-15{fill:#bcbec0;}.cls-10,.cls-11,.cls-21,.cls-34{mix-blend-mode:overlay;}.cls-11,.cls-14{fill:#939598;}.cls-12{fill:#58595b;}.cls-13{fill:#7f8c8d;}.cls-16{fill:#e6e7e8;}.cls-17{fill:#c8cacc;}.cls-18{fill:#808285;}.cls-19{fill:#ce1b31;}.cls-22{fill:#2c3e50;}.cls-23{fill:#c1c1c1;}.cls-24{fill:#a5a8aa;}.cls-25{fill:#37474f;}.cls-26{fill:#455a64;}.cls-27{fill:#b0b0b0;}.cls-28{fill:#838487;}.cls-29{fill:#707172;}.cls-30{fill:#34495e;}.cls-31{fill:#87ccd8;}.cls-32{fill:#a7d6db;}.cls-33{fill:#ecf0f1;}.cls-34,.cls-38{fill:#a7a9ac;}.cls-35{fill:#bdc3c7;}.cls-36{fill:#17c5cc;}.cls-37{fill:#14b0bf;}</style><radialGradient id="Áåçûìÿííûé_ãðàäèåíò_16" cx="117.57" cy="-2588.95" r="32.99" gradientTransform="translate(-315.55 475.44) scale(3.73 0.14)" gradientUnits="userSpaceOnUse"><stop offset="0" stop-color="#ad9292"/><stop offset="1" stop-color="#fff"/></radialGradient></defs><title>asd</title><g class="cls-1"><g id="Layer_2" data-name="Layer 2"><g id="_1" data-name="1"><g id="_2" data-name="2"><ellipse id="_0" data-name="0" class="cls-2" cx="123.11" cy="120.23" rx="123.11" ry="4.53"/><g id="_1-2" data-name="1"><rect class="cls-3" x="22.49" y="59.35" width="52.11" height="2.95"/><rect class="cls-3" x="22.49" y="117.03" width="52.11" height="1.97"/><rect class="cls-4" x="22.49" y="62.3" width="52.11" height="54.73"/><rect class="cls-3" x="40.3" y="63.46" width="12.56" height="6.21"/><polygon class="cls-5" points="51.98 64.28 41.17 64.28 41.17 64.35 51.98 68.82 51.98 64.28"/><polygon class="cls-6" points="41.17 64.35 41.17 68.85 51.98 68.85 51.98 68.82 41.17 64.35"/><circle class="cls-3" cx="64.3" cy="64.9" r="0.86"/><circle class="cls-3" cx="64.3" cy="68.07" r="0.86"/><circle class="cls-3" cx="67.27" cy="64.9" r="0.86"/><circle class="cls-3" cx="67.27" cy="68.07" r="0.86"/><circle class="cls-3" cx="70.23" cy="64.9" r="0.86"/><circle class="cls-3" cx="70.23" cy="68.07" r="0.86"/><path class="cls-3" d="M38.81,61.26l-.65,1L34.3,68.5A5.19,5.19,0,0,1,29.89,71h-7.4V69.32H29a5.12,5.12,0,0,0,4.35-2.42l2.86-4.6,1.19-1.91Z"/><circle class="cls-3" cx="57.92" cy="66.57" r="2.62"/><circle class="cls-4" cx="58" cy="66.49" r="1.87"/><polygon class="cls-3" points="57.46 64.55 57.92 67.38 58.39 64.55 57.46 64.55"/><path class="cls-5" d="M58,63.76a.3.3,0,0,1-.33-.25v-.67a.34.34,0,0,1,.66,0v.67A.3.3,0,0,1,58,63.76Z"/><path class="cls-5" d="M55.46,65.05a.3.3,0,0,1-.38.16l-.58-.33a.34.34,0,0,1,.33-.57l.58.33A.3.3,0,0,1,55.46,65.05Z"/><path class="cls-5" d="M55.33,67.86a.3.3,0,0,1-.05.41l-.58.33a.34.34,0,0,1-.33-.57L55,67.7A.3.3,0,0,1,55.33,67.86Z"/><path class="cls-5" d="M57.7,69.38a.3.3,0,0,1,.33.25v.67a.34.34,0,0,1-.66,0v-.67A.3.3,0,0,1,57.7,69.38Z"/><path class="cls-5" d="M60.19,68.09a.3.3,0,0,1,.38-.16l.58.33a.34.34,0,0,1-.33.57l-.58-.33A.3.3,0,0,1,60.19,68.09Z"/><path class="cls-5" d="M60.33,65.28a.3.3,0,0,1,.05-.41l.58-.33a.34.34,0,0,1,.33.57l-.58.33A.3.3,0,0,1,60.33,65.28Z"/><rect class="cls-4" x="22.49" y="53.45" width="52.11" height="7.37"/><path class="cls-3" d="M30.55,65.3H25.41a1,1,0,0,0,0,1.91h5.14a1,1,0,0,0,0-1.91Z"/><circle class="cls-3" cx="48.54" cy="87.96" r="16.62"/><circle class="cls-4" cx="48.54" cy="87.96" r="14.86"/><path class="cls-7" d="M59.76,88a11.16,11.16,0,0,1-2,6.42l-1-.66a10,10,0,1,1-.24-11.85l1-.65A11.18,11.18,0,0,1,59.76,88Z"/><path class="cls-3" d="M58.56,88a10,10,0,1,1-2.06-6.09A9.95,9.95,0,0,1,58.56,88Z"/><path class="cls-8" d="M57.39,88a8.85,8.85,0,0,1-8.85,8.85H48.4a8.85,8.85,0,0,0-4.25-16.53A8.85,8.85,0,0,1,57.39,88Z"/><path class="cls-6" d="M52.86,89.13a8.84,8.84,0,0,1-4.46,7.68,8.85,8.85,0,0,1-4.25-16.53A8.85,8.85,0,0,1,52.86,89.13Z"/><rect class="cls-3" x="22.49" y="107.97" width="52.11" height="1.65"/><path class="cls-3" d="M54.77,111V117h1v-5.08H70.6V117h1V111Z"/><path class="cls-9" d="M48.54,74.85c8.32-.76,15.38,6.13,13.9,15.58a12.74,12.74,0,0,1-13.9,10.44C64.42,97.76,64.29,77.92,48.54,74.85Z"/><polygon class="cls-10" points="23.58 54.65 73.61 54.65 73.61 59.35 23.58 54.65"/><path class="cls-11" d="M74.6,53.45H23l51.59,65.4Z"/><rect class="cls-3" x="60.91" y="112.44" width="4.59" height="0.98"/></g><g id="_2-2" data-name="2"><rect class="cls-12" x="184.74" y="118.16" width="2.61" height="2.08"/><rect class="cls-13" x="184.17" y="120.23" width="3.76" height="1.04"/><rect class="cls-12" x="220.57" y="118.16" width="2.61" height="2.08"/><rect class="cls-13" x="220" y="120.23" width="3.76" height="1.04"/><rect class="cls-14" x="183.35" y="76.25" width="42.09" height="6.23"/><rect class="cls-12" x="183.35" y="75.87" width="42.09" height="3.11"/><rect class="cls-15" x="181.85" y="81.49" width="45.35" height="37.16"/><rect class="cls-16" x="181.85" y="80.42" width="45.35" height="1.06"/><rect class="cls-16" x="181.66" y="29.89" width="45.35" height="1.2"/><rect class="cls-15" x="181.66" y="31.09" width="45.35" height="47.21"/><rect class="cls-16" x="196.61" y="36.75" width="16.79" height="6.83"/><rect class="cls-17" x="186.43" y="31.09" width="8.38" height="47.21"/><rect class="cls-17" x="186.43" y="81.49" width="8.38" height="37.16"/><path class="cls-14" d="M185.73,54.1a1.52,1.52,0,0,0-1.63,1.38v17a1.52,1.52,0,0,0,1.63,1.38,1.87,1.87,0,0,0,.63-.11V54.2A1.87,1.87,0,0,0,185.73,54.1Z"/><path class="cls-18" d="M186.36,54.2V73.74a1.4,1.4,0,0,0,1-1.27v-17A1.4,1.4,0,0,0,186.36,54.2Z"/><path class="cls-14" d="M185.73,84.25a1.52,1.52,0,0,0-1.63,1.38v17a1.52,1.52,0,0,0,1.63,1.38,1.88,1.88,0,0,0,.63-.11V84.36A1.88,1.88,0,0,0,185.73,84.25Z"/><path class="cls-18" d="M186.36,84.36v19.53a1.4,1.4,0,0,0,1-1.27v-17A1.4,1.4,0,0,0,186.36,84.36Z"/><polygon class="cls-5" points="198 37.5 210.6 42.84 210.72 42.84 210.72 37.5 198 37.5"/><polygon class="cls-6" points="198 37.5 197.69 37.5 197.69 42.84 210.6 42.84 198 37.5"/><rect class="cls-14" x="211.33" y="37.53" width="1.84" height="0.85"/><rect class="cls-14" x="211.33" y="38.95" width="1.84" height="0.85"/><rect class="cls-14" x="211.33" y="40.36" width="1.84" height="0.85"/><rect class="cls-14" x="211.33" y="41.78" width="1.84" height="0.85"/><rect class="cls-17" x="214.5" y="31.09" width="8.38" height="47.21"/><rect class="cls-17" x="214.5" y="81.49" width="8.38" height="37.16"/></g><g id="_3" data-name="3"><rect class="cls-3" x="78.2" y="68.75" width="0.62" height="2.2"/><rect class="cls-3" x="76.4" y="61.76" width="48.99" height="2.77"/><rect class="cls-3" x="76.4" y="115.98" width="48.99" height="1.85"/><rect class="cls-4" x="76.4" y="64.53" width="48.99" height="51.45"/><rect class="cls-3" x="93.14" y="65.62" width="11.81" height="8.05"/><polygon class="cls-5" points="104.12 66.68 93.96 66.68 93.96 66.78 104.12 72.58 104.12 66.68"/><polygon class="cls-6" points="93.96 66.78 93.96 72.62 104.12 72.62 104.12 72.58 93.96 66.78"/><rect class="cls-4" x="76.4" y="59.07" width="48.99" height="4.07"/><rect class="cls-3" x="76.4" y="107.46" width="48.99" height="1.55"/><rect class="cls-3" x="76.4" y="74.47" width="48.99" height="1.55"/><rect class="cls-3" x="86.29" y="65.95" width="3.7" height="1.4"/><rect class="cls-3" x="86.29" y="68.45" width="3.7" height="1.4"/><rect class="cls-3" x="86.29" y="70.94" width="3.7" height="1.4"/><rect class="cls-3" x="107.04" y="66.5" width="3.7" height="1.4"/><rect class="cls-3" x="107.04" y="69" width="3.7" height="1.4"/><rect class="cls-3" x="107.04" y="71.49" width="3.7" height="1.4"/><circle class="cls-3" cx="113.4" cy="67.32" r="0.77"/><circle class="cls-3" cx="113.4" cy="69.48" r="0.77"/><circle class="cls-19" cx="113.4" cy="71.63" r="0.77"/><circle class="cls-3" cx="119.3" cy="69.48" r="2.46"/><circle class="cls-4" cx="119.3" cy="69.48" r="1.79"/><circle class="cls-3" cx="83.32" cy="69.85" r="2.46"/><circle class="cls-4" cx="83.32" cy="69.85" r="1.79"/><path class="cls-3" d="M78.51,71.26a1.41,1.41,0,1,1,1.41-1.41A1.41,1.41,0,0,1,78.51,71.26Zm0-2.2a.79.79,0,1,0,.79.79A.79.79,0,0,0,78.51,69.05Z"/><rect class="cls-3" x="121.54" y="67.08" width="2.08" height="0.62"/><rect class="cls-3" x="121.54" y="71.18" width="2.08" height="0.62"/><rect class="cls-3" x="115.2" y="67.12" width="2.08" height="0.62"/><rect class="cls-3" x="115.2" y="71.22" width="2.08" height="0.62"/><g class="cls-20"><rect class="cls-15" x="93.96" y="69" width="10.17" height="0.7"/></g><rect class="cls-3" x="92.15" y="77.92" width="16.74" height="1.95"/><g class="cls-21"><path class="cls-14" d="M78.39,59.07l2.16,2.68,1.12,1.39,1.12,1.39,3.51,4.33.8,1L88,70.94l1.14,1.4,1.73,2.12L92.1,76l1.54,1.9,1.59,1.95c7.7,9.46,16.08,19.74,22.49,27.6L119,109l5.69,7,.71.87V59.07Z"/></g><polygon class="cls-10" points="77.41 60.15 124.39 60.15 124.39 62.22 77.41 60.15"/></g><g id="_4" data-name="4"><rect class="cls-22" x="128.82" y="61.47" width="48.09" height="59.3"/><rect class="cls-23" x="128.82" y="107.32" width="48.09" height="9.72"/><rect class="cls-23" x="128.82" y="76.03" width="48.09" height="29.29"/><rect class="cls-23" x="128.82" y="63.96" width="48.09" height="10.22"/><polygon class="cls-24" points="133 79.93 172.74 79.93 171.66 81.42 134.03 81.42 133 79.93"/><polygon class="cls-25" points="133.96 82.4 133.68 82.4 133.68 101.34 172.05 101.34 172.05 101.12 133.96 82.4"/><polygon class="cls-26" points="172.05 82.4 133.96 82.4 172.05 101.12 172.05 82.4"/><path class="cls-16" d="M132.06,78.88h0a1.46,1.46,0,0,0,1.46,1.46h38.68a1.46,1.46,0,0,0,1.46-1.46h0a1.46,1.46,0,0,0-1.46-1.46H133.53A1.46,1.46,0,0,0,132.06,78.88Z"/><circle class="cls-16" cx="148.04" cy="68.99" r="2.87"/><circle class="cls-16" cx="137.73" cy="68.99" r="2.87"/><circle class="cls-16" cx="156.14" cy="68.99" r="2.87"/><circle class="cls-16" cx="164.24" cy="68.99" r="2.87"/><circle class="cls-16" cx="172.33" cy="68.99" r="2.87"/><rect class="cls-22" x="130.54" y="66.72" width="3.18" height="1.68"/><rect class="cls-22" x="130.54" y="69.58" width="3.18" height="1.68"/><rect class="cls-22" x="133.35" y="59.97" width="14.43" height="1.49"/><rect class="cls-22" x="157.96" y="59.97" width="14.43" height="1.49"/></g><g id="_5" data-name="5"><rect class="cls-23" x="153.04" width="6.14" height="15.86"/><rect class="cls-27" x="147.03" width="6.01" height="15.86"/><polygon class="cls-27" points="147.03 15.86 127.17 31.14 153.04 31.14 153.04 15.86 147.03 15.86"/><polygon class="cls-23" points="179.04 31.14 153.04 31.14 153.04 15.86 159.18 15.86 179.04 31.14"/><rect class="cls-28" x="127.17" y="31.14" width="25.87" height="5.24"/><rect class="cls-14" x="153.04" y="31.14" width="26" height="5.24"/><circle class="cls-23" cx="159.18" cy="33.76" r="1.27"/><circle class="cls-23" cx="163.42" cy="33.76" r="1.27"/><circle class="cls-23" cx="167.65" cy="33.76" r="1.27"/><circle class="cls-19" cx="171.89" cy="33.76" r="1.27"/><rect class="cls-27" x="130.73" y="32.49" width="17.26" height="2.53"/><path class="cls-29" d="M147,14a.93.93,0,0,0,0,1.85H153V14Z"/><path class="cls-14" d="M159.26,14H153v1.85h6.23a.93.93,0,0,0,0-1.85Z"/><path class="cls-29" d="M126.51,29.78a.72.72,0,0,0-.72.72v.09a.72.72,0,0,0,.72.72H153V29.78Z"/><path class="cls-28" d="M179.52,29.78H153v1.54h26.49a.72.72,0,0,0,.72-.72V30.5A.72.72,0,0,0,179.52,29.78Z"/></g><g id="_6" data-name="6"><rect class="cls-6" x="24.85" y="35.51" width="48.62" height="3.86"/><path class="cls-4" d="M62.27,7.51H24.9a2.37,2.37,0,0,0-2.55,2.14V35.17a2.37,2.37,0,0,0,2.55,2.14H66.52V7.51Z"/><path class="cls-4" d="M73.69,7.51H67.42v29.8h6.27a2.34,2.34,0,0,0,2.5-2.14V9.64A2.34,2.34,0,0,0,73.69,7.51Z"/><rect class="cls-9" x="26.29" y="11.96" width="34.07" height="20.9"/><rect class="cls-30" x="26.98" y="12.67" width="32.69" height="19.47"/><polygon class="cls-6" points="33.02 12.67 26.98 18.97 26.98 23.84 37.7 12.67 33.02 12.67"/><polygon class="cls-6" points="47.04 12.67 28.35 32.14 32.75 32.14 51.43 12.67 47.04 12.67"/><polygon class="cls-6" points="59.67 14.68 42.91 32.14 46.76 32.14 59.67 18.68 59.67 14.68"/><polygon class="cls-6" points="69.02 10.92 69.02 14.44 69.17 14.44 74.45 10.92 69.02 10.92"/><polygon class="cls-30" points="69.17 14.44 74.6 14.44 74.6 10.92 74.45 10.92 69.17 14.44"/><rect class="cls-9" x="68.68" y="15.99" width="2.39" height="1.28"/><rect class="cls-9" x="68.68" y="18.16" width="2.39" height="1.28"/><rect class="cls-9" x="68.68" y="20.34" width="2.39" height="1.28"/><rect class="cls-9" x="68.68" y="22.51" width="2.39" height="1.28"/><rect class="cls-9" x="68.68" y="24.68" width="2.39" height="1.28"/><rect class="cls-9" x="72.54" y="15.99" width="2.39" height="1.28"/><rect class="cls-9" x="72.54" y="18.16" width="2.39" height="1.28"/><rect class="cls-9" x="72.54" y="20.34" width="2.39" height="1.28"/><rect class="cls-9" x="72.54" y="22.51" width="2.39" height="1.28"/><rect class="cls-9" x="72.54" y="24.68" width="2.39" height="1.28"/><path class="cls-31" d="M73.07,27.17H70.81a2,2,0,0,0-2,1.93h6.23A2,2,0,0,0,73.07,27.17Z"/><path class="cls-3" d="M68.82,29.1s0,0,0,.07a2,2,0,0,0,2,2h2.26a2,2,0,0,0,2-2s0,0,0-.07Z"/><path class="cls-32" d="M65.53,37.27h1.25V13.08l-2.31-2.31-.78.63H63V34.81C63,34.71,64.44,36.15,65.53,37.27Z"/><rect class="cls-3" x="66.52" y="7.51" width="0.9" height="29.8"/><path class="cls-33" d="M63.7,10.45a1.1,1.1,0,0,0-1.1,1.1V34.08a1.1,1.1,0,1,0,2.19,0V11.55a1.1,1.1,0,0,0-1.1-1.1Z"/><path class="cls-9" d="M63.7,25.32c-.37,0-.68-.18-.68-.41V11.28c0-.23.3-.41.68-.41a.94.94,0,0,1,.48.12.35.35,0,0,1,.2.29V24.91C64.38,25.14,64.07,25.32,63.7,25.32Z"/><rect class="cls-9" x="68.68" y="32.79" width="6.38" height="1.6"/></g><g id="_7" data-name="7"><path class="cls-6" d="M93,6.25V44.53H83.86V14.4A8.14,8.14,0,0,1,92,6.25Z"/><path class="cls-6" d="M115.94,14.4V44.53h-9.11V6.25h1a8.14,8.14,0,0,1,2.79.49,8.05,8.05,0,0,1,1.82.94,8.16,8.16,0,0,1,3.54,6.72Z"/><path class="cls-22" d="M90.89,6.25h18.54A1.59,1.59,0,0,1,111,7.84V44.53a0,0,0,0,1,0,0H89.29a0,0,0,0,1,0,0V7.84A1.59,1.59,0,0,1,90.89,6.25Z"/><path class="cls-6" d="M111.18,8.65V8.6a7.89,7.89,0,0,0-5.73-6.45,24.13,24.13,0,0,0-11.07,0A7.88,7.88,0,0,0,88.63,8.6v.05Z"/><rect class="cls-6" x="92.2" y="9.09" width="15.41" height="13.95"/><path class="cls-30" d="M107.61,23H92.19l1,3.18A7,7,0,0,0,99.9,31h0a7,7,0,0,0,6.66-4.82Z"/><path class="cls-6" d="M118.25,46.21a2.46,2.46,0,0,0-2.44-2.2H84a2.46,2.46,0,0,0-2.44,2.2Z"/><rect class="cls-34" x="96.88" y="9.09" width="6.04" height="13.95"/><rect class="cls-14" x="95.86" y="31.92" width="1.21" height="3.62"/><rect class="cls-14" x="102.73" y="31.92" width="1.21" height="3.62"/><rect class="cls-14" x="95.74" y="23.05" width="2.37" height="0.95"/><path class="cls-35" d="M95.74,24v9.5a.24.24,0,0,0,.24.24h1.9a.24.24,0,0,0,.24-.24V24Z"/><path class="cls-35" d="M101.69,24v9.5a.24.24,0,0,0,.24.24h1.9a.24.24,0,0,0,.24-.24V24Z"/><rect class="cls-14" x="101.69" y="23.05" width="2.37" height="0.95"/><path class="cls-35" d="M105.25,31.67a.81.81,0,0,0-.81-.81H95.36a.81.81,0,0,0-.81.81v.13h10.69Z"/><path class="cls-14" d="M94.56,31.8v.1a.81.81,0,0,0,.81.81h9.08a.81.81,0,0,0,.81-.81v-.1Z"/><path class="cls-33" d="M107.24,42.18a2.54,2.54,0,0,1-1.67-.62l.34-.38A2,2,0,0,0,109.19,40a1.6,1.6,0,0,0-.71-1.69,1.17,1.17,0,0,0-1,0,.91.91,0,0,0-.55.55l-.49-.16a1.43,1.43,0,0,1,.85-.87,1.67,1.67,0,0,1,1.4.05,2.12,2.12,0,0,1,1,2.23A2.54,2.54,0,0,1,108,42,2.46,2.46,0,0,1,107.24,42.18Z"/><path class="cls-33" d="M102.29,44h4.25a6.2,6.2,0,0,0,1.05-3.6V37.14h-6.36v3.28A6.2,6.2,0,0,0,102.29,44Z"/><path class="cls-35" d="M102,43.61c.08.14.17.28.26.41h4.25a6.2,6.2,0,0,0,1.05-3.6v-3.2C107.52,40.06,104.76,43.08,102,43.61Z"/><path class="cls-33" d="M98.46,42.13a2.54,2.54,0,0,1-1.67-.62l.34-.38A2,2,0,0,0,100.41,40a1.6,1.6,0,0,0-.71-1.69,1.17,1.17,0,0,0-1,0,.91.91,0,0,0-.55.55l-.49-.16a1.43,1.43,0,0,1,.85-.87,1.67,1.67,0,0,1,1.4.05,2.12,2.12,0,0,1,1,2.23A2.54,2.54,0,0,1,99.27,42,2.45,2.45,0,0,1,98.46,42.13Z"/><path class="cls-33" d="M93.51,44h4.25a6.2,6.2,0,0,0,1.05-3.6V37.1H92.45v3.28A6.2,6.2,0,0,0,93.51,44Z"/><path class="cls-35" d="M93.25,43.57a4.46,4.46,0,0,0,.26.41h4.25a6.2,6.2,0,0,0,1.05-3.6v-3.2C98.74,40,96,43,93.25,43.57Z"/><polygon class="cls-36" points="103.27 3.37 96.72 3.37 103.27 6.21 103.27 3.37"/><polygon class="cls-37" points="96.72 3.37 96.53 3.37 96.53 6.25 103.27 6.25 103.27 6.21 96.72 3.37"/><path class="cls-35" d="M94.7,4.29H93.12a.45.45,0,0,0-.47.42.45.45,0,0,0,.47.42H94.7a.45.45,0,0,0,.47-.42A.45.45,0,0,0,94.7,4.29Z"/><path class="cls-35" d="M94.7,5.68H93.12a.42.42,0,1,0,0,.83H94.7a.42.42,0,1,0,0-.83Z"/><path class="cls-35" d="M94.7,7.07H93.12a.42.42,0,1,0,0,.83H94.7a.42.42,0,1,0,0-.83Z"/><path class="cls-35" d="M106.68,4.29H105.1a.45.45,0,0,0-.47.42.45.45,0,0,0,.47.42h1.58a.45.45,0,0,0,.47-.42A.45.45,0,0,0,106.68,4.29Z"/><path class="cls-35" d="M106.68,5.68H105.1a.42.42,0,1,0,0,.83h1.58a.42.42,0,1,0,0-.83Z"/><path class="cls-35" d="M106.68,7.07H105.1a.42.42,0,1,0,0,.83h1.58a.42.42,0,1,0,0-.83Z"/><path class="cls-35" d="M102.81,7.07H97a.42.42,0,0,0-.42.42h0A.42.42,0,0,0,97,7.9h5.82a.42.42,0,0,0,.42-.42h0A.42.42,0,0,0,102.81,7.07Z"/><g class="cls-21"><path class="cls-38" d="M87.46,7.6V44H85.62V9.26A8.19,8.19,0,0,1,87.46,7.6Z"/><path class="cls-38" d="M114.18,9.43V44h-1.84V7.68A8.13,8.13,0,0,1,114.18,9.43Z"/></g><rect class="cls-22" x="81.53" y="46.21" width="36.73" height="2.3"/><circle class="cls-22" cx="99.9" cy="16.06" r="2.28"/><circle class="cls-6" cx="99.9" cy="16.06" r="1.76"/></g></g></g></g></g></svg>