<svg xmlns="http://www.w3.org/2000/svg" xmlns:xlink="http://www.w3.org/1999/xlink" viewBox="0 0 236.62 116.41"><defs><style>.cls-1{isolation:isolate;}.cls-2{fill:#bccedd;}.cls-11,.cls-12,.cls-17,.cls-26,.cls-3,.cls-31,.cls-32,.cls-35,.cls-41,.cls-52{mix-blend-mode:multiply;}.cls-3{fill:url(#Áåçûìÿííûé_ãðàäèåíò_9);}.cls-4{fill:#87ccd8;}.cls-5{fill:#256;}.cls-11,.cls-6{fill:#b6e7f2;}.cls-7{fill:#2c3e50;}.cls-34,.cls-8,.cls-9{fill:#bcbec0;}.cls-23,.cls-40,.cls-46,.cls-49,.cls-51,.cls-8,.cls-9{mix-blend-mode:overlay;}.cls-9{opacity:0.63;}.cls-10{fill:#2e6b7c;}.cls-12{fill:url(#Áåçûìÿííûé_ãðàäèåíò_9-2);}.cls-13{fill:#939598;}.cls-14{fill:#7ebfce;}.cls-15{fill:#ce1b31;}.cls-16{fill:#a3dce5;}.cls-17{fill:url(#Áåçûìÿííûé_ãðàäèåíò_9-3);}.cls-18{fill:#f57c00;}.cls-19{fill:#ffcc80;}.cls-20{fill:#546e7a;}.cls-21,.cls-40,.cls-46,.cls-51{fill:#b0bec5;}.cls-22{fill:#d82341;}.cls-23{fill:#d1cebd;}.cls-24{fill:#cfd8dc;}.cls-25{fill:#af0e29;}.cls-26{fill:url(#Áåçûìÿííûé_ãðàäèåíò_9-4);}.cls-27{fill:#34495e;}.cls-28{fill:#17c5cc;}.cls-29{fill:#15404c;}.cls-30{fill:#48647c;}.cls-31{fill:url(#Áåçûìÿííûé_ãðàäèåíò_9-5);}.cls-32{fill:url(#Áåçûìÿííûé_ãðàäèåíò_9-6);}.cls-33{fill:#f94e63;}.cls-35{fill:url(#Áåçûìÿííûé_ãðàäèåíò_9-7);}.cls-36{fill:#81d4fa;}.cls-37{fill:#b3e5fc;}.cls-38{fill:#90a4ae;}.cls-39{fill:#d13f4a;}.cls-41{fill:url(#Áåçûìÿííûé_ãðàäèåíò_9-8);}.cls-42{fill:#fff;}.cls-43{fill:#7f8c8d;}.cls-44{fill:#14b0bf;}.cls-45{fill:#455a64;}.cls-46{opacity:0.66;}.cls-47{fill:#78909c;}.cls-48{fill:#e0e0e0;}.cls-49{fill:#bdbdbd;opacity:0.46;}.cls-50{fill:#b20f2a;}.cls-51{opacity:0.43;}.cls-52{opacity:0.72;fill:url(#Áåçûìÿííûé_ãðàäèåíò_9-9);}</style><radialGradient id="Áåçûìÿííûé_ãðàäèåíò_9" cx="13.28" cy="-169.48" r="21" gradientTransform="translate(12.46 78.38) scale(0.71 0.11)" gradientUnits="userSpaceOnUse"><stop offset="0" stop-color="#9eadb8"/><stop offset="1" stop-color="#fff"/></radialGradient><radialGradient id="Áåçûìÿííûé_ãðàäèåíò_9-2" cx="32.51" cy="252.93" r="21.24" gradientTransform="translate(20.72 78.38) scale(0.86 0.11)" xlink:href="#Áåçûìÿííûé_ãðàäèåíò_9"/><radialGradient id="Áåçûìÿííûé_ãðàäèåíò_9-3" cx="124.44" cy="-392.29" r="17.72" gradientTransform="translate(-36.76 111.54) scale(1.43 0.16)" xlink:href="#Áåçûìÿííûé_ãðàäèåíò_9"/><radialGradient id="Áåçûìÿííûé_ãðàäèåíò_9-4" cx="96.75" cy="-531.27" r="21.25" gradientTransform="translate(-37.51 108.9) scale(1.16 0.14)" xlink:href="#Áåçûìÿííûé_ãðàäèåíò_9"/><radialGradient id="Áåçûìÿííûé_ãðàäèåíò_9-5" cx="92.06" cy="291.12" r="21.25" gradientTransform="translate(-12.44 55.84) scale(1.15 0.17)" xlink:href="#Áåçûìÿííûé_ãðàäèåíò_9"/><radialGradient id="Áåçûìÿííûé_ãðàäèåíò_9-6" cx="151.72" cy="208.02" r="21.24" gradientTransform="translate(40.27 85.56) scale(0.63 0.09)" xlink:href="#Áåçûìÿííûé_ãðàäèåíò_9"/><radialGradient id="Áåçûìÿííûé_ãðàäèåíò_9-7" cx="198.33" cy="-301.73" r="21.17" gradientTransform="translate(25.45 83.58) scale(0.79 0.08)" xlink:href="#Áåçûìÿííûé_ãðàäèåíò_9"/><radialGradient id="Áåçûìÿííûé_ãðàäèåíò_9-8" cx="215.74" cy="234.87" r="21.25" gradientTransform="translate(32.12 79.32) scale(0.85 0.1)" xlink:href="#Áåçûìÿííûé_ãðàäèåíò_9"/><radialGradient id="Áåçûìÿííûé_ãðàäèåíò_9-9" cx="130.27" cy="443.92" r="20.67" gradientTransform="translate(84.24 77.68) scale(0.64 0.08)" xlink:href="#Áåçûìÿííûé_ãðàäèåíò_9"/></defs><title>asd2</title><g class="cls-1"><g id="Layer_2" data-name="Layer 2"><g id="_1" data-name="1"><g id="_2" data-name="2"><g id="_1-2" data-name="1"><path class="cls-2" d="M96.64,116.41q-.84,0-1.68,0a.47.47,0,0,1-.44-.49.46.46,0,0,1,.49-.44q1.39.07,2.78,0a.48.48,0,0,1,.49.45.47.47,0,0,1-.45.49Zm4-.25a.47.47,0,0,1-.06-.94c.91-.11,1.84-.26,2.75-.43a.48.48,0,0,1,.55.37.47.47,0,0,1-.37.55c-.94.18-1.88.33-2.82.44Zm-8.43-.07h-.07c-.94-.13-1.89-.31-2.81-.53a.47.47,0,1,1,.21-.91c.9.21,1.82.38,2.73.51a.47.47,0,0,1-.06.94Zm14-1a.47.47,0,0,1-.12-.92c.88-.23,1.78-.5,2.68-.79a.47.47,0,0,1,.29.89c-.92.3-1.83.57-2.73.8Zm-19.45-.29-.15,0c-.91-.3-1.81-.65-2.67-1a.47.47,0,1,1,.38-.86c.83.37,1.71.7,2.59,1a.47.47,0,0,1-.15.92Zm24.82-1.45a.47.47,0,0,1-.17-.91c.84-.32,1.72-.68,2.59-1.06a.47.47,0,1,1,.38.86c-.89.39-1.77.75-2.63,1.08A.47.47,0,0,1,111.51,113.36Zm-30-.83a.47.47,0,0,1-.23-.06,27,27,0,0,1-2.42-1.55.47.47,0,1,1,.55-.76,25.82,25.82,0,0,0,2.33,1.49.47.47,0,0,1-.23.88Zm35.14-1.43a.47.47,0,0,1-.21-.89l1.25-.62q.61-.31,1.22-.67a.47.47,0,1,1,.48.81c-.42.25-.84.49-1.27.7l-1.26.63A.47.47,0,0,1,116.68,111.1Zm43.35-.6h-.59A.47.47,0,0,1,159,110a.47.47,0,0,1,.48-.46H160q1.11,0,2.21,0a.48.48,0,0,1,.49.45.47.47,0,0,1-.45.49Q161.16,110.5,160,110.5Zm-3.41-.11h0c-.93-.06-1.89-.14-2.83-.24a.47.47,0,0,1-.42-.52.48.48,0,0,1,.52-.42c.93.1,1.87.18,2.79.23a.47.47,0,0,1,0,.94Zm8.45-.15a.47.47,0,0,1,0-.94c.94-.1,1.87-.22,2.76-.37a.47.47,0,0,1,.15.93c-.92.15-1.87.28-2.82.38ZM151,109.8h-.07q-1.4-.21-2.8-.47a.47.47,0,0,1,.17-.92q1.38.26,2.76.46a.47.47,0,0,1-.07.93Zm19.61-.48a.47.47,0,0,1-.11-.93c.91-.22,1.82-.46,2.69-.74a.47.47,0,0,1,.28.9c-.89.28-1.82.53-2.75.75ZM77,109.23a.46.46,0,0,1-.32-.12,22.8,22.8,0,0,1-2-2.07.47.47,0,1,1,.72-.61,22.08,22.08,0,0,0,1.92,2,.47.47,0,0,1-.32.82Zm68.5-.47h-.1c-.92-.2-1.84-.43-2.76-.66a.47.47,0,0,1,.23-.91q1.36.35,2.73.65a.47.47,0,0,1-.1.93Zm-23.61-.59-.3-.36-.26-.39c.83-.54,1.61-1.05,2.4-1.52a.47.47,0,0,1,.48.81C123.4,107.16,122.63,107.67,121.86,108.17Zm54.15-.55a.47.47,0,0,1-.18-.91c.85-.35,1.7-.74,2.53-1.16a.47.47,0,1,1,.43.83c-.85.44-1.73.84-2.6,1.2A.45.45,0,0,1,176,107.62Zm-36-.25-.13,0q-1.37-.39-2.71-.81a.47.47,0,1,1,.28-.9q1.34.42,2.69.8a.47.47,0,0,1-.13.92Zm-113.53-.43a10.52,10.52,0,0,1-1.18-.07.47.47,0,0,1-.41-.52.48.48,0,0,1,.52-.41,9.11,9.11,0,0,0,2.67-.08.48.48,0,0,1,.55.38.47.47,0,0,1-.38.55A9.89,9.89,0,0,1,26.48,106.94Zm-3.84-.8a.46.46,0,0,1-.19,0A7.94,7.94,0,0,1,20,104.42a.47.47,0,1,1,.67-.66,7,7,0,0,0,2.17,1.48.47.47,0,0,1-.19.9Zm8.2-.2a.47.47,0,0,1-.19-.9A15,15,0,0,0,33,103.69a.47.47,0,1,1,.53.78A16,16,0,0,1,31,105.9.46.46,0,0,1,30.85,105.94Zm103.78-.25-.15,0-.35-.12c-.87-.3-1.62-.55-2.29-.72a.47.47,0,1,1,.23-.91c.72.18,1.48.44,2.37.75l.35.12a.47.47,0,0,1-.15.92Zm-8.18-.21a.47.47,0,0,1-.18-.91l.26-.1a12.07,12.07,0,0,1,2.55-.73.47.47,0,1,1,.14.93,11.26,11.26,0,0,0-2.35.67l-.25.1A.47.47,0,0,1,126.44,105.48ZM181,105a.47.47,0,0,1-.25-.87c.78-.49,1.55-1,2.29-1.57a.47.47,0,1,1,.56.75c-.76.57-1.56,1.12-2.36,1.62A.48.48,0,0,1,181,105Zm-107.68-.11a.47.47,0,0,1-.4-.22,20.14,20.14,0,0,1-1.37-2.54.47.47,0,1,1,.86-.39,19.08,19.08,0,0,0,1.31,2.42.47.47,0,0,1-.4.72ZM35.5,102.8a.47.47,0,0,1-.32-.82c.62-.56,1.25-1.18,1.91-1.88a.51.51,0,0,1,.7-.07.43.43,0,0,1,.06.63l-.07.08c-.67.72-1.32,1.36-2,1.94A.47.47,0,0,1,35.5,102.8Zm-16.64-.62a.47.47,0,0,1-.45-.32A7.5,7.5,0,0,1,18,99.45c0-.18,0-.37,0-.55a.46.46,0,0,1,.5-.44A.47.47,0,0,1,19,99c0,.16,0,.33,0,.49a6.55,6.55,0,0,0,.34,2.11.47.47,0,0,1-.29.6Zm166.67-.51a.47.47,0,0,1-.31-.82c.69-.62,1.37-1.27,2-1.93a.47.47,0,1,1,.68.65c-.65.68-1.34,1.35-2.05,2A.47.47,0,0,1,185.53,101.67ZM71,99.81a.47.47,0,0,1-.45-.34,21.17,21.17,0,0,1-.6-2.82.47.47,0,0,1,.4-.53.48.48,0,0,1,.53.4,20.23,20.23,0,0,0,.57,2.69.47.47,0,0,1-.32.58ZM39.35,98.68a.46.46,0,0,1-.3-.11.47.47,0,0,1-.07-.66c.58-.72,1.15-1.47,1.69-2.22a.47.47,0,1,1,.77.54c-.55.77-1.13,1.54-1.72,2.27A.47.47,0,0,1,39.35,98.68Zm150.05-1.1a.47.47,0,0,1-.37-.76c.58-.74,1.13-1.49,1.62-2.25a.47.47,0,0,1,.79.51c-.51.78-1.07,1.56-1.67,2.32A.47.47,0,0,1,189.4,97.58ZM19.15,96.66a.46.46,0,0,1-.17,0,.47.47,0,0,1-.27-.61,10.43,10.43,0,0,1,.67-1.4,12.44,12.44,0,0,1,.76-1.16.47.47,0,1,1,.76.56,11.57,11.57,0,0,0-.7,1.08,9.55,9.55,0,0,0-.61,1.27A.47.47,0,0,1,19.15,96.66Zm51.08-2.41a.47.47,0,0,1-.47-.46v-.32a24.43,24.43,0,0,1,.14-2.55.47.47,0,0,1,.93.1,23.63,23.63,0,0,0-.13,2.46v.3a.47.47,0,0,1-.46.48Zm-27.62-.16a.47.47,0,0,1-.4-.72c.48-.79,1-1.6,1.39-2.42a.47.47,0,1,1,.83.44c-.45.84-.92,1.67-1.42,2.47A.47.47,0,0,1,42.61,94.08Zm149.86-1.23a.46.46,0,0,1-.22-.05.47.47,0,0,1-.2-.63c.39-.75.75-1.53,1.06-2.3a.47.47,0,0,1-.06-.26.46.46,0,0,1,.5-.44,24.19,24.19,0,0,0,2.76,0,.46.46,0,0,1,.5.44.47.47,0,0,1-.44.5c-.78,0-1.56.05-2.35,0-.33.83-.71,1.66-1.13,2.47A.47.47,0,0,1,192.47,92.86ZM22.4,92.11a.47.47,0,0,1-.32-.81,26,26,0,0,1,2.2-1.84.47.47,0,0,1,.57.75A25,25,0,0,0,22.72,92,.46.46,0,0,1,22.4,92.11ZM199.14,89.8a.47.47,0,0,1-.08-.93,26.67,26.67,0,0,0,2.7-.6.47.47,0,1,1,.25.91,28.27,28.27,0,0,1-2.8.62Zm-8.42,0h-.09c-.65-.12-1.31-.27-2-.44l-.84-.24a.47.47,0,0,1,.28-.9l.8.23c.62.17,1.25.31,1.88.42a.47.47,0,0,1-.08.93ZM45.26,89.11a.48.48,0,0,1-.2,0,.47.47,0,0,1-.23-.62c.38-.84.75-1.71,1.08-2.57a.47.47,0,1,1,.88.34c-.34.88-.71,1.77-1.1,2.63A.47.47,0,0,1,45.26,89.11Zm-18.4-.44a.47.47,0,0,1-.26-.86c.78-.52,1.59-1,2.4-1.52a.47.47,0,1,1,.48.81c-.8.48-1.6,1-2.36,1.5A.47.47,0,0,1,26.86,88.67Zm44,0h-.1a.47.47,0,0,1-.36-.56,27.73,27.73,0,0,1,.76-2.76v0c-.56-.12-1.14-.27-1.75-.43a.47.47,0,0,1,.25-.91c1,.26,1.85.47,2.71.63a.47.47,0,0,1,.38.55.47.47,0,0,1-.55.38l-.13,0a.47.47,0,0,1,0,.14,26.84,26.84,0,0,0-.74,2.67A.47.47,0,0,1,70.82,88.65Zm133.75-.34a.47.47,0,0,1-.17-.91c.86-.33,1.71-.71,2.53-1.13a.47.47,0,0,1,.42.84c-.85.43-1.73.82-2.62,1.17A.49.49,0,0,1,204.57,88.31Zm-19.22-.22a.47.47,0,0,1-.2,0,19.51,19.51,0,0,1-2.52-1.42.47.47,0,1,1,.52-.78,18.59,18.59,0,0,0,2.4,1.35.47.47,0,0,1-.2.9Zm9.16-.47-.12,0a.47.47,0,0,1-.33-.58,22.93,22.93,0,0,0,.54-2.71.48.48,0,0,1,.53-.4.47.47,0,0,1,.4.53,23.61,23.61,0,0,1-.57,2.82A.47.47,0,0,1,194.51,87.62ZM80.71,86.16l0-.94q1.44,0,2.8-.07a.44.44,0,0,1,.49.45.47.47,0,0,1-.45.49C82.6,86.14,81.66,86.16,80.71,86.16Zm-2.85-.07h0c-.94,0-1.89-.12-2.84-.21a.47.47,0,0,1-.42-.51.48.48,0,0,1,.51-.42c.93.09,1.87.16,2.79.21a.47.47,0,0,1,0,.94Zm8.45-.2a.47.47,0,0,1,0-.94c.92-.09,1.85-.2,2.78-.34a.47.47,0,0,1,.14.93c-.94.14-1.89.26-2.82.35Zm123.29-.12a.47.47,0,0,1-.25-.87c.78-.5,1.55-1,2.27-1.6a.47.47,0,1,1,.58.74c-.75.58-1.53,1.14-2.34,1.65A.47.47,0,0,1,209.6,85.77Zm-177.9,0a.47.47,0,0,1-.22-.88c.84-.45,1.69-.88,2.54-1.28a.47.47,0,0,1,.4.85c-.83.39-1.67.82-2.5,1.26A.46.46,0,0,1,31.7,85.76Zm60.19-.7a.47.47,0,0,1-.09-.93c.92-.18,1.83-.39,2.73-.62a.47.47,0,0,1,.23.91c-.91.23-1.84.44-2.77.63ZM180.7,85a.47.47,0,0,1-.32-.13,14.13,14.13,0,0,1-1.9-2.21.47.47,0,0,1,.78-.53A13.12,13.12,0,0,0,181,84.14a.47.47,0,0,1,0,.67A.46.46,0,0,1,180.7,85Zm-113.89-.9-.15,0c-.9-.3-1.79-.61-2.68-.92a.47.47,0,0,1,.31-.89c.88.31,1.77.62,2.66.91a.47.47,0,0,1-.15.92Zm-19.52-.2-.14,0a.47.47,0,0,1-.31-.59c.28-.89.54-1.79.76-2.68a.47.47,0,0,1,.09-.18.47.47,0,0,1-.11-.93c1-.12,1.93-.2,2.86-.22a.47.47,0,0,1,0,.94c-.69,0-1.4.07-2.12.14a.47.47,0,0,1,.17.49c-.23.91-.49,1.84-.78,2.74A.47.47,0,0,1,47.29,83.85Zm50.07-.16a.47.47,0,0,1-.14-.92c.89-.27,1.78-.57,2.65-.89a.47.47,0,0,1,.32.88c-.88.32-1.79.63-2.7.9ZM36.8,83.35a.47.47,0,0,1-.18-.9c.88-.36,1.78-.71,2.66-1a.47.47,0,0,1,.31.89c-.87.3-1.75.63-2.61,1A.45.45,0,0,1,36.8,83.35Zm35.79,0a.45.45,0,0,1-.19,0,.47.47,0,0,1-.24-.62c.39-.87.83-1.73,1.3-2.55a.47.47,0,0,1,.82.47c-.46.8-.88,1.63-1.26,2.47A.47.47,0,0,1,72.59,83.31Zm141.45-1a.47.47,0,0,1-.32-.81c.67-.64,1.31-1.32,1.91-2a.47.47,0,1,1,.71.61,28.28,28.28,0,0,1-2,2.08A.46.46,0,0,1,214,82.31ZM61.48,82.2l-.15,0c-.89-.3-1.78-.59-2.67-.85a.47.47,0,1,1,.26-.9c.9.26,1.8.56,2.71.87a.47.47,0,0,1-.15.92ZM195.27,82h0a.47.47,0,0,1-.46-.48v-.17a20.74,20.74,0,0,0-.16-2.57.47.47,0,0,1,.93-.12,21.7,21.7,0,0,1,.17,2.69v.19A.47.47,0,0,1,195.27,82Zm-92.62-.29a.47.47,0,0,1-.18-.9l.84-.37c.57-.25,1.13-.53,1.66-.82a.47.47,0,0,1,.45.83c-.56.3-1.14.59-1.73.85l-.86.37A.48.48,0,0,1,102.65,81.75ZM42.13,81.5a.47.47,0,0,1-.13-.92c.93-.26,1.86-.49,2.77-.68a.47.47,0,0,1,.19.92c-.89.19-1.8.41-2.71.66Zm13.94-.86H56a23.4,23.4,0,0,0-2.73-.42.47.47,0,1,1,.08-.94,24.4,24.4,0,0,1,2.84.43.47.47,0,0,1-.1.93Zm121.49-.32a.47.47,0,0,1-.44-.3c-.06-.15-.11-.31-.17-.46a9.67,9.67,0,0,1-.48-2.42.47.47,0,0,1,.44-.5.48.48,0,0,1,.5.44,8.77,8.77,0,0,0,.43,2.18l.15.43a.47.47,0,0,1-.27.61A.46.46,0,0,1,177.55,80.33ZM107.6,79.06a.47.47,0,0,1-.27-.85,19.58,19.58,0,0,0,2.14-1.73.47.47,0,0,1,.64.69A20.44,20.44,0,0,1,107.87,79,.47.47,0,0,1,107.6,79.06ZM75.4,78.42a.47.47,0,0,1-.38-.74c.54-.76,1.13-1.52,1.76-2.26a.47.47,0,0,1,.72.61c-.6.71-1.18,1.45-1.71,2.19A.47.47,0,0,1,75.4,78.42Zm-26.72,0h-.09a.47.47,0,0,1-.37-.55c.17-.91.32-1.84.44-2.76a.47.47,0,0,1,.93.12c-.12.93-.27,1.88-.45,2.81A.47.47,0,0,1,48.67,78.38Zm169-.36a.47.47,0,0,1-.39-.74,25,25,0,0,0,1.43-2.36.47.47,0,1,1,.83.44,26,26,0,0,1-1.49,2.45A.47.47,0,0,1,217.7,78Zm-23.18-1.55a.47.47,0,0,1-.45-.33A15.55,15.55,0,0,0,193,73.62a.47.47,0,0,1,.83-.44A16.38,16.38,0,0,1,195,75.86a.47.47,0,0,1-.31.59Zm-82.86-1.29a.47.47,0,0,1-.38-.75,9.77,9.77,0,0,0,1.27-2.36.47.47,0,1,1,.88.32A10.75,10.75,0,0,1,112,75,.47.47,0,0,1,111.66,75.18Zm65.46-.4H177a.47.47,0,0,1-.37-.55,10.92,10.92,0,0,1,1-2.78.47.47,0,1,1,.84.43,10,10,0,0,0-.88,2.54A.47.47,0,0,1,177.13,74.78ZM79,74.12a.47.47,0,0,1-.33-.8c.65-.66,1.36-1.31,2.09-1.95a.47.47,0,0,1,.62.71c-.71.62-1.4,1.26-2,1.9A.47.47,0,0,1,79,74.12Zm141.31-1.07a.47.47,0,0,1-.44-.65,26.75,26.75,0,0,0,.9-2.62.47.47,0,0,1,.58-.32.47.47,0,0,1,.32.58,27.87,27.87,0,0,1-.93,2.71A.47.47,0,0,1,220.35,73.06Zm-171-.27h0a.47.47,0,0,1-.44-.5c.06-.93.1-1.87.1-2.79a.47.47,0,0,1,.47-.47h0a.47.47,0,0,1,.47.47c0,.94,0,1.9-.1,2.85A.47.47,0,0,1,49.39,72.79ZM191.9,71.51a.47.47,0,0,1-.37-.18,11.78,11.78,0,0,0-1.91-1.92.47.47,0,1,1,.58-.74,12.67,12.67,0,0,1,2.07,2.07.47.47,0,0,1-.37.76ZM83.29,70.42a.47.47,0,0,1-.28-.84c.74-.56,1.52-1.12,2.32-1.65a.47.47,0,0,1,.52.78c-.79.53-1.55,1.07-2.27,1.62A.47.47,0,0,1,83.29,70.42Zm30.18-.47a.47.47,0,0,1-.47-.46,7.07,7.07,0,0,0-.18-1.48,6.79,6.79,0,0,0-.36-1.09.47.47,0,0,1,.86-.37,7.64,7.64,0,0,1,.41,1.24,7.93,7.93,0,0,1,.21,1.68.47.47,0,0,1-.46.48Zm66.21-.11a.47.47,0,0,1-.33-.8,7.91,7.91,0,0,1,2.44-1.71.47.47,0,1,1,.38.86A7,7,0,0,0,180,69.7.47.47,0,0,1,179.68,69.84ZM22,68.34h0q-.61,0-1.22-.07A15,15,0,0,1,19.12,68a.47.47,0,0,1,.19-.92,14.09,14.09,0,0,0,1.56.23q.58.05,1.16.07a.47.47,0,0,1,0,.94Zm2.82-.1a.47.47,0,0,1,0-.94,23,23,0,0,0,2.72-.45.47.47,0,1,1,.21.92,23.52,23.52,0,0,1-2.84.47Zm162.64-.12a.46.46,0,0,1-.17,0,7,7,0,0,0-2.46-.46.53.53,0,0,1-.54-.46.42.42,0,0,1,.39-.47h.08a8,8,0,0,1,2.86.52.47.47,0,0,1-.17.91Zm34.43-.48h-.09a.47.47,0,0,1-.38-.55c.16-.9.29-1.82.37-2.75a.48.48,0,0,1,.51-.43.47.47,0,0,1,.43.51c-.08,1-.21,1.91-.38,2.84A.47.47,0,0,1,221.91,67.65ZM88,67.28a.47.47,0,0,1-.24-.87c.8-.47,1.63-.94,2.48-1.39a.47.47,0,1,1,.44.83c-.84.44-1.66.91-2.44,1.37A.47.47,0,0,1,88,67.28Zm-71.45-.05a.47.47,0,0,1-.18,0,14.55,14.55,0,0,1-2.58-1.36.47.47,0,0,1,.52-.78,13.57,13.57,0,0,0,2.41,1.27.47.47,0,0,1-.18.91Zm32.89-.07a.47.47,0,0,1-.47-.44q0-.59-.08-1.17A15.55,15.55,0,0,0,48.65,64a.47.47,0,0,1,.92-.17,16.3,16.3,0,0,1,.23,1.67q.05.59.09,1.19a.47.47,0,0,1-.44.5ZM30.32,67a.47.47,0,0,1-.15-.91,27.49,27.49,0,0,0,2.57-1,.47.47,0,0,1,.4.85A28.23,28.23,0,0,1,30.48,67Zm81-2.13a.47.47,0,0,1-.34-.15,9.21,9.21,0,0,0-2.12-1.64.47.47,0,0,1,.47-.82,10.22,10.22,0,0,1,2.33,1.81.47.47,0,0,1-.34.79Zm-75.9-.24a.47.47,0,0,1-.24-.88c.79-.46,1.58-1,2.34-1.5a.47.47,0,1,1,.54.77c-.79.55-1.6,1.07-2.41,1.54A.47.47,0,0,1,35.44,64.63Zm57.51,0a.47.47,0,0,1-.2-.89l.31-.15c.83-.39,1.58-.72,2.28-1a.47.47,0,0,1,.36.87c-.69.28-1.43.61-2.24,1l-.31.15A.47.47,0,0,1,92.95,64.63Zm-81.05-.55a.47.47,0,0,1-.35-.16A8.84,8.84,0,0,1,10,61.43a.47.47,0,0,1,.87-.36,7.9,7.9,0,0,0,1.43,2.23.47.47,0,0,1-.35.78Zm86.28-1.56A.47.47,0,0,1,98,61.6a21.36,21.36,0,0,1,2.81-.66.47.47,0,0,1,.15.93,20.19,20.19,0,0,0-2.68.63Zm8.34-.44-.12,0a10.63,10.63,0,0,0-1.9-.34l-.78,0a.47.47,0,0,1-.46-.48.5.5,0,0,1,.48-.46l.83,0a11.5,11.5,0,0,1,2.06.37.47.47,0,0,1-.12.92ZM222.4,62a.47.47,0,0,1-.47-.47c0-.92,0-1.85-.14-2.77a.47.47,0,0,1,.94-.09c.09,1,.14,1.92.14,2.86a.47.47,0,0,1-.47.47ZM48.32,61.65a.47.47,0,0,1-.44-.3,14.29,14.29,0,0,0-1.25-2.42.47.47,0,1,1,.79-.51A15.09,15.09,0,0,1,48.76,61a.47.47,0,0,1-.44.64ZM40,61.4a.47.47,0,0,1-.3-.83c.71-.59,1.4-1.21,2.07-1.86a.47.47,0,1,1,.65.67c-.69.66-1.4,1.31-2.12,1.91A.47.47,0,0,1,40,61.4ZM9.84,59h0a.47.47,0,0,1-.47-.47,7.91,7.91,0,0,1,.58-2.92.47.47,0,0,1,.87.35,7,7,0,0,0-.51,2.58A.47.47,0,0,1,9.84,59ZM44.1,57.48a.47.47,0,0,1-.35-.78l.53-.6c-.42-.4-.87-.79-1.34-1.16a.47.47,0,1,1,.58-.74c.48.38.94.77,1.37,1.18l.67-.81a.47.47,0,1,1,.73.59l-.73.9.09.1a.47.47,0,0,1-.69.64l0,0-.49.56A.47.47,0,0,1,44.1,57.48Zm177.78-1a.47.47,0,0,1-.46-.39c-.17-.91-.37-1.82-.62-2.71a.47.47,0,1,1,.91-.25c.25.91.46,1.85.63,2.79a.47.47,0,0,1-.38.55Zm-115.11-.35h0a17,17,0,0,1-2.88-.25.47.47,0,1,1,.16-.93,16,16,0,0,0,2.72.23.47.47,0,0,1,.47.47A.47.47,0,0,1,106.76,56.08Zm2.81-.25a.47.47,0,0,1-.08-.93,14.13,14.13,0,0,0,2-.5l.65-.23a.47.47,0,0,1,.33.88l-.68.24a15,15,0,0,1-2.12.54Zm-8.33-.72-.16,0a13.27,13.27,0,0,1-2.61-1.3A.47.47,0,0,1,99,53a12.3,12.3,0,0,0,2.42,1.21.47.47,0,0,1-.16.91Zm13.61-1.21a.47.47,0,0,1-.23-.88,20.18,20.18,0,0,0,2.32-1.49.47.47,0,0,1,.56.76,21.2,21.2,0,0,1-2.43,1.55A.46.46,0,0,1,114.84,53.91Zm-103-.1a.47.47,0,0,1-.36-.77,10.87,10.87,0,0,1,2.16-2,.47.47,0,1,1,.54.77,9.92,9.92,0,0,0-2,1.82A.47.47,0,0,1,11.82,53.81Zm29.08-.36a.47.47,0,0,1-.24-.06,24.82,24.82,0,0,0-2.46-1.27.47.47,0,0,1,.38-.86,25.78,25.78,0,0,1,2.55,1.32.47.47,0,0,1-.24.88Zm6.73-.37a.47.47,0,0,1-.38-.75q.82-1.13,1.59-2.31a.47.47,0,1,1,.78.52q-.78,1.19-1.61,2.34A.47.47,0,0,1,47.62,53.08Zm49-1.05a.47.47,0,0,1-.35-.16,9.1,9.1,0,0,1-1.56-2.51.47.47,0,0,1,.87-.36,8.15,8.15,0,0,0,1.4,2.25.47.47,0,0,1-.35.78Zm-60.82-.89-.15,0c-.86-.29-1.76-.55-2.67-.77a.47.47,0,0,1,.22-.91c.94.23,1.86.5,2.75.8a.47.47,0,0,1-.15.92ZM220.39,51a.47.47,0,0,1-.44-.31c-.32-.87-.68-1.73-1.07-2.56a.47.47,0,1,1,.85-.4c.4.85.77,1.74,1.1,2.64a.47.47,0,0,1-.28.6A.46.46,0,0,1,220.39,51Zm-204-.42a.47.47,0,0,1-.17-.91A16.63,16.63,0,0,1,19,48.84a.47.47,0,0,1,.19.92,15.64,15.64,0,0,0-2.62.78A.47.47,0,0,1,16.36,50.57Zm103,0a.47.47,0,0,1-.33-.81,22.79,22.79,0,0,0,1.87-2,.47.47,0,1,1,.73.59,23.44,23.44,0,0,1-1.95,2.12A.47.47,0,0,1,119.37,50.57Zm-89.07-.78h-.08c-.91-.15-1.84-.26-2.76-.34a.47.47,0,0,1-.43-.51.46.46,0,0,1,.51-.43c.95.08,1.9.2,2.83.35a.47.47,0,0,1-.08.93Zm-8.44-.4a.47.47,0,0,1,0-.94q.65-.05,1.3-.07l1.17,0h.39a.47.47,0,0,1,.46.48.5.5,0,0,1-.48.47h-.38l-1.14,0-1.26.07Zm28.88-1a.46.46,0,0,1-.25-.07.47.47,0,0,1-.16-.65q.73-1.2,1.43-2.41a.47.47,0,1,1,.82.47q-.71,1.23-1.44,2.44A.47.47,0,0,1,50.73,48.37ZM94.48,46.9a.47.47,0,0,1-.47-.44c0-.21,0-.42,0-.63a10.69,10.69,0,0,1,.26-2.3.47.47,0,1,1,.92.2,9.75,9.75,0,0,0-.24,2.1c0,.19,0,.38,0,.57a.47.47,0,0,1-.44.5Zm28.44-.7a.47.47,0,0,1-.4-.72,24.36,24.36,0,0,0,1.35-2.41.47.47,0,1,1,.84.41,25.63,25.63,0,0,1-1.4,2.51A.47.47,0,0,1,122.92,46.2ZM218,45.9a.47.47,0,0,1-.41-.23c-.47-.8-1-1.58-1.51-2.33a.47.47,0,0,1,.77-.55c.55.77,1.07,1.58,1.55,2.4a.47.47,0,0,1-.41.71Zm-40.57-.49a.47.47,0,0,1,0-.94A8.37,8.37,0,0,0,180,44a.47.47,0,0,1,.33.88,9.27,9.27,0,0,1-2.9.56ZM174.64,45l-.14,0a7.07,7.07,0,0,1-2.63-1.45.47.47,0,0,1,.62-.7,6.13,6.13,0,0,0,2.28,1.25.47.47,0,0,1-.14.92ZM53.56,43.49a.47.47,0,0,1-.41-.7q.68-1.23,1.35-2.47a.47.47,0,1,1,.83.44Q54.65,42,54,43.25A.47.47,0,0,1,53.56,43.49Zm129.07,0a.47.47,0,0,1-.29-.84,13.81,13.81,0,0,0,2-1.87.47.47,0,1,1,.71.62,14.82,14.82,0,0,1-2.12,2A.47.47,0,0,1,182.62,43.48Zm-87-2a.47.47,0,0,1-.43-.67,19.72,19.72,0,0,1,1.41-2.52.47.47,0,1,1,.79.51A19,19,0,0,0,96,41.17.47.47,0,0,1,95.62,41.44Zm75-.06a.47.47,0,0,1-.44-.31,6.47,6.47,0,0,1-.36-2.15,7.07,7.07,0,0,1,.05-.85.47.47,0,1,1,.93.11,6.45,6.45,0,0,0,0,.74,5.56,5.56,0,0,0,.3,1.83.47.47,0,0,1-.29.6Zm44.09-.08a.47.47,0,0,1-.36-.16l-.15-.17c-.56-.63-1.15-1.25-1.76-1.84a.47.47,0,0,1,.65-.68c.63.61,1.24,1.25,1.81,1.9l.15.18a.47.47,0,0,1-.36.78Zm-89.33-.16-.16,0a.47.47,0,0,1-.29-.6,24.35,24.35,0,0,0,.78-2.65.47.47,0,0,1,.92.21,25.35,25.35,0,0,1-.81,2.76A.47.47,0,0,1,125.39,41.15Zm61-1.85a.47.47,0,0,1-.4-.72,22.6,22.6,0,0,0,1.34-2.42.47.47,0,0,1,.85.4,23.53,23.53,0,0,1-1.39,2.52A.47.47,0,0,1,186.36,39.29ZM56.23,38.53a.47.47,0,0,1-.41-.69l.09-.17c.4-.74.8-1.52,1.21-2.32a.47.47,0,1,1,.84.43c-.41.81-.82,1.59-1.22,2.34l-.09.17A.47.47,0,0,1,56.23,38.53ZM210.67,37.4a.47.47,0,0,1-.3-.1c-.71-.58-1.46-1.13-2.23-1.66a.47.47,0,0,1,.53-.78c.79.54,1.56,1.11,2.3,1.71a.47.47,0,0,1-.3.84Zm-112-.69a.47.47,0,0,1-.37-.76c.4-.5.82-1,1.23-1.45l.63-.7a.47.47,0,0,1,.69.63l-.62.69q-.61.69-1.2,1.42A.47.47,0,0,1,98.66,36.7Zm72.51-.78a.46.46,0,0,1-.21-.05.47.47,0,0,1-.21-.63,9.2,9.2,0,0,1,1.75-2.39.47.47,0,1,1,.66.67,8.24,8.24,0,0,0-1.57,2.14A.47.47,0,0,1,171.17,35.92Zm-44.5-.26h-.05a.47.47,0,0,1-.41-.52,22.64,22.64,0,0,0,.14-2.54v-.22a.47.47,0,0,1,.46-.48h0a.47.47,0,0,1,.47.46v.22a23.87,23.87,0,0,1-.15,2.65A.47.47,0,0,1,126.67,35.66ZM206,34.23a.47.47,0,0,1-.23-.06c-.8-.45-1.63-.88-2.47-1.28a.47.47,0,0,1,.4-.85c.86.4,1.72.84,2.54,1.31a.47.47,0,0,1-.23.88Zm-17.22,0-.15,0a.47.47,0,0,1-.29-.6,25.33,25.33,0,0,0,.76-2.66.47.47,0,1,1,.92.21,26.69,26.69,0,0,1-.79,2.76A.47.47,0,0,1,188.8,34.22Zm-130-.71a.47.47,0,0,1-.42-.68l1.28-2.52a.47.47,0,1,1,.84.43l-1.28,2.51A.47.47,0,0,1,58.82,33.51Zm43.63-1a.47.47,0,0,1-.33-.8q1-1,2-2a.47.47,0,0,1,.64.69q-1,1-2,1.95A.47.47,0,0,1,102.45,32.53ZM175.09,32a.47.47,0,0,1-.23-.88,15.52,15.52,0,0,1,2.66-1.17.47.47,0,0,1,.3.89,14.57,14.57,0,0,0-2.5,1.1A.46.46,0,0,1,175.09,32Zm25.82-.14a.48.48,0,0,1-.17,0c-.86-.33-1.75-.62-2.64-.88a.47.47,0,1,1,.26-.9c.91.27,1.82.57,2.71.91a.47.47,0,0,1-.17.91Zm-5.41-1.59h-.1c-.9-.19-1.83-.36-2.74-.48a.47.47,0,0,1-.4-.53.48.48,0,0,1,.53-.4c.94.13,1.89.3,2.81.49a.47.47,0,0,1-.1.93Zm-15.11-.14a.47.47,0,0,1-.09-.93l1.11-.21c.93-.16,1.88-.28,2.83-.36a.48.48,0,0,1,.51.43.47.47,0,0,1-.43.51c-.92.08-1.85.2-2.76.35l-1.08.2ZM126.61,30a.47.47,0,0,1-.46-.41,24.71,24.71,0,0,0-.52-2.71.47.47,0,1,1,.91-.23,25,25,0,0,1,.54,2.82.47.47,0,0,1-.4.53Zm63.31-.55h0c-.78,0-1.56-.07-2.33-.07h-.46a.47.47,0,0,1,0-.94h.46c.7,0,1.4,0,2.11.06a.46.46,0,0,1-.08-.32,21.51,21.51,0,0,0,.13-2.36v-.39a.47.47,0,0,1,.46-.48h0a.47.47,0,0,1,.47.46v.41a22.46,22.46,0,0,1-.14,2.47.47.47,0,0,1-.26.37.47.47,0,0,1-.33.8Zm-83.34-.8a.47.47,0,0,1-.31-.83q1.08-.93,2.19-1.81a.47.47,0,0,1,.58.74q-1.1.87-2.16,1.78A.47.47,0,0,1,106.58,28.69Zm-45.19-.2A.47.47,0,0,1,61,27.8c.44-.83.88-1.66,1.34-2.49a.47.47,0,1,1,.82.45c-.45.82-.9,1.65-1.33,2.48A.47.47,0,0,1,61.39,28.49Zm49.6-3.3a.47.47,0,0,1-.28-.85q1.15-.84,2.32-1.63a.47.47,0,1,1,.53.78q-1.16.78-2.29,1.61A.47.47,0,0,1,111,25.18Zm14.24-.6a.47.47,0,0,1-.44-.31,26.75,26.75,0,0,0-1.1-2.54.47.47,0,0,1,.84-.42,27.51,27.51,0,0,1,1.14,2.63.47.47,0,0,1-.28.6A.48.48,0,0,1,125.24,24.58Zm-61.11-1a.47.47,0,0,1-.4-.71q.72-1.23,1.49-2.42a.47.47,0,0,1,.79.51c-.5.78-1,1.58-1.47,2.39A.47.47,0,0,1,64.13,23.55Zm125.78-.44a.47.47,0,0,1-.46-.39,13.69,13.69,0,0,0-.73-2.62.47.47,0,0,1,.87-.35,14.64,14.64,0,0,1,.79,2.8.47.47,0,0,1-.38.55ZM115.67,22a.47.47,0,0,1-.25-.87q1.21-.75,2.44-1.45a.47.47,0,1,1,.46.82q-1.22.69-2.41,1.43A.47.47,0,0,1,115.67,22Zm7.06-2.49a.47.47,0,0,1-.4-.22l-.45-.69-1.09.56a.47.47,0,0,1-.44-.83l1-.51-.6-.8a.47.47,0,1,1,.74-.57c.24.31.48.63.71,1l.7-.34a.47.47,0,1,1,.4.85l-.56.27.4.61a.47.47,0,0,1-.4.72Zm-55.55-.73a.47.47,0,0,1-.38-.74c.57-.8,1.16-1.57,1.73-2.27a.47.47,0,1,1,.73.6c-.56.68-1.13,1.43-1.69,2.22A.47.47,0,0,1,67.19,18.81Zm120.62-.88a.47.47,0,0,1-.38-.19,9.43,9.43,0,0,0-.62-.77,10.91,10.91,0,0,0-1.24-1.17.47.47,0,0,1,.59-.73,11.76,11.76,0,0,1,1.35,1.27,10.41,10.41,0,0,1,.68.84.47.47,0,0,1-.38.75Zm-62.14-1.12a.47.47,0,0,1-.19-.9q1.3-.56,2.62-1.08a.47.47,0,0,1,.34.88q-1.31.51-2.59,1.07A.47.47,0,0,1,125.66,16.81Zm-6.37-1.74a.47.47,0,0,1-.34-.15c-.63-.67-1.3-1.32-2-1.94a.47.47,0,0,1,.63-.7c.71.63,1.4,1.31,2,2a.47.47,0,0,1-.34.79Zm11.62-.32a.47.47,0,0,1-.16-.91q1.34-.47,2.69-.89a.47.47,0,1,1,.28.9q-1.34.42-2.66.88Zm-60.14-.3a.47.47,0,0,1-.34-.8,24.85,24.85,0,0,1,2.12-1.94.47.47,0,1,1,.59.73,23.71,23.71,0,0,0-2,1.87A.47.47,0,0,1,70.77,14.46Zm112.73-.1a.48.48,0,0,1-.22-.06,20.22,20.22,0,0,0-2.52-1.12.47.47,0,0,1,.33-.88,21.33,21.33,0,0,1,2.63,1.17.47.47,0,0,1-.22.89Zm-47.2-1.27a.47.47,0,0,1-.12-.92q1.37-.37,2.75-.7a.47.47,0,0,1,.21.92q-1.36.32-2.72.69Zm41.93-.71-.12,0c-.85-.22-1.76-.42-2.72-.61a.47.47,0,1,1,.17-.92c1,.18,1.92.39,2.79.62a.47.47,0,0,1-.12.92Zm-36.44-.58a.47.47,0,0,1-.09-.93q1.39-.27,2.79-.5a.47.47,0,1,1,.15.93q-1.38.22-2.76.49Zm-26.71-.47a.47.47,0,0,1-.28-.09c-.74-.55-1.52-1.07-2.31-1.54a.47.47,0,0,1,.49-.81c.81.49,1.61,1,2.38,1.59a.47.47,0,0,1-.28.85Zm57.61,0h-.06c-.93-.12-1.86-.23-2.78-.32a.47.47,0,0,1-.42-.51.48.48,0,0,1,.51-.42c.93.09,1.88.19,2.82.32a.47.47,0,0,1-.06.94Zm-25.33-.42a.47.47,0,0,1-.06-.94q1.41-.17,2.82-.3a.48.48,0,0,1,.51.43.47.47,0,0,1-.43.51q-1.39.12-2.79.3Zm-72.23,0a.47.47,0,0,1-.26-.86c.79-.51,1.62-1,2.47-1.45a.47.47,0,1,1,.44.83c-.83.44-1.63.91-2.39,1.41A.46.46,0,0,1,75.13,10.9Zm91.94-.13h0l-2.81-.17a.47.47,0,0,1-.44-.5.46.46,0,0,1,.5-.44l2.82.17a.47.47,0,0,1,0,.94Zm-5.64-.33h0q-1.4-.08-2.8-.11a.47.47,0,0,1-.46-.48.49.49,0,0,1,.48-.46q1.42,0,2.83.12a.47.47,0,0,1,0,.94Zm-8.46,0a.47.47,0,0,1,0-.94q1.42-.07,2.83-.09a.47.47,0,1,1,0,.94q-1.4,0-2.8.09Zm-42.72-2a.46.46,0,0,1-.2,0q-.76-.37-1.54-.69l-1-.39a.47.47,0,0,1,.33-.88l1,.41q.81.33,1.59.71a.47.47,0,0,1-.2.89ZM80.11,8.26a.47.47,0,0,1-.18-.9c.87-.37,1.77-.71,2.67-1a.47.47,0,1,1,.3.89c-.88.3-1.75.63-2.6,1A.48.48,0,0,1,80.11,8.26ZM105,6.46l-.12,0c-.88-.24-1.79-.45-2.71-.62a.47.47,0,1,1,.17-.92c.94.18,1.88.39,2.79.63a.47.47,0,0,1-.12.92Zm-19.53,0a.47.47,0,0,1-.12-.93c.91-.23,1.85-.44,2.79-.61a.47.47,0,0,1,.17.93c-.92.17-1.83.36-2.72.59Zm5.54-1a.47.47,0,0,1,0-.94c.95-.1,1.9-.17,2.85-.21a.47.47,0,1,1,0,.94c-.92,0-1.86.1-2.78.2Zm8.45,0h-.05c-.91-.1-1.85-.16-2.78-.19a.47.47,0,0,1-.46-.49.45.45,0,0,1,.49-.45c1,0,1.91.1,2.85.2a.47.47,0,0,1,0,.94Z"/></g><g id="_2-2" data-name="2"><ellipse class="cls-3" cx="21.89" cy="60.52" rx="14.9" ry="2.21"/><g id="_4" data-name="4"><path class="cls-4" d="M37.35,21l3.23.09a2.22,2.22,0,0,1,2,1.49l.56,1.61L44,25.58a2.22,2.22,0,0,1-.1,2.48L42.85,29.5,39.9,25.21Z"/><path class="cls-4" d="M4.93,21.61l-.67.08A30.64,30.64,0,0,0,9.52,33.51L12.28,23.3Z"/><polygon class="cls-5" points="13.01 20.96 4.27 21.69 12.28 23.3 13.01 20.96"/><path class="cls-6" d="M28.28,29.74h0v.07A0,0,0,0,1,28.28,29.74Z"/><path class="cls-6" d="M28.29,29.85v0l0,0S28.28,29.85,28.29,29.85Z"/><path class="cls-6" d="M45.28,42.31a13.08,13.08,0,0,1-6.07,7.76,20,20,0,0,1-5.76,2.4L33,50A13.83,13.83,0,0,0,41.2,43h0A10.82,10.82,0,0,0,41.56,38a54,54,0,0,0-1.83-7.47c-.87-2.63-2.46-4.17-3.1-4.29l-.2-.13,0,0h0c-4-.38-8,2.78-8.18,3.63l-.63-8-.56-2.09c.72,0,2.05-.08,2.77-.07,9,.18,11.63,3,14.05,9.51C45.39,33,46.32,38.18,45.28,42.31Z"/><rect class="cls-7" x="9.52" y="53.58" width="24.55" height="4.4"/><rect class="cls-5" x="8.06" y="57.97" width="27.48" height="2.58" rx="1.27" ry="1.27"/><path class="cls-4" d="M37.34,47.74a29.66,29.66,0,0,1-.28,3.48q-.16,1.14-.43,2.26a3,3,0,0,1-2.89,2.29H9.85A3,3,0,0,1,7,53.49c-1.76-7.42.07-15.22,2-22.15C10,27.9,11,24.67,12,21.69H31.6l.67,2q.45,1.36.91,2.79.75,2.34,1.49,4.84C36.08,36.49,37.46,42.14,37.34,47.74Z"/><path class="cls-8" d="M16.86,21.69H12c-1,3-2,6.2-3.07,9.65C7,38.26,5.2,46.07,7,53.48a3,3,0,0,0,2.89,2.29h8.22C12.16,46,13.15,32.18,16.86,21.69Z"/><path class="cls-9" d="M27.38,52c-6.94-7.78-8.06-20.05-5.88-30.27H16.86c-3.71,10.49-4.7,24.27,1.2,34.08h13.4A32,32,0,0,1,27.38,52Z"/><path class="cls-6" d="M30.31,19.53H14a2,2,0,0,0-2,2v.15H30.31Z"/><path class="cls-10" d="M21.62,27.18c-3.29,0-6,4.85-6,10.84s2.67,10.84,6,10.84h0V27.18Z"/><path class="cls-5" d="M27.57,38c0-6-2.65-10.81-5.92-10.84V48.85C24.92,48.82,27.57,44,27.57,38Z"/><path class="cls-5" d="M16.58,19.53H27.8a1,1,0,0,1-.95.95H17.53a1,1,0,0,1-.95-.95Z"/><rect class="cls-6" x="20.19" y="30.02" width="2.76" height="1.07"/><rect class="cls-6" x="20.19" y="36.52" width="2.76" height="1.07"/><rect class="cls-6" x="20.19" y="43.03" width="2.76" height="1.07"/><path class="cls-6" d="M28.28,29.74h0v.07A0,0,0,0,1,28.28,29.74Z"/><path class="cls-6" d="M28.29,29.85v0l0,0S28.28,29.85,28.29,29.85Z"/><path class="cls-4" d="M39.21,50.08c-.34.21-.69.42-1.05.61s-.72.37-1.09.54-.74.32-1.11.46a20.59,20.59,0,0,1-2.5.79L33,50a16.82,16.82,0,0,0,3.15-1.42c.4-.24.81-.51,1.23-.82a13.58,13.58,0,0,0,1.26-1.08A12.19,12.19,0,0,0,41.2,43h0A10.82,10.82,0,0,0,41.56,38a54,54,0,0,0-1.83-7.47,8.36,8.36,0,0,0-2.63-4.06,1.42,1.42,0,0,0-.47-.23l-.2-.13,0,0a8.37,8.37,0,0,0-3.29.39,11.64,11.64,0,0,0-1.63.66c-1.83.9-3.14,2.1-3.26,2.58l-.63-8h4.75a10,10,0,0,1,6.29,2.15,6.09,6.09,0,0,1,2,2.58c1.17,3.2,2.72,12.31,2.72,12.31A13.74,13.74,0,0,1,39.21,50.08Z"/><path class="cls-11" d="M38.6,46.67a28.85,28.85,0,0,1-.45,4c-.36.19-.72.37-1.09.54q-.16,1.14-.43,2.26a2.93,2.93,0,0,1-1,1.6c.09-.82.21-2,.31-3.4.07-.95.11-2,.16-3.12.3-7.09-3.84-19.4-4.57-21.42-.81-2.23-1.23-3.35-1.23-3.35s.86-.08,2-.1c1.51,0,3.45.1,4.14.78a3.87,3.87,0,0,1,.7,1.94,1.42,1.42,0,0,0-.47-.23l-.2-.13,0,0a8.37,8.37,0,0,0-3.29.39q.75,2.34,1.49,4.84c1.41,5.16,2.79,10.8,2.67,16.41A13.58,13.58,0,0,0,38.6,46.67Z"/><rect class="cls-10" x="16.58" y="51.37" width="10.5" height="2.21"/></g></g><g id="_3" data-name="3"><ellipse class="cls-12" cx="48.8" cy="105.04" rx="18.35" ry="2.24"/><g id="_9" data-name="9"><rect class="cls-13" x="20.39" y="70.89" width="12.22" height="1.69"/><rect class="cls-6" x="29.75" y="70.5" width="1.91" height="2.59"/><rect class="cls-14" x="30.98" y="69.87" width="3.25" height="4.14"/><path class="cls-13" d="M5.52,77.69a5.55,5.55,0,0,1-1.57-.22A5.43,5.43,0,0,1,0,71.79l0,0,0,0A5.4,5.4,0,0,1,4.13,66a5.33,5.33,0,0,1,1.49-.17c7.58.16,10.58,1.82,11.76,3.19a2.72,2.72,0,0,1,.79,2l-.05.42-.39-.16A27.35,27.35,0,0,0,7.45,68.65c-4.9,0-6.46,2.5-6.76,3.09.3.59,1.86,3.09,6.76,3.09a27.36,27.36,0,0,0,10.27-2.53l.39-.16.05.42a2.72,2.72,0,0,1-.79,2c-1.18,1.36-4.17,3-11.72,3.19ZM.68,72.84a4.58,4.58,0,0,0,3.45,4,4.93,4.93,0,0,0,1.51.19c7.27-.16,10.12-1.69,11.23-2.94a2.7,2.7,0,0,0,.6-1,27.27,27.27,0,0,1-10,2.37C3.53,75.46,1.57,73.91.68,72.84Zm4.81-6.43a4.57,4.57,0,0,0-1.19.15A4.6,4.6,0,0,0,.68,70.62C1.56,69.55,3.52,68,7.45,68a27.26,27.26,0,0,1,10,2.37,2.71,2.71,0,0,0-.6-1c-1.11-1.25-4-2.78-11.25-2.94Z"/><rect class="cls-13" x="0.34" y="71.42" width="17.51" height="0.64"/><path class="cls-14" d="M65.9,76.35h0a1.71,1.71,0,0,1,1.68,2l-.64,3.24v5.83a1.71,1.71,0,0,1-.8,1.45l-3.25,2L64,77.6Z"/><path class="cls-15" d="M65,67.86h.2A2.82,2.82,0,0,1,68,70.68V71a2.82,2.82,0,0,1-2.82,2.82H65a0,0,0,0,1,0,0V67.86A0,0,0,0,1,65,67.86Z"/><path class="cls-6" d="M52.73,83.87c0-6.48,1.85-11.73,4.13-11.73S61,77.39,61,83.87,59.14,95.6,56.86,95.6,52.73,90.35,52.73,83.87ZM64.17,64.64a6.4,6.4,0,0,0-4.54-1.88H45.74a28.82,28.82,0,0,0-4.33.24,8.73,8.73,0,0,0-7.23,10.3L35,77.78l1.53,8a28.07,28.07,0,0,1-1,16.3l-.24.65v0H62.9v0l.18-1.06.32-1.86A179.51,179.51,0,0,0,66,69.18,6.4,6.4,0,0,0,64.17,64.64Z"/><path class="cls-16" d="M63.08,101.7l-.18,1.06v0H35.3v0l.24-.65a28.07,28.07,0,0,0,1-16.3l-1.53-8c1.07,1.93,2.25,3.8,3.47,5.63C43.57,91,50.36,98.33,59.37,100.85,60.59,101.19,61.83,101.47,63.08,101.7Z"/><path class="cls-6" d="M61.63,104.89H36.56a1.51,1.51,0,0,1-1.37-2.12H63A1.51,1.51,0,0,1,61.63,104.89Z"/><path class="cls-14" d="M38.43,66.62a.81.81,0,0,0-.85.77v7.86a.85.85,0,0,0,1.69,0V67.39A.81.81,0,0,0,38.43,66.62Z"/><path class="cls-14" d="M41.4,66.62a.81.81,0,0,0-.85.77v7.86a.85.85,0,0,0,1.69,0V67.39A.81.81,0,0,0,41.4,66.62Z"/><path class="cls-14" d="M44.36,66.62a.81.81,0,0,0-.85.77v7.86a.85.85,0,0,0,1.7,0V67.39A.81.81,0,0,0,44.36,66.62Z"/><path class="cls-14" d="M47.33,66.62a.81.81,0,0,0-.85.77v7.86a.85.85,0,0,0,1.69,0V67.39A.81.81,0,0,0,47.33,66.62Z"/><path class="cls-16" d="M56.92,69.11c-3.7,0-6.7,6.6-6.7,14.74s3,14.74,6.7,14.74,6.7-6.6,6.7-14.74S60.62,69.11,56.92,69.11ZM56.86,95.6c-2.28,0-4.13-5.25-4.13-11.73s1.85-11.73,4.13-11.73S61,77.39,61,83.87,59.14,95.6,56.86,95.6Z"/><path class="cls-6" d="M20.23,73.32l-2.37.5V69.65l2.37.5a1.64,1.64,0,0,1,1.3,1.58h0A1.64,1.64,0,0,1,20.23,73.32Z"/><rect class="cls-14" x="38.32" y="78.03" width="9.11" height="2.55"/></g></g><ellipse class="cls-17" cx="141.02" cy="48.46" rx="25.32" ry="2.85"/><g id="_16" data-name="16"><path class="cls-18" d="M150.36,25.85H129.55l-.84-9a2.59,2.59,0,0,1,1.66-2.78,30.3,30.3,0,0,1,19.18,0,2.59,2.59,0,0,1,1.66,2.78Z"/><path class="cls-19" d="M149.31,25.65H130.6l-.69-8.22a2.08,2.08,0,0,1,1.34-2.2,27.21,27.21,0,0,1,17.43,0,2.07,2.07,0,0,1,1.33,2.2Z"/><path class="cls-15" d="M121.93,44.77H126a0,0,0,0,1,0,0v4.37a1.31,1.31,0,0,1-1.31,1.31h-1.48a1.31,1.31,0,0,1-1.31-1.31V44.77A0,0,0,0,1,121.93,44.77Z"/><path class="cls-15" d="M153.49,44.77h4.1a0,0,0,0,1,0,0v4.37a1.31,1.31,0,0,1-1.31,1.31H154.8a1.31,1.31,0,0,1-1.31-1.31V44.77A0,0,0,0,1,153.49,44.77Z"/><path class="cls-20" d="M160.07,38.5h4.34A1.52,1.52,0,0,1,165.93,40v.55a1.52,1.52,0,0,1-1.52,1.52h-4.34a0,0,0,0,1,0,0V38.5A0,0,0,0,1,160.07,38.5Z"/><path class="cls-21" d="M128,19.21h23.83A11.13,11.13,0,0,1,163,30.34V41.83a4.81,4.81,0,0,1-4.81,4.81H121.71a4.81,4.81,0,0,1-4.81-4.81V30.34A11.13,11.13,0,0,1,128,19.21Z"/><path class="cls-22" d="M151.81,21.22H128.09a9,9,0,0,0-9,9V42.35a4.08,4.08,0,0,0,0,.41,4.41,4.41,0,0,0,3.5,3.91l37.75-19.14A9,9,0,0,0,151.81,21.22Z"/><path class="cls-15" d="M122.64,46.67a4.41,4.41,0,0,0,.89.09h32.84a4.39,4.39,0,0,0,3.34-1.54,4.17,4.17,0,0,0,.34-.46,4.33,4.33,0,0,0,.7-2,4.11,4.11,0,0,0,0-.41V30.19a9,9,0,0,0-.4-2.65Z"/><path class="cls-23" d="M158.25,29.19a8.67,8.67,0,0,0-6.82-3.3h-23a8.67,8.67,0,0,0-6.81,3.3,8,8,0,0,1,7.78-6.29h21A8,8,0,0,1,158.25,29.19Z"/><rect class="cls-24" x="132.25" y="30.99" width="15.41" height="3.09"/><path class="cls-25" d="M160.06,44.77a4.17,4.17,0,0,1-.34.46,4.39,4.39,0,0,1-3.34,1.54H123.53a4.39,4.39,0,0,1-3.34-1.54,4.32,4.32,0,0,1-.34-.46Z"/></g><g id="_4-2" data-name="4"><ellipse class="cls-26" cx="75.03" cy="37.02" rx="24.71" ry="2.87"/><g id="_5" data-name="5"><path class="cls-15" d="M94.69,19.63l-1.41-1.74a6.44,6.44,0,0,1-1.09,2,6.67,6.67,0,0,1-3.31,2.19l6.73,1.15Z"/><rect class="cls-27" x="94.02" y="12.31" width="6.59" height="1.3" transform="translate(4.43 44.75) rotate(-26.48)"/><rect class="cls-14" x="94.1" y="12.12" width="4.6" height="2.44" transform="translate(5.01 46.79) rotate(-27.98)"/><path class="cls-28" d="M93.69,10.44h.74a2.32,2.32,0,0,1,2.27,1.85l3.56,17.23-5.9-11.38Z"/><path class="cls-28" d="M58.77,24.9l-1.68.2a1.77,1.77,0,0,0-1.55,2L55.76,29l3-.73Z"/><path class="cls-5" d="M78.78,22.69a.9.9,0,0,1-.16-1.78l5.86-1a.9.9,0,1,1,.31,1.76l-5.86,1Z"/><path class="cls-5" d="M70.54,21.49l3.56-.89a2.47,2.47,0,0,0,1.8-3l-.38-1.56-5,4.54Z"/><path class="cls-6" d="M94.05,11.1a3.16,3.16,0,0,0-2.93-2H90c-11.73.6-23.29,6.62-26.5,10.23s-11.34,14-11.34,14c.61,1.62,31.81,2.45,43.25.6,3.91-.63,6.32-.2,5.22-3.51C99.69,27.83,96.09,16.18,94.05,11.1ZM71.51,24.67s-2.24-2.51-.26-4.21c6.39-6.52,20.44-6.22,20.44-6.22s.64,1.85,1.79,4.7a1.66,1.66,0,0,1-1.36,2.27C85.85,21.88,71.51,24.67,71.51,24.67Z"/><path class="cls-6" d="M100.58,30.49l-.32-1,0-.14-.35-1.08c-1.41-4.42-4.14-13-5.82-17.19a3.16,3.16,0,0,0-2.93-2H90c-11.73.6-23.29,6.62-26.5,10.23-.66.74-1.53,1.77-2.49,2.94-2.43,3-5.47,6.8-7.28,9.1l-.85,1.08-.72.92c.16.41,2.25.77,5.48,1,9.59.82,29.21.94,37.77-.44,1.76-.29,3.22-.35,4.18-.65C100.73,33,101.19,32.31,100.58,30.49Zm-8.47-9.29c-6.26.68-20.6,3.47-20.6,3.47s-2.24-2.51-.26-4.21c4.9-5,14.29-6,18.42-6.18A2.73,2.73,0,0,1,92.35,16c.29.77.67,1.75,1.13,2.89A1.66,1.66,0,0,1,92.11,21.21Z"/><path class="cls-28" d="M85.28,20.64l-6.5,1.16a1.62,1.62,0,0,0-1.49,1.79L87.65,22l-.16-.35A2,2,0,0,0,85.28,20.64Z"/><path class="cls-5" d="M67.71,15.24v.82l6.57-3.28-4.67.39A2.07,2.07,0,0,0,67.71,15.24Z"/><path class="cls-28" d="M99.55,33.36c-1,.29-2.42.36-4.18.65-8.56,1.38-28.18,1.27-37.77.44a47.86,47.86,0,0,1,3.77-4.11q.43-.41.87-.8c1.92-1.69,3.88-2.92,5.47-2.83,2,.11,8.07,1.33,14.38,2.7l3,.66C91.93,31.57,98.36,33.08,99.55,33.36Z"/><path class="cls-29" d="M93.69,34.24l-.54.93c-.22.38-.48.81-.7,1.16-34.31,2.7-40.33-.87-40.33-.87v-2c.59,1.54,29,2.37,41.57.84Z"/><path class="cls-5" d="M100.58,30.49l-.32-1C81.77,35.2,53.69,31.4,53.69,31.4l-.85,1.08-.72.92h0c.59,1.54,29,2.37,41.57.84.6-.07,1.16-.15,1.68-.24C99.27,33.37,101.68,33.8,100.58,30.49Z"/><path class="cls-28" d="M90.54,9.12c-.2,2-1.63,2.14-4.48,2.42-14.66,2-19.71,8.8-21.18,10.26-1,1-2.93.75-3.92.5,1-1.17,1.83-2.2,2.49-2.94C66.67,15.74,78.23,9.72,90,9.12Z"/><circle class="cls-28" cx="88.88" cy="24.89" r="1.66"/><rect class="cls-28" x="91.72" y="28.7" width="5.29" height="1.47" transform="matrix(0.98, -0.17, 0.17, 0.98, -3.69, 16.92)"/><path class="cls-6" d="M85.09,30.05c-4.07.28-9.74.36-14.72.36-3.7,0-7,0-9-.08q.43-.41.87-.8c4.44.06,13.27.13,19.85-.13Z"/><path class="cls-30" d="M93.14,35.17c-.22.38-.48.81-.7,1.16-34.31,2.7-40.33-.87-40.33-.87v-.93c2.37.5,12.89,2.44,30.19,1.3Z"/></g></g><g id="_5-2" data-name="5"><ellipse class="cls-31" cx="93.58" cy="104.17" rx="24.46" ry="3.53"/><ellipse class="cls-32" cx="136.46" cy="103.9" rx="13.47" ry="1.87"/><g id="_6" data-name="6"><rect class="cls-13" x="119.01" y="47.08" width="3.05" height="44.95" transform="translate(-18.12 57.63) rotate(-25.07)"/><path class="cls-29" d="M80.18,96.45a22.81,22.81,0,0,1-4.36-1.74C74.39,94.12,73,93.62,71.58,93a25.92,25.92,0,0,0,.88,4.8c-.84,1.52,27.63,7,38.56,4.72a4.63,4.63,0,0,0,3.67-5v0a5.56,5.56,0,0,1-.62.29C103,101.83,91.52,97.91,80.18,96.45Z"/><path class="cls-5" d="M113.72,93.37c-6.22,1.26-15.6-.11-24-2A18.24,18.24,0,0,1,90,77.87a12.46,12.46,0,0,1,1.63-2.57,33.8,33.8,0,0,1,14.43,7.17A25.92,25.92,0,0,1,113.72,93.37Z"/><path class="cls-33" d="M90,77.87a18.24,18.24,0,0,0-.36,13.5c-7.88-1.77-14.93-4-17.79-4.92a15.7,15.7,0,0,1,.85-3,7.91,7.91,0,0,1,5.7-5.24c5.23-3.07,9.39-3.84,13.23-2.92A12.46,12.46,0,0,0,90,77.87Z"/><path class="cls-33" d="M114,94.34a29.48,29.48,0,0,1-6,.54,90.14,90.14,0,0,1-19.31-2.67c-7.45-1.71-14.11-3.79-17-4.74A24.33,24.33,0,0,0,71.58,93c1.38.59,2.81,1.09,4.24,1.68a22.81,22.81,0,0,0,4.36,1.74c11.34,1.45,22.83,5.38,33.88,1.31a5.41,5.41,0,0,0,.62-.29A18.76,18.76,0,0,0,114,94.34Z"/><path class="cls-15" d="M108,94.88a29.48,29.48,0,0,0,6-.54c-.09-.32-.2-.65-.31-1-12,2.44-35.9-5-41.82-6.92-.06.33-.12.67-.17,1,2.89.94,9.54,3,17,4.74A90.14,90.14,0,0,0,108,94.88Z"/><circle class="cls-5" cx="83.25" cy="96.31" r="9.83"/><circle class="cls-15" cx="83.25" cy="96.31" r="7.86"/><path class="cls-15" d="M91.11,96.31a7.86,7.86,0,1,1-7.86-7.86c.24,0,.47,0,.7,0A7.86,7.86,0,0,1,91.11,96.31Z"/><path class="cls-33" d="M86.58,94.34a7.86,7.86,0,0,1-7.86,7.86c-.23,0-.47,0-.7,0a7.86,7.86,0,0,1,5.23-13.73c.24,0,.47,0,.7,0A7.83,7.83,0,0,1,86.58,94.34Z"/><path class="cls-34" d="M106.12,82.47c-1.43.14-4-.4-8-2.14A23.27,23.27,0,0,0,90,77.87c-8.18-.88-14.35,3.39-17.3,5.59a7.91,7.91,0,0,1,5.7-5.24c5.23-3.07,9.39-3.84,13.23-2.92A33.8,33.8,0,0,1,106.12,82.47Z"/><path class="cls-33" d="M72.48,84.19l2.18-8.42a5.17,5.17,0,0,1,5.1-4.31h0l3.49,4.47a21.46,21.46,0,0,1-6.41,6.2A21.09,21.09,0,0,1,72.48,84.19Z"/><path class="cls-5" d="M96.77,77.27a.64.64,0,0,1-.25,0c-5-2.07-7.89-2-7.92-2A.65.65,0,0,1,88.54,74c.13,0,3.21-.12,8.48,2.05a.65.65,0,0,1-.25,1.26Z"/><path class="cls-10" d="M109.3,89.15h-.21l.22-3.34h0a2.7,2.7,0,0,0,1.86-.79c.86-.86,1.28-2.44,1.21-4.56-.13-4.06-2.89-7.1-8.44-9.28C98.65,69.1,91.14,68,81.61,67.79a13.7,13.7,0,0,1-7-2,11.28,11.28,0,0,1-4.67-5.67,15.87,15.87,0,0,1,2-14.66c3.33-4.72,8.91-7.38,15.33-7.3,16.4.21,18.94.62,19.17.67l.75.15,1.42,2.49-2.91,1.66L105.09,42c-1.54-.13-6-.38-17.87-.54-5.37-.07-9.83,2-12.55,5.88A12.53,12.53,0,0,0,73.05,59c1.23,3.32,4.53,5.43,8.61,5.5,9.93.17,17.83,1.39,23.48,3.61a19.82,19.82,0,0,1,7.48,4.79,11.36,11.36,0,0,1,3.07,7.49c.1,3.17-.66,5.56-2.27,7.11A6.05,6.05,0,0,1,109.3,89.15Z"/><rect class="cls-29" x="108.02" y="85.39" width="3.34" height="4.9" rx="0.71" ry="0.71" transform="translate(-30.83 86.95) rotate(-38.32)"/><rect class="cls-5" x="106.9" y="41.03" width="4.36" height="9.85" transform="translate(-8.81 56.58) rotate(-28)"/><rect class="cls-5" x="128.94" y="84.37" width="4.07" height="14.49" transform="translate(-27.36 69.73) rotate(-27.1)"/><polygon class="cls-5" points="130.97 95.8 134.27 94.27 147.79 102.21 128.6 102.21 130.97 95.8"/><path class="cls-29" d="M148.52,103.87H127.67a1.09,1.09,0,1,1,0-2.18h20.85a1.09,1.09,0,1,1,0,2.18Z"/><path class="cls-29" d="M112.3,48.09a.73.73,0,0,1-.65-.41l-2.6-5.3a.73.73,0,1,1,1.31-.64l2.6,5.3a.73.73,0,0,1-.33,1A.72.72,0,0,1,112.3,48.09Z"/><path class="cls-10" d="M91.11,79.19s-1.46,7.37.57,10.33c4.93,2.23,17.15,2.09,17.15,2.09S93.12,89.27,91.11,79.19Z"/></g></g><g id="_6-2" data-name="6"><ellipse class="cls-35" cx="181.56" cy="58.14" rx="16.67" ry="1.78"/><g id="_15" data-name="15"><rect class="cls-36" x="176.21" y="0.86" width="10.38" height="2.02"/><path class="cls-37" d="M187.47,1.34H175.33a.67.67,0,0,1-.67-.67h0a.67.67,0,0,1,.67-.67h12.14a.67.67,0,0,1,.67.67h0A.67.67,0,0,1,187.47,1.34Z"/><polygon class="cls-36" points="166.11 5.65 169.87 4.15 172.46 9.04 166.11 5.65"/><path class="cls-37" d="M169.38,5.65h-3.28s1.89,3.73,3.76,4.52C172.39,11.23,169.38,5.65,169.38,5.65Z"/><path class="cls-37" d="M194.1,26.42H189v-2.5h5.11a.81.81,0,0,0,.8-.86l-.7-11.19a.81.81,0,0,0-.8-.75l-2.2,0,.73-2.52h1.48a3.31,3.31,0,0,1,3.3,3.1l.7,11.19a3.3,3.3,0,0,1-3.3,3.51Z"/><path class="cls-36" d="M197.4,22.91l-.7-11.19a3.31,3.31,0,0,0-3.3-3.1h-.21l-.32,2.5h.53a.81.81,0,0,1,.8.75l.7,11.19a.81.81,0,0,1-.8.86h-2.89l-.32,2.5h3.21a3.3,3.3,0,0,0,3.3-3.51Z"/><polygon class="cls-36" points="188.99 23.92 188.99 26.42 190.89 26.42 191.21 23.92 188.99 23.92"/><polygon class="cls-36" points="191.92 8.63 191.2 11.14 192.86 11.13 193.19 8.63 191.92 8.63"/><polygon class="cls-36" points="172.22 29.07 172.46 31.12 189.37 31.12 189.62 29.07 172.22 29.07"/><polygon class="cls-37" points="190.54 7.49 188.25 29.07 172.22 29.07 169.63 7.49 190.54 7.49"/><polygon class="cls-36" points="192.21 7.49 190.54 7.49 188.25 29.07 189.62 29.07 192.21 7.49"/><polygon class="cls-7" points="193.98 54.95 167.85 54.95 172.46 31.12 189.37 31.12 193.98 54.95"/><path class="cls-38" d="M180.63,49.18c-4.6,0-7.83-3.52-7.27-7.27L175,31.12h11.31l1.62,10.79C188.46,45.66,185.23,49.18,180.63,49.18Z"/><path class="cls-39" d="M182.94,35.54h-4a1.44,1.44,0,0,1-1.44-1.44h0a1.44,1.44,0,0,1,1.44-1.44h4a1.44,1.44,0,0,1,1.44,1.44h0A1.44,1.44,0,0,1,182.94,35.54Z"/><circle class="cls-7" cx="180.81" cy="42.07" r="4.23"/><path class="cls-39" d="M180.81,38.55h0a.72.72,0,0,0-.72.72v1h1.44v-1A.72.72,0,0,0,180.81,38.55Z"/><path class="cls-30" d="M180.09,40.22v4.72a.72.72,0,0,0,.72.72h0a.72.72,0,0,0,.72-.72V40.22Z"/><path class="cls-27" d="M190.51,2.31H171.33a2.06,2.06,0,0,0-2,2.31h23.27A2.06,2.06,0,0,0,190.51,2.31Z"/><polygon class="cls-7" points="169.28 4.61 169.63 7.49 192.21 7.49 192.55 4.61 169.28 4.61"/><path class="cls-7" d="M190.72,58.21h-19.6a3.27,3.27,0,0,1-3.27-3.27H194A3.27,3.27,0,0,1,190.72,58.21Z"/><rect class="cls-38" x="174.77" y="51.68" width="11.91" height="2.11"/><polygon class="cls-40" points="178.42 7.49 170.93 7.49 173.34 29.07 178.42 29.07 178.42 7.49"/><polygon class="cls-40" points="178.42 31.12 177.27 54.95 167.85 54.95 172.46 31.12 178.42 31.12"/><polygon class="cls-40" points="186.35 7.49 185.22 29.07 182.48 29.07 183.61 7.49 186.35 7.49"/><circle class="cls-39" cx="176.21" cy="37.85" r="0.7"/></g></g><g id="_7" data-name="7"><ellipse class="cls-41" cx="216.25" cy="102.76" rx="18.13" ry="2.12"/><g id="_10" data-name="10"><rect class="cls-42" x="214.19" y="76.67" width="4.42" height="23.4"/><rect class="cls-43" x="214.99" y="43.33" width="2.83" height="33.63"/><rect class="cls-43" x="214.99" y="43.33" width="2.83" height="33.63"/><rect class="cls-6" x="214.12" y="43.33" width="4.56" height="17.88"/><polygon class="cls-42" points="218.08 61.22 214.72 61.22 214.12 43.33 218.68 43.33 218.08 61.22"/><rect class="cls-44" x="214.55" y="71.82" width="3.7" height="3.14"/><rect class="cls-44" x="213.92" y="73.83" width="4.97" height="3.14"/><circle class="cls-44" cx="216.4" cy="59.01" r="1.14"/><circle class="cls-44" cx="216.4" cy="55.96" r="1.14"/><circle class="cls-44" cx="216.4" cy="52.9" r="1.14"/><path class="cls-44" d="M201.77,100.6v1.83h2.76V98.75h-.91A1.85,1.85,0,0,0,201.77,100.6Z"/><rect class="cls-42" x="204.53" y="98.75" width="11.87" height="3.68"/><path class="cls-44" d="M231,100.6v1.83h-2.76V98.75h.91A1.85,1.85,0,0,1,231,100.6Z"/><rect class="cls-42" x="216.4" y="98.75" width="11.87" height="3.68"/><path class="cls-44" d="M213.54,99.86v2.57h5.73V99.86a1.7,1.7,0,0,0-1.7-1.7h-2.34A1.7,1.7,0,0,0,213.54,99.86Z"/><path class="cls-44" d="M213.9,38.21s-6.18-4.12-6.62-9.13a6.74,6.74,0,0,1,3.19-6.55,10.09,10.09,0,0,1,6.23-1.4c2.73.32,6,1.27,8.16,3.11a3.86,3.86,0,0,1,1.61,3.54,3.66,3.66,0,0,1-1.95,2.66,12.38,12.38,0,0,0-5.26,6.3c-.31.86-.5,1.47-.5,1.47Z"/><path class="cls-44" d="M214.06,45.31s-.48,7.41-4.59,10.3a6.74,6.74,0,0,1-7.26.51,10.09,10.09,0,0,1-4.33-4.7c-1.08-2.53-1.91-5.85-1.38-8.62a3.86,3.86,0,0,1,2.25-3.16A3.66,3.66,0,0,1,202,40a12.38,12.38,0,0,0,8.09,1.41c.9-.16,1.52-.3,1.52-.3Z"/><path class="cls-44" d="M221.31,39.87s6.66-3.29,11.22-1.17a6.74,6.74,0,0,1,4.08,6,10.09,10.09,0,0,1-1.91,6.1c-1.64,2.2-4.11,4.57-6.78,5.51a3.86,3.86,0,0,1-3.87-.37,3.66,3.66,0,0,1-1.33-3,12.38,12.38,0,0,0-2.82-7.71c-.59-.7-1-1.17-1-1.17Z"/><circle class="cls-14" cx="216.1" cy="41.64" r="7.42"/><circle class="cls-6" cx="216.1" cy="41.64" r="5.65"/><path class="cls-42" d="M220.63,41.64a4.53,4.53,0,0,1-2.45,4A5.24,5.24,0,0,0,215,37.26a4.44,4.44,0,0,1,1.13-.14A4.53,4.53,0,0,1,220.63,41.64Z"/></g></g><g id="_8" data-name="8"><g id="_14" data-name="14"><path class="cls-45" d="M169.06,94.38l-2.19.81a.9.9,0,0,1-1.21-.71l-1.06-6.78a.91.91,0,0,1,0-.25l.3-2.35a.9.9,0,0,1,.83-.79l2.59-.19Z"/><path class="cls-45" d="M165.83,79h2.86a0,0,0,0,1,0,0v3.61a0,0,0,0,1,0,0h-2.86a1.2,1.2,0,0,1-1.2-1.2V80.21A1.2,1.2,0,0,1,165.83,79Z"/><path class="cls-21" d="M144.91,62.75V73.59l-11.18,3.82a16.6,16.6,0,0,1-2.59-8.75c0-.16,0-.33,0-.49a18.47,18.47,0,0,1,.11-2.05l0-.4c0-.25.07-.5.11-.74s0-.28.08-.41a17,17,0,0,1,.8-2.78c.13-.35.27-.66.4-1s.3-.63.45-.9l.27-.47c.12-.21.24-.39.33-.53Z"/><path class="cls-46" d="M144.91,62.75v5.08H131.14c0-.6,0-1.17.1-1.72l0-.4c0-.25.07-.5.11-.74s0-.28.08-.41a17,17,0,0,1,.8-2.78c.13-.35.27-.66.4-1s.3-.63.45-.9l.27-.47c.12-.21.24-.39.33-.53Z"/><path class="cls-40" d="M144.61,63.38l-.53,1-11.4-3.56c.15-.33.3-.63.45-.9l.27-.47Z"/><path class="cls-38" d="M144.91,62.75V73.59l-7.32-2A3.55,3.55,0,0,1,135,68.17a3.6,3.6,0,0,1,.13-1c0-.09.06-.18.09-.27a3.55,3.55,0,0,1,2.39-2.19l.6-.16Z"/><path class="cls-47" d="M181.72,68.17c0,.17,0,.33,0,.49a8,8,0,0,1-.21,1.54,6.61,6.61,0,0,1-.31,1A7.59,7.59,0,0,1,179,74.05h0l.09-5.4.07-4.1,0-1.51a6.52,6.52,0,0,1,1.42,1.51,6.09,6.09,0,0,1,.36.6,6.39,6.39,0,0,1,.73,2.52C181.71,67.84,181.72,68,181.72,68.17Z"/><path class="cls-38" d="M176.38,61.82l-5-.88V75.39l.2,0a14.19,14.19,0,0,0-1.11,3.87c-1.25,7.65,1,16.68,2.68,20.78,0,0,2.52-8.9,2.36-14.38-.07-2.34-.74-4.95-.52-7.25s2.57-3.06,4-4.32l.19-11A6.44,6.44,0,0,0,176.38,61.82Z"/><path class="cls-15" d="M173.11,100h-4.58a50.48,50.48,0,0,1-1.94-13.62q0-1.51.08-2.93c.07-1.24.18-2.41.32-3.51a5.66,5.66,0,0,0-5.25-5.21l-13.28-.91-3.54-.24V62.75l26.42-1.81a11.29,11.29,0,0,1,2.1,3.64,10.7,10.7,0,0,1,.54,2.35c0,.09,0,.18,0,.27a10.35,10.35,0,0,1,0,1.19,11.11,11.11,0,0,1-2.3,6.49,14.82,14.82,0,0,0-1.32,4.35C169.18,86.88,171.4,95.91,173.11,100Z"/><rect class="cls-48" x="154.54" y="68.55" width="10.99" height="1.87"/><polygon class="cls-45" points="171.56 110.62 170.04 110.62 168.53 100.01 173.06 100.01 171.56 110.62"/><path class="cls-45" d="M175.85,102.58a3.47,3.47,0,0,0-4.16-2.08l.43,1.28a2.09,2.09,0,0,1,2.46,1.27,2.67,2.67,0,0,1-.9,2.9,3.57,3.57,0,0,1-3.26.48l-.42,1.29a5.18,5.18,0,0,0,1.62.26,4.68,4.68,0,0,0,2.9-1A4,4,0,0,0,175.85,102.58Z"/><path class="cls-45" d="M181.39,66.14h-2.2v-1H181A6.48,6.48,0,0,1,181.39,66.14Z"/><path class="cls-45" d="M181.72,68.17c0,.17,0,.33,0,.49h-2.52v-1h2.51C181.71,67.84,181.72,68,181.72,68.17Z"/><path class="cls-45" d="M181.49,70.2a6.61,6.61,0,0,1-.31,1h-2v-1Z"/><path class="cls-46" d="M174,67.83H135.11c0-.3.06-.61.09-.9a3.55,3.55,0,0,1,2.39-2.19l.6-.16,6.72-1.83,26.42-1.81a11.29,11.29,0,0,1,2.1,3.64,10.7,10.7,0,0,1,.54,2.35C174,67.23,174,67.53,174,67.83Z"/><path class="cls-40" d="M146.19,63.38c.3,0,25.07-1.76,25.07-1.76a4.08,4.08,0,0,1,1.28,2.26C170.28,63.88,146.19,63.38,146.19,63.38Z"/><path class="cls-49" d="M176.19,62.07a27.39,27.39,0,0,0-3.65-.45l1.05,2.26,5.41.28S178.66,62.45,176.19,62.07Z"/><path class="cls-50" d="M166.66,83.46c.07-1.24.18-2.41.32-3.51a5.66,5.66,0,0,0-5.25-5.21l-13.28-.91C152,73.5,158.91,73,163,73.58a4.57,4.57,0,0,1,3.38,2.35A7.85,7.85,0,0,1,166.66,83.46Z"/><polygon class="cls-51" points="169.47 100.91 170.8 100.91 170.8 109.83 169.47 100.91"/></g><ellipse class="cls-52" cx="167.84" cy="112.75" rx="13.26" ry="1.63"/></g></g></g></g></g></svg>