<svg xmlns="http://www.w3.org/2000/svg" viewBox="0 0 479.04 416.23"><defs><style>.cls-1{fill:#d3d0e7;}.cls-1,.cls-10,.cls-11,.cls-12,.cls-13,.cls-14,.cls-15,.cls-16,.cls-17,.cls-18,.cls-2,.cls-20,.cls-21,.cls-22,.cls-23,.cls-24,.cls-26,.cls-27,.cls-28,.cls-29,.cls-3,.cls-30,.cls-31,.cls-4,.cls-5,.cls-7,.cls-8,.cls-9{fill-rule:evenodd;}.cls-2{fill:#383260;}.cls-3{fill:#87a8a6;}.cls-4,.cls-6{fill:#fff;}.cls-5{fill:#e3e1f1;}.cls-7{fill:#6f8c8a;}.cls-8{fill:#9fbbc1;}.cls-9{fill:#a75268;}.cls-10{fill:#c37584;}.cls-11{fill:#d48f9e;}.cls-12{fill:#e8bfc5;}.cls-13{fill:#e6b5a3;}.cls-14,.cls-25{fill:#d2887a;}.cls-15{fill:#f4f4f9;}.cls-16{fill:#e4b5a1;}.cls-17{fill:#443e71;}.cls-18,.cls-19,.cls-23,.cls-28,.cls-29{fill:none;stroke-linecap:round;stroke-linejoin:round;stroke-width:0.71px;}.cls-18,.cls-19{stroke:#c8c4e1;}.cls-20{fill:#714360;}.cls-21{fill:#855169;}.cls-22{fill:#643954;}.cls-23{stroke:#383260;}.cls-24{fill:#c8c4e1;}.cls-26{fill:#f0d6ca;}.cls-27{fill:#efd4c9;}.cls-28{stroke:#d2887a;}.cls-29{stroke:#714360;}.cls-30{fill:#efedf6;}.cls-31{fill:#d8d5ea;}.cls-32{fill:#bab6d7;}</style></defs><title>bannerImage1</title><g id="Layer_2" data-name="Layer 2"><g id="OBJECTS"><path class="cls-1" d="M77,378.12a77.23,77.23,0,0,1-77-77H0a77.22,77.22,0,0,1,77-77h0a32.65,32.65,0,0,0,32.56-32.56h0A32.65,32.65,0,0,0,77,159H73.12a34,34,0,0,1-33.85-33.85h0A34,34,0,0,1,73.12,91.32H85A13.22,13.22,0,0,0,98.19,78.14h0A13.22,13.22,0,0,0,85,65H76.28a9.12,9.12,0,0,1-9.1-9.09h0a9.12,9.12,0,0,1,9.1-9.09H135a14.33,14.33,0,0,0,14.29-14.29h0A14.33,14.33,0,0,0,135,18.19H117.43a9.12,9.12,0,0,1-9.09-9.09h0A9.12,9.12,0,0,1,117.43,0H374.55a11.9,11.9,0,0,1,11.87,11.87h0a11.9,11.9,0,0,1-11.87,11.87h-4.91A18.7,18.7,0,0,0,351,42.38h0A18.7,18.7,0,0,0,369.64,61H426.2A11.9,11.9,0,0,1,438.06,72.9h0A11.9,11.9,0,0,1,426.2,84.76H414.8A17.25,17.25,0,0,0,397.6,102h0a17.25,17.25,0,0,0,17.19,17.2h15.51a44.3,44.3,0,0,1,44.17,44.17h0a44.3,44.3,0,0,1-44.17,44.17h-5.06A42.61,42.61,0,0,0,382.77,250h0a42.61,42.61,0,0,0,42.48,42.48H436.2A43,43,0,0,1,479,335.29h0a43,43,0,0,1-42.83,42.83ZM404.92,23.74a11.87,11.87,0,1,0-11.87-11.87,11.87,11.87,0,0,0,11.87,11.87ZM50.75,65a9.09,9.09,0,1,0-9.09-9.09A9.1,9.1,0,0,0,50.75,65Z"/><path class="cls-2" d="M442.59,377.62H54.6a7.27,7.27,0,0,0-7.25,7.25h0a7.27,7.27,0,0,0,7.25,7.25H77.39a7.46,7.46,0,0,1,7.44,7.44h0A7.46,7.46,0,0,1,77.39,407H74.93a4.63,4.63,0,0,0-4.62,4.62h0a4.63,4.63,0,0,0,4.62,4.62H388.19a7.57,7.57,0,0,0,7.55-7.55h0a7.57,7.57,0,0,0-7.55-7.55h-2.07a4.52,4.52,0,0,1-4.51-4.51h0a4.52,4.52,0,0,1,4.51-4.51h56.47a7.27,7.27,0,0,0,7.25-7.25h0a7.27,7.27,0,0,0-7.25-7.25Zm-33.17,38.61a7.51,7.51,0,0,1-7.49-7.49v-.11a7.52,7.52,0,0,1,7.49-7.49h0a7.51,7.51,0,0,1,7.49,7.49v.11a7.51,7.51,0,0,1-7.49,7.49Z"/><path class="cls-3" d="M390.77,170.82a.58.58,0,0,1,1.08.42s-2.54,6.67-5.53,8a.58.58,0,0,1-.47-1.06C388.4,177.05,390.77,170.84,390.77,170.82Z"/><path class="cls-3" d="M349.07,136.54a.58.58,0,0,1,1.07-.45,18.54,18.54,0,0,0,3.25,5.15.58.58,0,1,1-.81.83A19.77,19.77,0,0,1,349.07,136.54Z"/><path class="cls-3" d="M345.42,225.67a.58.58,0,1,1,1.07-.44s2.67,6.58,5.74,9a.58.58,0,0,1-.72.91C348.2,232.53,345.43,225.69,345.42,225.67Z"/><path class="cls-4" d="M377.16,281.45a8.13,8.13,0,0,1-16.26,0V157.64a119.37,119.37,0,0,0-238.74,0v123.8a8.13,8.13,0,1,1-16.26,0V157.64a135.63,135.63,0,0,1,271.25,0Z"/><path class="cls-5" d="M364.39,269.62v-112a121.71,121.71,0,0,0-9.33-46.84,124.09,124.09,0,0,0-66.68-66.67,122.22,122.22,0,0,0-93.69,0,123.71,123.71,0,0,0-39.92,26.76,122.48,122.48,0,0,0-36.09,86.76v112h-2.32v-112a125.18,125.18,0,0,1,250.35,0v112Zm-255,0h2.32v-112a128.65,128.65,0,0,1,9.86-49.51A131.08,131.08,0,0,1,192,37.69a129.2,129.2,0,0,1,99,0,131.09,131.09,0,0,1,70.45,70.45,128.66,128.66,0,0,1,9.86,49.51v112h2.32v-112a131,131,0,0,0-10-50.4,133.35,133.35,0,0,0-71.7-71.7,131.46,131.46,0,0,0-100.79,0,133.35,133.35,0,0,0-71.7,71.7,131,131,0,0,0-10,50.4Z"/><rect class="cls-6" x="96.98" y="266.09" width="34.11" height="120.13" rx="4.26" ry="4.26"/><rect class="cls-6" x="351.98" y="266.09" width="34.11" height="120.13" rx="4.26" ry="4.26"/><polygon class="cls-5" points="122.16 252.76 105.91 257.61 105.91 266.09 122.16 266.09 122.16 252.76"/><polygon class="cls-5" points="377.16 252.76 360.9 257.61 360.9 266.09 377.16 266.09 377.16 252.76"/><path class="cls-5" d="M124.48,272.86h0a1.16,1.16,0,0,1,1.16,1.16v97.35a1.16,1.16,0,0,1-1.16,1.16h0a1.16,1.16,0,0,1-1.16-1.16V274A1.16,1.16,0,0,1,124.48,272.86Z"/><path class="cls-5" d="M114,272.86h0A1.16,1.16,0,0,1,115.2,274v97.35a1.16,1.16,0,0,1-1.16,1.16h0a1.16,1.16,0,0,1-1.16-1.16V274A1.16,1.16,0,0,1,114,272.86Z"/><path class="cls-5" d="M103.59,272.86h0a1.16,1.16,0,0,1,1.16,1.16v97.35a1.16,1.16,0,0,1-1.16,1.16h0a1.16,1.16,0,0,1-1.16-1.16V274A1.16,1.16,0,0,1,103.59,272.86Z"/><path class="cls-5" d="M379.48,272.86h0a1.16,1.16,0,0,1,1.16,1.16v97.35a1.16,1.16,0,0,1-1.16,1.16h0a1.16,1.16,0,0,1-1.16-1.16V274A1.16,1.16,0,0,1,379.48,272.86Z"/><path class="cls-5" d="M369,272.86h0a1.16,1.16,0,0,1,1.16,1.16v97.35a1.16,1.16,0,0,1-1.16,1.16h0a1.16,1.16,0,0,1-1.16-1.16V274A1.16,1.16,0,0,1,369,272.86Z"/><path class="cls-5" d="M358.58,272.86h0a1.16,1.16,0,0,1,1.16,1.16v97.35a1.16,1.16,0,0,1-1.16,1.16h0a1.16,1.16,0,0,1-1.16-1.16V274A1.16,1.16,0,0,1,358.58,272.86Z"/><path class="cls-7" d="M357.8,133.17a1.7,1.7,0,0,1,.51-.2q.39,1.81.71,3.64a7.36,7.36,0,0,0-2.29,2.36c-6.19,10.58,13.43,18.38,19.53,22.1,14.76,9,14.05,31.86.89,41.82V198.2c9.17-9.19,9.11-26.86-2.66-34-7.46-4.55-28.51-13.77-20.74-27a11.13,11.13,0,0,1,4-3.94Zm3.1,84.25a41.32,41.32,0,0,0-4.29,6.1c-4.27,7.56-4.79,16,4.29,23.88v4.1a1.7,1.7,0,0,1-1.06-.37c-12-9.6-11.52-20.06-6.24-29.41a49.8,49.8,0,0,1,7.3-9.58Z"/><path class="cls-8" d="M358,152.52a11.49,11.49,0,0,0-1.44-.8,12.84,12.84,0,0,0-3.44-1.12c-3.73-.61-6.62,1-8.48,4.23a.61.61,0,0,0,.13.77c2.82,2.48,6.07,3,9.4,1.21a12.87,12.87,0,0,0,2.88-2.18,11.57,11.57,0,0,0,1.1-1.23.62.62,0,0,0-.15-.88Z"/><path class="cls-8" d="M376.27,163.19a11.48,11.48,0,0,1-1.14-1.19,12.91,12.91,0,0,1-1.94-3.05c-1.53-3.46-.73-6.65,2-9.27a.61.61,0,0,1,.77-.07c3.11,2.11,4.44,5.13,3.53,8.8a12.89,12.89,0,0,1-1.39,3.34,11.8,11.8,0,0,1-.92,1.37.61.61,0,0,1-.89.08Z"/><path class="cls-8" d="M384.44,181.48a11.5,11.5,0,0,0-.19-1.64,12.88,12.88,0,0,0-1.1-3.44c-1.68-3.39-4.65-4.82-8.38-4.42a.61.61,0,0,0-.55.55c-.37,3.74,1.1,6.69,4.5,8.34a12.85,12.85,0,0,0,3.45,1.07,11.46,11.46,0,0,0,1.64.17.62.62,0,0,0,.63-.63Z"/><path class="cls-8" d="M382.67,194.7a11.58,11.58,0,0,1,.54-1.56A12.85,12.85,0,0,1,385,190c2.37-2.94,5.58-3.7,9.14-2.49a.61.61,0,0,1,.41.66c-.45,3.73-2.52,6.3-6.2,7.16a12.88,12.88,0,0,1-3.6.29,11.59,11.59,0,0,1-1.64-.19.6.6,0,0,1-.4-.28A.6.6,0,0,1,382.67,194.7Z"/><path class="cls-8" d="M355.26,220.08a11.55,11.55,0,0,1-1-1.35,12.89,12.89,0,0,1-1.48-3.3c-1-3.64.24-6.69,3.29-8.88a.61.61,0,0,1,.78,0c2.77,2.54,3.65,5.72,2.21,9.21a12.83,12.83,0,0,1-1.86,3.1,11.43,11.43,0,0,1-1.11,1.22.62.62,0,0,1-.89-.05Z"/><path class="cls-8" d="M353.43,237a11.47,11.47,0,0,0,1.65-.06,12.85,12.85,0,0,0,3.52-.83c3.51-1.41,5.16-4.26,5-8a.61.61,0,0,0-.51-.59c-3.7-.65-6.76.58-8.66,3.85a12.85,12.85,0,0,0-1.33,3.36,11.45,11.45,0,0,0-.3,1.62.62.62,0,0,0,.58.67Z"/><path class="cls-8" d="M354.94,244.61a11.46,11.46,0,0,1-1.58.47,12.88,12.88,0,0,1-3.6.34c-3.78-.21-6.26-2.38-7.36-6a.61.61,0,0,1,.29-.72c3.29-1.8,6.58-1.62,9.44.86a12.85,12.85,0,0,1,2.34,2.76,11.52,11.52,0,0,1,.8,1.44.62.62,0,0,1-.33.82Z"/><path class="cls-9" d="M346,132.48s.4-2.79,2-3.53,5.38,6.39,2.36,8.82-8.06-2-8.73-3S344.08,132,346,132.48Z"/><path class="cls-10" d="M349,131.45s2.06-1.92,3.77-1.5.19,8.35-3.68,8.36-5.06-6.57-4.92-7.81S347.8,129.85,349,131.45Z"/><path class="cls-11" d="M347.18,132s1.05-2.61,2.78-3,3.71,7.49.2,9.13-7.36-3.81-7.76-5S345.41,131.07,347.18,132Z"/><path class="cls-9" d="M392.42,166.7s2.42-1.45,4-.67-1.58,8.21-5.37,7.39-3.56-7.49-3.16-8.68S391.57,164.88,392.42,166.7Z"/><path class="cls-10" d="M395.1,168.37s2.79.39,3.54,2-6.37,5.41-8.81,2.41,1.91-8.07,3-8.74S395.58,166.43,395.1,168.37Z"/><path class="cls-11" d="M393.52,167.3s2.69-.83,4,.3-3.48,7.6-7,5.91-1.68-8.12-1-9.18S393.13,165.33,393.52,167.3Z"/><path class="cls-9" d="M344.37,221.05s-2.42-1.45-4-.67,1.58,8.21,5.37,7.39,3.56-7.49,3.16-8.67S345.22,219.24,344.37,221.05Z"/><path class="cls-10" d="M341.69,222.72s-2.79.39-3.54,2,6.37,5.41,8.81,2.41-1.91-8.07-3-8.74S341.21,220.78,341.69,222.72Z"/><path class="cls-11" d="M343.27,221.65s-2.69-.83-4,.3,3.48,7.6,7,5.91,1.67-8.12,1-9.18S343.66,219.68,343.27,221.65Z"/><path class="cls-3" d="M92.3,170.82a.58.58,0,0,0-1.08.42s2.54,6.67,5.53,8a.58.58,0,1,0,.47-1.06C94.67,177.05,92.3,170.84,92.3,170.82Z"/><path class="cls-3" d="M134,136.54a.58.58,0,1,0-1.07-.45,18.56,18.56,0,0,1-3.25,5.15.58.58,0,0,0,.81.83A19.78,19.78,0,0,0,134,136.54Z"/><path class="cls-3" d="M137.65,225.67a.58.58,0,1,0-1.07-.44s-2.67,6.58-5.74,9a.58.58,0,1,0,.72.91C134.86,232.53,137.64,225.69,137.65,225.67Z"/><path class="cls-7" d="M125.26,133.17a1.71,1.71,0,0,0-.51-.2q-.38,1.81-.71,3.64a7.36,7.36,0,0,1,2.29,2.36c6.19,10.58-13.43,18.38-19.53,22.1-14.76,9-14.05,31.86-.89,41.82V198.2c-9.17-9.19-9.11-26.86,2.66-34,7.46-4.55,28.51-13.77,20.74-27a11.14,11.14,0,0,0-4-3.94Zm-3.1,84.25a41.33,41.33,0,0,1,4.29,6.1c4.27,7.56,4.79,16-4.29,23.88v4.1a1.7,1.7,0,0,0,1.06-.37c12-9.6,11.52-20.06,6.24-29.41a49.78,49.78,0,0,0-7.3-9.58Z"/><path class="cls-8" d="M125,152.52a11.51,11.51,0,0,1,1.44-.8,12.85,12.85,0,0,1,3.44-1.12c3.73-.61,6.62,1,8.48,4.23a.61.61,0,0,1-.13.77c-2.82,2.48-6.07,3-9.4,1.21a12.85,12.85,0,0,1-2.88-2.18,11.53,11.53,0,0,1-1.1-1.23.62.62,0,0,1,.15-.88Z"/><path class="cls-8" d="M106.8,163.19a11.63,11.63,0,0,0,1.14-1.19,12.88,12.88,0,0,0,1.94-3.05c1.53-3.46.73-6.65-2-9.27a.61.61,0,0,0-.77-.07c-3.11,2.11-4.44,5.13-3.53,8.8a12.84,12.84,0,0,0,1.39,3.34,11.43,11.43,0,0,0,.92,1.37.61.61,0,0,0,.89.08Z"/><path class="cls-8" d="M98.63,181.48a11.44,11.44,0,0,1,.19-1.64,12.84,12.84,0,0,1,1.1-3.44c1.68-3.39,4.65-4.82,8.38-4.42a.61.61,0,0,1,.55.55c.36,3.74-1.1,6.69-4.5,8.34a12.84,12.84,0,0,1-3.45,1.07,11.46,11.46,0,0,1-1.64.17.62.62,0,0,1-.63-.63Z"/><path class="cls-8" d="M100.39,194.7a11.63,11.63,0,0,0-.54-1.56A12.86,12.86,0,0,0,98,190c-2.37-2.94-5.58-3.7-9.14-2.49a.61.61,0,0,0-.41.66c.45,3.73,2.52,6.3,6.2,7.16a12.88,12.88,0,0,0,3.6.29,11.59,11.59,0,0,0,1.64-.19.62.62,0,0,0,.47-.75Z"/><path class="cls-8" d="M233.3,34.49a12.52,12.52,0,0,0,.36-1.75,13.91,13.91,0,0,0,0-3.91c-.59-4-3.16-6.52-7.14-7.36a.66.66,0,0,0-.75.38c-1.63,3.73-1.12,7.25,1.83,10.09a13.91,13.91,0,0,0,3.2,2.26,12.41,12.41,0,0,0,1.63.73.67.67,0,0,0,.86-.44Z"/><path class="cls-8" d="M127.81,220.08a11.43,11.43,0,0,0,1-1.35,12.86,12.86,0,0,0,1.48-3.3c1-3.64-.24-6.69-3.29-8.88a.61.61,0,0,0-.78,0c-2.77,2.54-3.65,5.72-2.21,9.21a12.9,12.9,0,0,0,1.86,3.1,11.43,11.43,0,0,0,1.11,1.22.62.62,0,0,0,.89-.05Z"/><path class="cls-3" d="M228.66,34.53A12.42,12.42,0,0,0,227,34a13.91,13.91,0,0,0-3.88-.5c-4.09.09-6.86,2.34-8.18,6.19a.66.66,0,0,0,.29.79c3.5,2.07,7.06,2,10.24-.58a13.91,13.91,0,0,0,2.63-2.9,12.44,12.44,0,0,0,.92-1.53.67.67,0,0,0-.33-.9Z"/><path class="cls-8" d="M129.64,237A11.45,11.45,0,0,1,128,237a12.85,12.85,0,0,1-3.52-.83c-3.51-1.41-5.16-4.26-5-8a.61.61,0,0,1,.51-.59c3.7-.65,6.76.58,8.66,3.85a12.87,12.87,0,0,1,1.33,3.36,11.59,11.59,0,0,1,.3,1.62.62.62,0,0,1-.58.67Z"/><path class="cls-8" d="M128.13,244.61a11.46,11.46,0,0,0,1.58.47,12.87,12.87,0,0,0,3.6.34c3.78-.21,6.26-2.38,7.36-6a.61.61,0,0,0-.29-.72c-3.29-1.8-6.58-1.62-9.44.86a12.87,12.87,0,0,0-2.34,2.76,11.6,11.6,0,0,0-.8,1.44.62.62,0,0,0,.34.82Z"/><path class="cls-9" d="M137,132.48s-.4-2.79-2-3.53-5.38,6.39-2.36,8.82,8.06-2,8.73-3S139,132,137,132.48Z"/><path class="cls-10" d="M134.06,131.45s-2.06-1.92-3.77-1.5-.19,8.35,3.68,8.36,5.06-6.57,4.92-7.81S135.27,129.85,134.06,131.45Z"/><path class="cls-11" d="M135.89,132s-1.05-2.61-2.78-3-3.71,7.49-.2,9.13,7.36-3.81,7.76-5S137.66,131.07,135.89,132Z"/><path class="cls-8" d="M249.34,34.49a12.44,12.44,0,0,1-.36-1.75,13.93,13.93,0,0,1,0-3.91c.59-4,3.16-6.52,7.14-7.36a.66.66,0,0,1,.75.38c1.63,3.73,1.12,7.25-1.83,10.09a13.88,13.88,0,0,1-3.2,2.26,12.34,12.34,0,0,1-1.63.73.67.67,0,0,1-.86-.44Z"/><path class="cls-3" d="M254,34.53a12.44,12.44,0,0,1,1.69-.57,13.92,13.92,0,0,1,3.88-.5c4.09.09,6.85,2.34,8.17,6.19a.66.66,0,0,1-.29.79c-3.5,2.07-7.06,2-10.24-.58a13.92,13.92,0,0,1-2.63-2.9,12.38,12.38,0,0,1-.92-1.53.67.67,0,0,1,.33-.9Z"/><path class="cls-8" d="M248.34,33.27a12.39,12.39,0,0,1,1.73.44,13.92,13.92,0,0,1,3.54,1.68c3.39,2.29,4.5,5.68,3.53,9.63a.66.66,0,0,1-.67.51c-4.06-.15-7-2.14-8.29-6a14,14,0,0,1-.65-3.86,12.65,12.65,0,0,1,.05-1.78.66.66,0,0,1,.77-.58Z"/><path class="cls-9" d="M90.65,166.7s-2.42-1.45-4-.67,1.58,8.21,5.37,7.39,3.56-7.49,3.16-8.68S91.5,164.88,90.65,166.7Z"/><path class="cls-10" d="M88,168.37s-2.79.39-3.54,2,6.37,5.41,8.81,2.41-1.91-8.07-3-8.74S87.49,166.43,88,168.37Z"/><path class="cls-11" d="M89.55,167.3s-2.69-.83-4,.3,3.48,7.6,7,5.91,1.68-8.12,1-9.18S89.94,165.33,89.55,167.3Z"/><path class="cls-9" d="M138.7,221.05s2.42-1.45,4-.67-1.58,8.21-5.37,7.39-3.56-7.49-3.16-8.67S137.85,219.24,138.7,221.05Z"/><path class="cls-10" d="M141.38,222.72s2.79.39,3.54,2-6.37,5.41-8.81,2.41,1.91-8.07,3-8.74S141.86,220.78,141.38,222.72Z"/><path class="cls-11" d="M139.8,221.65s2.69-.83,4,.3-3.48,7.6-7,5.91-1.68-8.12-1-9.18S139.41,219.68,139.8,221.65Z"/><path class="cls-8" d="M234.3,33.27a12.45,12.45,0,0,0-1.73.44A13.93,13.93,0,0,0,229,35.38c-3.39,2.29-4.5,5.68-3.53,9.63a.66.66,0,0,0,.67.51c4.06-.15,7-2.14,8.3-6a13.92,13.92,0,0,0,.65-3.86,12.43,12.43,0,0,0-.05-1.78.66.66,0,0,0-.77-.58Z"/><path class="cls-11" d="M248,19.17h0a3.54,3.54,0,0,0-5,0l-1.47,1.47-1.47-1.47a3.54,3.54,0,0,0-5,0h0a3.54,3.54,0,0,0,0,5,3.54,3.54,0,0,0-5,0h0a3.54,3.54,0,0,0,0,5l1.47,1.47-1.47,1.47a3.54,3.54,0,0,0,0,5h0a3.54,3.54,0,0,0,5,0,3.54,3.54,0,0,0,0,5h0a3.54,3.54,0,0,0,5,0l1.47-1.47L243,42.06a3.54,3.54,0,0,0,5,0h0a3.54,3.54,0,0,0,0-5,3.54,3.54,0,0,0,5,0h0a3.54,3.54,0,0,0,0-5l-1.47-1.47L253,29.15a3.54,3.54,0,0,0,0-5h0a3.54,3.54,0,0,0-5,0A3.54,3.54,0,0,0,248,19.17Z"/><circle class="cls-6" cx="241.55" cy="30.61" r="2.42"/><path class="cls-12" d="M237.66,33.72a.55.55,0,0,1,.78.78l-1.7,1.7a.55.55,0,0,1-.78-.78l1.7-1.7ZM242.1,38A.55.55,0,1,1,241,38V35.56a.55.55,0,0,1,1.11,0V38Zm0-12.3a.55.55,0,0,1-1.11,0V23.26a.55.55,0,0,1,1.11,0v2.41Zm5,9.75a.55.55,0,1,1-.78.78l-1.7-1.7a.55.55,0,0,1,.78-.78l1.7,1.7Zm-8.69-8.7a.55.55,0,1,1-.78.78L236,25.8a.55.55,0,1,1,.78-.78l1.7,1.7Zm10.46,3.33a.55.55,0,0,1,0,1.11H246.5a.55.55,0,1,1,0-1.11Zm-12.3,0a.55.55,0,0,1,0,1.11H234.2a.55.55,0,0,1,0-1.11Zm9.75-5a.55.55,0,1,1,.78.78l-1.7,1.7a.55.55,0,1,1-.78-.78Z"/><path class="cls-12" d="M227.73,25.13h0a2,2,0,0,0-2.65.7l-.57,1-1-.57a2,2,0,0,0-2.65.7h0a2,2,0,0,0,.7,2.65,2,2,0,0,0-2.65.7h0a2,2,0,0,0,.7,2.65l1,.57-.57,1a1.94,1.94,0,0,0,.7,2.65h0a2,2,0,0,0,2.65-.7,2,2,0,0,0,.7,2.65h0a2,2,0,0,0,2.65-.7l.57-1,1,.57a2,2,0,0,0,2.65-.7h0a2,2,0,0,0-.7-2.65,2,2,0,0,0,2.65-.7h0a2,2,0,0,0-.7-2.65l-1-.57.57-1a2,2,0,0,0-.7-2.65h0a2,2,0,0,0-2.65.7A2,2,0,0,0,227.73,25.13Z"/><circle class="cls-6" cx="225.91" cy="32.12" r="1.33" transform="translate(-0.7 58.83) rotate(-14.81)"/><path class="cls-11" d="M224.27,34.32a.3.3,0,1,1,.53.31l-.67,1.14a.3.3,0,1,1-.53-.31l.67-1.14Zm3,1.63a.3.3,0,0,1-.59.15l-.34-1.28a.3.3,0,0,1,.59-.16l.34,1.28Zm-1.73-6.54a.3.3,0,0,1-.59.16l-.34-1.28a.3.3,0,1,1,.59-.16l.34,1.28Zm4,4.48a.3.3,0,1,1-.31.52l-1.14-.67a.3.3,0,0,1,.31-.52l1.14.67Zm-5.85-3.4a.3.3,0,1,1-.31.52l-1.14-.67a.3.3,0,1,1,.31-.53l1.14.67Zm6,.3a.3.3,0,0,1,.16.59l-1.28.34a.3.3,0,0,1-.15-.59l1.28-.34Zm-6.54,1.73a.3.3,0,1,1,.16.59l-1.28.34a.3.3,0,0,1-.16-.59l1.28-.34Zm4.48-4a.3.3,0,1,1,.53.31l-.67,1.14a.3.3,0,0,1-.53-.31Z"/><path class="cls-12" d="M255.63,25.13h0a2,2,0,0,1,2.65.7l.57,1,1-.57a2,2,0,0,1,2.65.7h0a1.94,1.94,0,0,1-.7,2.65,2,2,0,0,1,2.65.7h0a2,2,0,0,1-.7,2.65l-1,.57.57,1a2,2,0,0,1-.7,2.65h0a1.94,1.94,0,0,1-2.65-.7,2,2,0,0,1-.7,2.65h0a2,2,0,0,1-2.65-.7l-.57-1-1,.57a2,2,0,0,1-2.65-.7h0a2,2,0,0,1,.7-2.65,2,2,0,0,1-2.65-.7h0a1.94,1.94,0,0,1,.7-2.65l1-.57-.57-1a1.94,1.94,0,0,1,.7-2.65h0a2,2,0,0,1,2.65.7A2,2,0,0,1,255.63,25.13Z"/><circle class="cls-6" cx="257.45" cy="32.12" r="1.33" transform="translate(160.58 272.81) rotate(-75.19)"/><path class="cls-11" d="M259.08,34.32a.3.3,0,1,0-.53.31l.67,1.14a.3.3,0,0,0,.53-.31l-.67-1.14Zm-3,1.63a.3.3,0,0,0,.59.15l.34-1.28a.3.3,0,1,0-.59-.16L256.13,36Zm1.73-6.54a.3.3,0,0,0,.59.16l.34-1.28a.3.3,0,1,0-.59-.16l-.34,1.28Zm-4,4.48a.3.3,0,1,0,.31.52l1.14-.67a.3.3,0,1,0-.31-.52l-1.14.67Zm5.85-3.4A.3.3,0,1,0,260,31l1.14-.67a.3.3,0,0,0-.31-.53l-1.14.67Zm-6,.3a.3.3,0,0,0-.16.59l1.28.34a.3.3,0,0,0,.16-.59l-1.28-.34Zm6.54,1.73a.3.3,0,1,0-.16.59l1.28.34a.3.3,0,1,0,.16-.59l-1.28-.34Zm-4.48-4a.3.3,0,1,0-.53.31l.67,1.14a.3.3,0,1,0,.53-.31Z"/><path class="cls-5" d="M271.19,91.73c24.25-1.68,13.91,17.45,19.24,41.21,10.43,46.58,63.88,115.42,8.12,170s-64.95-61.35-64.95-61.35l-2-11.23s10.37-34.56,8.93-72.58-2-56.16,12.1-59.33S271.19,91.73,271.19,91.73Z"/><path class="cls-13" d="M241.92,143.15l-5.85,13.43,1.33,24.71,8.45-14.12,5.25-9.85S247.4,145.07,241.92,143.15Z"/><polygon class="cls-14" points="236.88 154.72 236.07 156.57 237.4 181.28 242.7 172.43 236.88 154.72"/><path class="cls-14" d="M216.19,366.06s1.26,4.81,1.33,5.18-5.47,3.29-5.47,3.29l-3.42-1.37.55-6.15Z"/><path class="cls-14" d="M176.83,367.28s-1.26,4.81-1.33,5.18,5.47,3.29,5.47,3.29l2.91-2.43,0-5.09Z"/><path class="cls-15" d="M181.83,129.7a6.64,6.64,0,0,0-3.17,3.09c-1,2.18-15.54,22.38-15.54,22.38L170,165.88l12.53-11S187.9,138.8,181.83,129.7Z"/><polygon class="cls-16" points="226.67 197.61 225.12 200.52 222.61 193.89 226.04 195.23 226.67 197.61"/><path class="cls-15" d="M222.27,191.11s.61,2.67,2.14,3.59,2.15,3.63,2.15,3.63l1-1.14s3.11,1.23,3.86-.9,4.12-9.39,5.9-13,2.12-10.5,1.55-14.51-7.15-31.47-9.07-33.66a29.22,29.22,0,0,0-5.55-4.42s-1.19,7.69-.88,11.56,1.15,19.55,1.15,19.55-1.21,4.75-.18,6.07,1.43-.41,1.43-.41l1.44,2.64s-.83.75-.81,1.13a3,3,0,0,0,.37,1l-3.84,5.95Z"/><path class="cls-17" d="M221.14,189.93s5.76,8.83,6.69,29.24-4.29,66-4.19,73.43-1.15,36.06-2.28,43.35-3.15,29.55-3.57,31-1.15,1.51-2.23,1.69-6.27,0-7.52-.72-1-61-1.58-73.23-2.22-59.23-3-62.08-4.19-35.88-4-41.91S221.14,189.93,221.14,189.93Z"/><path class="cls-18" d="M227.18,170.16s3.38-1.29,5.74-.16"/><path class="cls-18" d="M226.74,172.27s4.33.08,5.19,1.57"/><path class="cls-18" d="M233.8,190.7s2.74-7.34,2.5-12.67"/><line class="cls-19" x1="237.43" y1="162.07" x2="232.21" y2="150.35"/><path class="cls-2" d="M221.14,189.93s2,3,3.8,9.65c-7.64,3.89-16.55,4.56-24.66,3.89-.5-5.82-.83-10.75-.76-12.74C199.73,184.7,221.14,189.93,221.14,189.93Z"/><path class="cls-17" d="M211.24,193.23s-5.84,31.45-11.14,67.53-4.67,38.44-6.19,49.17-9.2,58.56-9.44,59.54-7.61,2-9.61.14c0,0-.64-.43-.68-3s3.25-61.17,3.69-64-8.31-69.4,6.91-110.06C184.78,192.55,206.17,186,211.24,193.23Z"/><path class="cls-2" d="M211.24,193.23s-.71,3.83-1.86,10.34c-10.35.69-20.63-1.68-27-3.61.73-2.55,1.54-5,2.44-7.41C184.78,192.55,206.17,186,211.24,193.23Z"/><path class="cls-13" d="M225.84,172.47s3.49.06,4.45,1.32a1.13,1.13,0,0,1-.08,1.25l-.24.18s.87,1.48,1.05,1.94a8.64,8.64,0,0,1,.46,2.37c0,.47-.55.05-.55.05l.21,1.11s-.05.42-.33.54-.86-.38-1.06-.65a12.21,12.21,0,0,1-.66-1.35s-.46.28-.78.06a9.41,9.41,0,0,0-2-1.36,4.9,4.9,0,0,0-2.25.37s-.59-.4-.32-2.22A7.69,7.69,0,0,1,225.84,172.47Z"/><path class="cls-14" d="M225.84,172.47a13.48,13.48,0,0,1,2.07.23,5.39,5.39,0,0,0-.82,1.46c-.12.54-.38,2.6-.53,3.89a1.27,1.27,0,0,0-.29-.11,4.85,4.85,0,0,0-1.64.15,3.64,3.64,0,0,1-1-1.17,6.22,6.22,0,0,1,.07-.84A7.7,7.7,0,0,1,225.84,172.47Z"/><path class="cls-4" d="M198.44,123.82S184,128.4,181.83,129.7c1.37,1.61,3.42,16.52.67,25.13,0,0,2,15.61,2,17.81s-2.77,15.79-2.69,17.47a27.05,27.05,0,0,0,1.41,5.33,64.52,64.52,0,0,0,22.44,5.75c13,1,19-2.76,20.69-5.56s-1.44-19.52-.64-23.11,3.4-15.4,3.29-17.93-3.2-22-3.79-23-13.06-6.67-13.06-6.67Z"/><path class="cls-4" d="M177.58,113.2,168.86,112s-.42-.17-.46-.12c-6.07,6.55-2,16.45-4.48,25.07-3,10.46-6.42,18.52-.67,27a5.64,5.64,0,0,0,7.23,1.84c7.65-5,4.8-13.79,5.92-26.1.74-8.12,6.34-17,1.26-26.27C177.63,113.39,177.63,113.21,177.58,113.2Z"/><path class="cls-20" d="M206.53,383.45s21,.26,21.84,0,1.16-.74,1.16-1.84v-2.35c0-.82-.26-1.66-2.65-2.49s-1.63-.9-3.42-1.33-3.14-5.64-3.57-6a7.21,7.21,0,0,0-3-.31c-1.29,0-3.37.08-4,1.72s-3.3,1.87-4.31,1.37c0,0-1-.08-1.21.67s-.69,5.91-.76,6.46a1.08,1.08,0,0,0,.15.8,3,3,0,0,0-.53.55,3.89,3.89,0,0,0-.12,1.17C206.14,382.43,206.08,383.41,206.53,383.45Z"/><path class="cls-21" d="M228.67,377.63a6.82,6.82,0,0,0-1.79-.86,22.07,22.07,0,0,1-4.11-2.36l-6.53-.22-.12,1.25s-1.08.22-.66,1,1.36,1.9,4.3,1.9h7.94C228.58,378.37,228.63,378.1,228.67,377.63Z"/><path class="cls-21" d="M206.53,383.45l4.9,0c2.45-.73,4.61-1.54,4.61-1.54s-4.1-6.34-3.87-6.93a32,32,0,0,1,3.14-3.45s-.42-.86-1-2a2.35,2.35,0,0,0-1.38,1.35c-.63,1.64-3.3,1.87-4.31,1.37,0,0-1-.08-1.21.67s-.69,5.91-.76,6.46a1.08,1.08,0,0,0,.15.8,3,3,0,0,0-.53.55,3.89,3.89,0,0,0-.12,1.17C206.14,382.43,206.08,383.41,206.53,383.45Z"/><path class="cls-22" d="M224.17,376c-.13,0-.23-.78-.23-.78s-3.61-5.41-4-5.73a7.21,7.21,0,0,0-3-.31,5.5,5.5,0,0,0-3.29.76h0c-1.92,1.62,1.07,3.8,2.32,5.39C216.52,376.06,221.51,376.11,224.17,376Z"/><path class="cls-4" d="M228.37,380.2c-.72.23-20.24,0-21.59,0s-.45.37-.53.55a3.89,3.89,0,0,0-.12,1.17c0,.51-.06,1.49.4,1.53,0,0,21,.26,21.84,0s1.16-.74,1.16-1.84v-2.35c0-.48,0-.27,0-.41A1.42,1.42,0,0,1,228.37,380.2Z"/><path class="cls-20" d="M185.81,383.45s-21,.26-21.84,0-1.16-.74-1.16-1.84v-2.35c0-.82.26-1.66,2.65-2.49s1.63-.9,3.42-1.33,3.14-5.64,3.57-6a7.2,7.2,0,0,1,3-.31c1.29,0,3.37.08,4,1.72s3.3,1.87,4.31,1.37c0,0,1-.08,1.21.67s.69,5.91.76,6.46a1.08,1.08,0,0,1-.15.8,3,3,0,0,1,.53.55,3.87,3.87,0,0,1,.12,1.17C186.21,382.43,186.26,383.41,185.81,383.45Z"/><path class="cls-21" d="M163.67,377.63a6.81,6.81,0,0,1,1.79-.86,22.07,22.07,0,0,0,4.11-2.36l6.53-.22.12,1.25s1.08.22.66,1-1.36,1.9-4.3,1.9h-7.94C163.76,378.37,163.71,378.1,163.67,377.63Z"/><path class="cls-21" d="M185.81,383.45l-4.9,0c-2.45-.73-4.61-1.54-4.61-1.54s4.1-6.34,3.87-6.93a32,32,0,0,0-3.14-3.45s.42-.86,1-2a2.35,2.35,0,0,1,1.38,1.35c.63,1.64,3.3,1.87,4.31,1.37,0,0,1-.08,1.21.67s.7,5.91.76,6.46a1.08,1.08,0,0,1-.15.8,3,3,0,0,1,.53.55,3.9,3.9,0,0,1,.12,1.17C186.21,382.43,186.26,383.41,185.81,383.45Z"/><path class="cls-22" d="M168.18,376c.13,0,.23-.78.23-.78s3.61-5.41,4-5.73a7.2,7.2,0,0,1,3-.31,5.5,5.5,0,0,1,3.29.76h0c1.92,1.62-1.07,3.8-2.32,5.39C175.83,376.06,170.84,376.11,168.18,376Z"/><path class="cls-4" d="M164,380.2c.72.23,20.24,0,21.59,0s.45.37.53.55a3.87,3.87,0,0,1,.12,1.17c0,.51.06,1.49-.4,1.53,0,0-21,.26-21.84,0s-1.16-.74-1.16-1.84v-2.35c0-.48,0-.27,0-.41A1.42,1.42,0,0,0,164,380.2Z"/><path class="cls-18" d="M177.23,135.1s-1.78,7.61-1.14,13.12"/><path class="cls-18" d="M176.17,141.62s1.43,2.5,2.11,3.37"/><path class="cls-18" d="M164.65,133s.11,10.59.21,16"/><path class="cls-18" d="M173.91,162.4s2.72-6,5.69-10.89"/><path class="cls-18" d="M175.17,114.74a17.87,17.87,0,0,1-.54,13.5"/><path class="cls-18" d="M171.26,112.9a23.58,23.58,0,0,0-2.2,7.95"/><path class="cls-23" d="M188.16,197.49s-1.81,8.11-7.46,8.4"/><path class="cls-23" d="M222.48,198.87s1.49,5.77,3.82,6.67"/><path class="cls-23" d="M203.87,236.32s3-24.24,3.82-35"/><path class="cls-23" d="M211.14,201.31s-1.81,17.76-2.21,19-3.61,3.93-3.61,3.93"/><path class="cls-13" d="M180.24,110.32c1.51-1.85,4.49-2.62,5.18-2.83.92-.28-.71-3.84-3.48-1.41,0,0-2.26.85-2.6.15s3.46-10.67,3.93-11.73a1.18,1.18,0,0,0-1-1.72c-.43.1-1.09,1.64-2,3.54a26.13,26.13,0,0,1-2.29,4.1c-.24.09-.62-.16-.45-1.41s1.3-8.12,1-8.69-1.38-.6-1.83.38-1.36,8-1.73,8.82-1.06.35-1.14-.3,0-8.34-.3-8.88-1.37-.53-1.6.61-.53,8.51-.81,9-1,.44-1.52-.89-1.27-4.22-1.59-4.46-1.42.62-1.13,2.09.89,5.14.91,5.69c.14,2.94-.47,5.67-.07,7.95a5.72,5.72,0,0,0,1,2.3C172.18,117.5,177.29,113.94,180.24,110.32Z"/><path class="cls-24" d="M317.66,368a2.72,2.72,0,0,1,2.76,1.21c.81,1.54-1.39,2.6-1.39,2.6a1.8,1.8,0,0,1,.48,1.87,1.05,1.05,0,0,1-1.44.48s2,3.63-3.56,3.66c0,0,.25,2.22-2.78,1.77,0,0-.66,4.85-6.27,3.08a3.17,3.17,0,0,1-3.84,2.07c-3-.66-4.45-5.46-4.45-5.46Z"/><path class="cls-5" d="M317.09,352.93a3,3,0,0,1,2.18.36c1,.66.28,2.25-.18,2.8a2.44,2.44,0,0,1,.81,1.57,1.08,1.08,0,0,1-.86,1s2.5,5-2.1,7.43-7.18-5.76-7.18-5.76Z"/><path class="cls-4" d="M280.16,191.34a35.51,35.51,0,0,1,3.43,3.37c20.37,24.61,12.93,56.77,33.37,158,1.09,5.39-1.82,10.41-1.82,10.41s-35.07-80.47-44.41-129.24C267.71,218.1,280.15,192.43,280.16,191.34Z"/><path class="cls-5" d="M278.55,188.41C291.9,202.12,295.73,310.21,317.66,368c0,0,1.51,2.43-1.62,5.16s-11.22,7.68-18.39,9.1S278.55,188.41,278.55,188.41Z"/><path class="cls-2" d="M282.37,107.34A42.54,42.54,0,0,0,282.1,120c1,5.79,7.24,20.27-8.23,23.07s-27.41-1-28.32-11.4S247.2,118.8,247.2,111Z"/><path class="cls-24" d="M210.3,368a2.72,2.72,0,0,0-2.77,1.21c-.81,1.54,1.39,2.6,1.39,2.6a1.8,1.8,0,0,0-.48,1.87,1.05,1.05,0,0,0,1.44.48s-2,3.63,3.56,3.66c0,0-.25,2.22,2.78,1.77,0,0,.66,4.85,6.27,3.08a3.17,3.17,0,0,0,3.84,2.07c3-.66,4.45-5.46,4.45-5.46Z"/><path class="cls-5" d="M210.87,352.93a3,3,0,0,0-2.18.36c-1,.66-.28,2.25.18,2.8a2.44,2.44,0,0,0-.81,1.57,1.08,1.08,0,0,0,.86,1s-2.5,5,2.1,7.43,7.18-5.76,7.18-5.76Z"/><path class="cls-4" d="M247.8,191.34a35.47,35.47,0,0,0-3.43,3.37c-20.37,24.61-12.92,56.77-33.37,158-1.09,5.39,1.82,10.41,1.82,10.41s35.07-80.47,44.41-129.24C260.25,218.1,247.81,192.43,247.8,191.34Z"/><path class="cls-5" d="M249.41,188.41C236.06,202.12,232.23,310.21,210.3,368c0,0-1.52,2.43,1.62,5.16s11.22,7.68,18.39,9.1S249.41,188.41,249.41,188.41Z"/><path class="cls-5" d="M300.77,387.07l2.29-.36s2.46.54,3.37,1.78.56,5.31-4.65,4.09a2.48,2.48,0,0,1-3.74,1.57s-1.77,6.06-9.25,2.27a4.53,4.53,0,0,1-5.36.81,6.42,6.42,0,0,1-6.11,1.57,2.31,2.31,0,0,1-1.92,1.31c-1.26,0-1.26-.56-1.26-.56s-2.27,2-5.61-.56a7.5,7.5,0,0,1-9.1,0c-3.33,2.53-5.61.56-5.61.56s0,.51-1.26.56a2.31,2.31,0,0,1-1.92-1.31,6.42,6.42,0,0,1-6.11-1.57,4.52,4.52,0,0,1-5.36-.81c-7.48,3.79-9.25-2.27-9.25-2.27a2.48,2.48,0,0,1-3.74-1.57c-5.21,1.21-5.56-2.86-4.65-4.09s3.37-1.78,3.37-1.78l2.29.36L264,393.53Z"/><path class="cls-4" d="M284.69,156.39c.3.9.55,1.77.74,2.56,1.31,5.56-2.63,13.64-3.64,16a62.08,62.08,0,0,0-2.19,7.89H248.36a62.43,62.43,0,0,0-2.19-7.89c-1-2.33-5-10.41-3.64-16,.18-.75.41-1.56.69-2.4h0a31.52,31.52,0,0,0-1.3-13.4,5.08,5.08,0,0,1,1.86-1l8.24-3,.16,0c10.22,19.81,13.28,19.86,23.39.32l8.86,2.32a8.34,8.34,0,0,1,1.78.75A31.2,31.2,0,0,0,284.69,156.39Z"/><path class="cls-4" d="M279.6,182.8c-.82,3.66-1.41,7.27-.91,7.9,6.88,8.55,9.46,127.52,24.42,195.59a2.72,2.72,0,0,1-1,2c-1,.76-14.22,6.72-38.17,6.77s-37.21-6-38.17-6.77a2.72,2.72,0,0,1-1-2c15-68.07,17.54-187,24.42-195.59.5-.62-.09-4.24-.91-7.9Z"/><path class="cls-9" d="M264,174.61h-1.35c-1.21,0-10.28,3.66-16.16,1.08a1.29,1.29,0,0,0-.21.55c0,.23,1.59,9.11,1.54,9.81s-4,7.76-4,8.16,4.85,5.56,11.47,6.92a2.8,2.8,0,0,0,2.81-1.41c1.16-1.77,3.49-5.51,4-6.42a2.07,2.07,0,0,1,3.8,0c.55.91,2.88,4.65,4,6.42a2.8,2.8,0,0,0,2.81,1.41c6.62-1.36,11.52-6.52,11.47-6.92s-4-7.45-4-8.16,1.54-9.59,1.54-9.81a1.29,1.29,0,0,0-.21-.55c-5.87,2.58-14.95-1.08-16.16-1.08Z"/><path class="cls-13" d="M259.1,136.5l-1.23.7a2.14,2.14,0,0,1-1.67,1.22c-1.39.32-4,.7-4,.7V145a11.83,11.83,0,0,0,11.8,11.8h0a11.83,11.83,0,0,0,11.8-11.8v-5.48l-4.47-1.17,0,0a2,2,0,0,1-1.26-1.1l-1.23-.7-4.88.68Z"/><path class="cls-14" d="M271.77,138.42a2.14,2.14,0,0,1-1.67-1.22l-1.23-.7-3.5.49Z"/><path class="cls-13" d="M264.16,124H264a6.37,6.37,0,0,0-6.43,6.28l-.09,10.06a6.38,6.38,0,0,0,6.28,6.43h.12a6.37,6.37,0,0,0,6.43-6.28l.09-10.06A6.38,6.38,0,0,0,264.16,124Z"/><path class="cls-14" d="M258.29,127.51a6.26,6.26,0,0,0-.68,2.8l0,4.94,12.81,2.86.07-7.66a6.3,6.3,0,0,0-.13-1.33c-3-1.27-7.26-3-7.48-3S260.15,126.87,258.29,127.51Z"/><circle class="cls-25" cx="249.73" cy="119.9" r="3.3"/><circle class="cls-25" cx="278.32" cy="119.93" r="3.3"/><path class="cls-13" d="M263.77,95.82h0c-7.92.09-14.33,6.31-14.23,13.81l.16,12.4c0,3.16,6.47,12.86,13.18,13.33,7.64.53,15.68-9.34,15.63-13.67l-.16-12.4C278.26,101.79,271.69,95.72,263.77,95.82Z"/><path class="cls-2" d="M277.93,104.31a3.62,3.62,0,0,0-1-1.5h0c-2.14-2.09-6.86-4.28-8.7-4.28s-6.55,8.86-3.19,5.83,7.94,1,7.94,1-1.26,7.25,3.63,8.17c0,0-.24,5.59,1.89,5.76,0,0,.84-2.93,2.14-1.78l-3.07-12.17A6.8,6.8,0,0,1,277.93,104.31Z"/><circle class="cls-25" cx="271.84" cy="122.63" r="2.02" transform="translate(-3.2 7.35) rotate(-1.54)"/><circle class="cls-25" cx="255.68" cy="123.09" r="2.02" transform="translate(-3.22 6.92) rotate(-1.54)"/><path class="cls-2" d="M272.37,112.61a4.11,4.11,0,0,0-3.78-.07.43.43,0,1,1-.4-.76,5,5,0,0,1,4.59.09.43.43,0,1,1-.42.75Z"/><path class="cls-2" d="M273,105.4c-1.7-9.89-5.58-4-7.57.93-1.63,4.07-5.83,9.48-15.76,9.48A5.25,5.25,0,0,1,247.2,111v-10c0-2.62,3.89-12.26,11.31-14.07a18.37,18.37,0,0,1,15,3.26c1.36,1.18,3.26,5.88,3.26,5.88,8.25.8,6.24,7.78,4.84,15-.27,1.4-3.16,6.94-3.16,6.94C278.08,114.35,277.74,100.74,273,105.4Z"/><path class="cls-17" d="M247.2,103.81v-1.69c4.5,0,17.41-1.28,18.39-15.29a18.55,18.55,0,0,1,7.85,3.37c-2.42,4.13-7,10.34-13.72,12.8A20.29,20.29,0,0,1,247.2,103.81Z"/><path class="cls-24" d="M267.53,191a.56.56,0,1,1-.55,1l-3-1.73L261,192a.56.56,0,1,1-.55-1l2.43-1.41-2.44-1.41a.56.56,0,1,1,.55-1l3,1.73,3-1.73a.56.56,0,1,1,.56,1l-2.44,1.41Z"/><path class="cls-4" d="M267.53,187.24a.56.56,0,1,1-.55,1l-3-1.73-3,1.73a.56.56,0,1,1-.55-1l2.43-1.41-2.44-1.41a.56.56,0,0,1,.55-1l3,1.73,3-1.73a.56.56,0,0,1,.56,1l-2.44,1.41Z"/><path class="cls-24" d="M267.53,183.44a.56.56,0,1,1-.55,1l-3-1.73-3,1.73a.56.56,0,1,1-.55-1l2.43-1.41-2.44-1.41a.56.56,0,0,1,.55-1l3,1.73,3-1.73a.56.56,0,0,1,.56,1L265.09,182Z"/><path class="cls-4" d="M267.53,179.65a.56.56,0,1,1-.55,1l-3-1.73-3,1.73a.56.56,0,1,1-.55-1l2.43-1.41-2.44-1.41a.56.56,0,1,1,.55-1l3,1.73,3-1.73a.56.56,0,1,1,.56,1l-2.44,1.41Z"/><path class="cls-2" d="M270.52,114.79h0a1.4,1.4,0,0,1,.89.32.57.57,0,0,0,.38-.29.22.22,0,0,1,.4.2,1,1,0,0,1-.46.43h0a1,1,0,0,0,.58-.36.22.22,0,0,1,.35.28,1.45,1.45,0,0,1-.66.46h0a1.38,1.38,0,0,0,.67-.21.22.22,0,1,1,.24.38,1.8,1.8,0,0,1-.69.26l-.31,0V118a1.41,1.41,0,0,1-1.4,1.4h0a1.41,1.41,0,0,1-1.4-1.4v-1.83A1.41,1.41,0,0,1,270.52,114.79Z"/><path class="cls-2" d="M257,114.79h0a1.4,1.4,0,0,0-.89.32.57.57,0,0,1-.38-.29.22.22,0,0,0-.4.2,1,1,0,0,0,.46.43h0a1,1,0,0,1-.58-.36.22.22,0,0,0-.35.28,1.45,1.45,0,0,0,.66.46h0a1.37,1.37,0,0,1-.67-.21.22.22,0,1,0-.24.38,1.81,1.81,0,0,0,.69.26l.31,0V118a1.41,1.41,0,0,0,1.4,1.4h0a1.41,1.41,0,0,0,1.4-1.4v-1.83A1.41,1.41,0,0,0,257,114.79Z"/><path class="cls-26" d="M262.05,119.92a9.39,9.39,0,0,0-1.05,2c-.05.48,1.08,1.39,1.78.53S262.78,119.29,262.05,119.92Z"/><path class="cls-14" d="M267.45,125.64a.27.27,0,0,0-.23-.49,10,10,0,0,1-7.95,0,.27.27,0,1,0-.24.49A10.58,10.58,0,0,0,267.45,125.64Z"/><path class="cls-13" d="M205.64,106.08h-.13c-3.79,0-6.95,2.72-7,6.13l-.09,9.81c0,3.41,3,6.23,6.82,6.27h.13c3.79,0,6.95-2.72,7-6.13l.09-9.81C212.49,108.94,209.44,106.11,205.64,106.08Z"/><path class="cls-14" d="M198.52,115.57l0,4,13.31,7.09a6.78,6.78,0,0,0,.57-2.67l.07-8.46Z"/><path class="cls-14" d="M222.28,100.06h.35a4.68,4.68,0,1,1-3.71,1.54c.1,1.38.58,3,2.35,2.93l-.47-2.66A1.61,1.61,0,0,1,222.28,100.06Z"/><path class="cls-14" d="M190.12,97.37l-.34.05h0a4.68,4.68,0,1,0,3.89,1c.09,1.38-.15,3.09-1.92,3.23l.1-2.7A1.61,1.61,0,0,0,190.12,97.37Z"/><path class="cls-13" d="M208.24,75A16.06,16.06,0,0,0,192,90.73l-.2,11.74,0,2.82a16,16,0,0,0,.33,3.53c2.83,7.94,10.36,12.43,16.56,12.66,6.39.23,11.47-4,14.67-12.12a15.9,15.9,0,0,0,.45-3.51l0-2.82.2-11.74A16.06,16.06,0,0,0,208.24,75Z"/><circle class="cls-25" cx="217.39" cy="107.14" r="2.11"/><circle class="cls-25" cx="200.44" cy="106.87" r="2.11"/><path class="cls-2" d="M200.82,96.61a.58.58,0,0,1-.55-1,5.34,5.34,0,0,1,5-.08.59.59,0,0,1-.58,1A4.15,4.15,0,0,0,200.82,96.61Z"/><path class="cls-2" d="M220.27,96.22a4.15,4.15,0,0,0-3.89.05.59.59,0,1,1-.62-1,5.34,5.34,0,0,1,5-.12.59.59,0,0,1-.5,1.06Z"/><path class="cls-27" d="M211.67,104a9,9,0,0,1,1.42,2.83c0,.88-1.56.5-1.85,0S210.74,103.63,211.67,104Z"/><path class="cls-14" d="M205.73,112.28a.42.42,0,0,1,.33-.77s4.94,2.12,7.95-.11a.42.42,0,1,1,.5.67C211.11,114.6,205.75,112.29,205.73,112.28Z"/><path class="cls-2" d="M217.26,98.95h0a1.54,1.54,0,0,0-1.54,1.42l-.1,1.48a1.43,1.43,0,0,0,1.42,1.54h0a1.54,1.54,0,0,0,1.54-1.42l.1-1.48A1.43,1.43,0,0,0,217.26,98.95Z"/><path class="cls-2" d="M222.23,89.62a14.35,14.35,0,0,1,.91,3c.12,1.15.63,10.61.63,10.61s2.75-8.26,3.17-10.49-2.12-6.3-4-7.37S222.23,89.62,222.23,89.62Z"/><path class="cls-2" d="M191.74,103.12s2.7-.42,2.52-5.78c0,0,3.13-3.13,3.68-4.52s-.48-4.94-.48-4.94,12.72,4.4,24.78,1.75c0,0,2.77-4.34,2.29-8.2s-6-9.77-9.16-10.73S212.59,72,212.59,72a39.65,39.65,0,0,0-12.9,1.57c-7.11,2-8.44,5.06-8,8.56,0,0-3.38,2.17-3.62,4s1.44,11.35,1.44,11.35S191.84,99.15,191.74,103.12Z"/><path class="cls-21" d="M198.45,122.39s6.74,5,8.12,5.82l-2.42,4a1.26,1.26,0,0,1-1.93.26c-1-1-5.21-8.22-5.21-8.22Z"/><path class="cls-21" d="M212.37,124l-5.8,4.23,2.31,4s.78.78,1.44.49,4-6.8,4-6.8Z"/><path class="cls-2" d="M196,199.77a58.63,58.63,0,0,0,1.6-8.27c.43-3.22.7-6.48.9-9.72.46-7.4.54-14.8.54-22.21a52.4,52.4,0,0,0-.74-7.72c-.49-3.2-1.11-6.38-1.77-9.55-1.17-5.54-2.5-11.06-3.92-16.55a.44.44,0,0,0-.56-.3l-3.1,1a.43.43,0,0,0-.28.52c1.35,5.22,2.62,10.48,3.74,15.76.66,3.11,1.28,6.23,1.76,9.37a49.69,49.69,0,0,1,.73,7.42c0,7.33-.07,14.66-.52,22-.2,3.15-.46,6.31-.87,9.44a52.74,52.74,0,0,1-1.5,7.76.43.43,0,0,0,.3.54q1.57.44,3.16.81A.44.44,0,0,0,196,199.77Z"/><path class="cls-2" d="M218,127.91c.85,5.52,1.56,11.1,2,16.67.22,2.7.38,5.41.41,8.12a43.36,43.36,0,0,1-.35,6.78c-.42,2.84-.6,5.8-.74,8.68-.17,3.59-.24,7.2-.26,10.79q0,6,.13,12.1c.08,2.95.18,5.93.41,8.87a.44.44,0,0,0,.57.38,17.51,17.51,0,0,0,3.23-1.43.43.43,0,0,0,.22-.4c-.18-2.8-.27-5.63-.34-8.44q-.13-5.53-.1-11.06c0-3.5.09-7,.25-10.51.13-2.77.3-5.63.71-8.38a46.25,46.25,0,0,0,.39-7.09c0-2.77-.18-5.55-.4-8.31-.4-5.05-1-10.11-1.74-15.13a.42.42,0,0,0-.23-.32c-1.18-.61-2.37-1.2-3.57-1.78a.44.44,0,0,0-.62.46Z"/><path class="cls-18" d="M226.18,136.13a32.75,32.75,0,0,0-1-4.56m-43.35-1.87c1.37,1.61,3.42,16.52.67,25.13m43.82,40.79c1.65-2.8-1.44-19.52-.64-23.11s3.4-15.4,3.29-17.93c0-1-.55-4.6-1.18-8.67"/><path class="cls-2" d="M202,99h0a1.54,1.54,0,0,0-1.54,1.42l-.1,1.48a1.44,1.44,0,0,0,1.42,1.54h0a1.54,1.54,0,0,0,1.54-1.42l.1-1.48A1.44,1.44,0,0,0,202,99Z"/><path class="cls-17" d="M198.43,74c4.81,2.75,12.82,5.37,20.19-1.28a21.16,21.16,0,0,1,5.18,6.45c-4.7,1.79-12,3.62-18.72,1.48a22.14,22.14,0,0,1-9.32-5.54A19.18,19.18,0,0,1,198.43,74Z"/><path class="cls-13" d="M292.68,149.49c2.83,8.65,10.06,34.16,10.06,34.16s2,7.43-1.58,11.91-29.84,33.36-29.84,33.36l-1.88-5.31.45-3.25,22.2-32.12-8.61-21.61c-3.26-9-4.42-20.56,1.6-24.64A14.64,14.64,0,0,1,292.68,149.49Z"/><path class="cls-14" d="M283.23,215.77l-7.79,8.61-5.93-1.32.38-2.7,3.57-5.17.61.65,2.86-1.83Z"/><path class="cls-18" d="M267.5,175.13s-4.4-1.33-9.16-2.34"/><path class="cls-18" d="M243.22,156.55s1.87-5.21,2.23-6.65"/><path class="cls-28" d="M265.67,153.61s-3.08,4.07-3.15,8.1"/><path class="cls-29" d="M247.8,186.06a24.51,24.51,0,0,1,0,4.52"/><path class="cls-29" d="M280.16,186.06s-.74,5.45-.87,6.68"/><path class="cls-28" d="M292.09,188.24a3.45,3.45,0,0,1,2.68-.1"/><path class="cls-7" d="M276.08,213.42a13.29,13.29,0,0,0-1.83.55,14.92,14.92,0,0,0-3.71,2c-3.53,2.61-4.57,6.29-3.35,10.48a.71.71,0,0,0,.74.51c4.35-.34,7.43-2.61,8.62-6.83a14.94,14.94,0,0,0,.52-4.16,13.57,13.57,0,0,0-.13-1.91.72.72,0,0,0-.85-.59Z"/><path class="cls-3" d="M262.42,238.13a6,6,0,1,0,11.77-2.36,7.85,7.85,0,1,0-2.55-15.43,6,6,0,1,0-11.31.65,8.68,8.68,0,1,0,2.09,17.14Z"/><path class="cls-8" d="M263.43,224.81a11,11,0,0,0-.33-1.51,12.07,12.07,0,0,0-1.35-3.11,7.26,7.26,0,0,0-8.23-3.34.57.57,0,0,0-.46.57,7.26,7.26,0,0,0,5,7.36,12.06,12.06,0,0,0,3.32.67,10.74,10.74,0,0,0,1.55,0,.58.58,0,0,0,.53-.65Z"/><path class="cls-8" d="M281.5,241.09a10.74,10.74,0,0,0-.33-1.51,12.07,12.07,0,0,0-1.35-3.11,7.27,7.27,0,0,0-8.23-3.34.57.57,0,0,0-.46.57,7.26,7.26,0,0,0,5,7.36,12,12,0,0,0,3.32.68,10.9,10.9,0,0,0,1.55,0,.56.56,0,0,0,.4-.21A.57.57,0,0,0,281.5,241.09Z"/><path class="cls-7" d="M264.4,233.53a9.44,9.44,0,0,0-1.3.39,10.62,10.62,0,0,0-2.63,1.39,6.37,6.37,0,0,0-2.37,7.42.5.5,0,0,0,.53.36,6.37,6.37,0,0,0,6.11-4.84,10.58,10.58,0,0,0,.37-3,9.49,9.49,0,0,0-.1-1.35.5.5,0,0,0-.6-.42Z"/><path class="cls-9" d="M264.81,216.77s.3-1.83,1.36-2.29,3.44,4.27,1.43,5.83-5.26-1.4-5.69-2.1S263.53,216.43,264.81,216.77Z"/><path class="cls-10" d="M266.78,216.14s1.38-1.23,2.49-.93,0,5.49-2.54,5.44-3.23-4.38-3.12-5.2S266,215.07,266.78,216.14Z"/><path class="cls-11" d="M265.57,216.48s.73-1.7,1.87-1.9,2.33,5,0,6-4.78-2.61-5-3.39S264.42,215.84,265.57,216.48Z"/><path class="cls-5" d="M275.9,225.73s-.38-2.28-1.7-2.85-4.29,5.33-1.78,7.26,6.56-1.74,7.09-2.62S277.48,225.29,275.9,225.73Z"/><path class="cls-30" d="M273.44,224.94s-1.72-1.54-3.11-1.16,0,6.84,3.16,6.78,4-5.46,3.89-6.48S274.4,223.61,273.44,224.94Z"/><path class="cls-4" d="M274.94,225.36s-.91-2.12-2.33-2.37-2.9,6.2,0,7.48,6-3.25,6.26-4.23S276.38,224.56,274.94,225.36Z"/><path class="cls-31" d="M257.91,225.64s.28-3.1,2-4,6.31,6.76,3.12,9.62-9-1.7-9.82-2.83S255.73,225.21,257.91,225.64Z"/><path class="cls-5" d="M261.16,224.33s2.16-2.24,4.07-1.87.69,9.22-3.59,9.45-6-7-5.88-8.35S259.73,222.63,261.16,224.33Z"/><path class="cls-15" d="M259.17,225s1-2.95,2.9-3.42,4.52,8.06.74,10.08-8.35-3.79-8.86-5.08S257.15,224.11,259.17,225Z"/><path class="cls-9" d="M266.86,232.71s.87-2.14,2.28-2.41,3,6.14.13,7.48-6-3.14-6.34-4.12S265.41,231.93,266.86,232.71Z"/><path class="cls-10" d="M269.44,232.48s2-1.12,3.29-.45-1.5,6.68-4.58,5.92-2.72-6.22-2.37-7.18S268.79,231,269.44,232.48Z"/><path class="cls-11" d="M267.87,232.55s1.35-1.87,2.79-1.79,1.46,6.68-1.65,7.29-5.1-4.48-5.18-5.51S266.65,231.46,267.87,232.55Z"/><path class="cls-14" d="M171.07,105.71a.42.42,0,1,0,.33.77s4.94-2.12,7.95.11a.42.42,0,1,0,.5-.67C176.45,103.4,171.09,105.71,171.07,105.71Z"/><path class="cls-4" d="M94.55,121.21h0a6,6,0,0,0-8.48,0l-1,1-1-1a6,6,0,0,0-8.48,0h0a6,6,0,0,0,0,8.48l1,1L85,139.19l8.48-8.48,1-1A6,6,0,0,0,94.55,121.21Z"/><path class="cls-4" d="M322.86,102.49a.95.95,0,0,1,1.89,0v4.26a.95.95,0,1,1-1.89,0v-4.26Zm-6.45,3.46a.95.95,0,1,1,1.34-1.34l3,3a.95.95,0,1,1-1.34,1.34l-3-3Zm-2.12,7a.95.95,0,0,1,0-1.89h4.26a.95.95,0,1,1,0,1.89Zm3.46,6.45a.95.95,0,0,1-1.34-1.34l3-3a.95.95,0,1,1,1.34,1.34l-3,3Zm7,2.12a.95.95,0,0,1-1.89,0v-4.26a.95.95,0,1,1,1.89,0v4.26Zm6.46-3.46a.95.95,0,0,1-1.34,1.34l-3-3a.95.95,0,0,1,1.34-1.34l3,3Zm2.12-7a.95.95,0,1,1,0,1.89h-4.26a.95.95,0,1,1,0-1.89Zm-3.46-6.46a.95.95,0,0,1,1.34,1.34l-3,3a.95.95,0,1,1-1.34-1.34Z"/><path class="cls-4" d="M156,177.92a.95.95,0,1,1,1.89,0v4.26a.95.95,0,1,1-1.89,0v-4.26Zm-6.45,3.46a.95.95,0,1,1,1.34-1.34l3,3a.95.95,0,1,1-1.34,1.34l-3-3Zm-2.12,7a.95.95,0,1,1,0-1.89h4.26a.95.95,0,1,1,0,1.89Zm3.46,6.46a.95.95,0,1,1-1.34-1.34l3-3a.95.95,0,1,1,1.34,1.34l-3,3Zm7,2.12a.95.95,0,0,1-1.89,0V192.7a.95.95,0,1,1,1.89,0V197Zm6.45-3.46a.95.95,0,1,1-1.34,1.34l-3-3a.95.95,0,1,1,1.34-1.34l3,3Zm2.12-7a.95.95,0,1,1,0,1.89h-4.26a.95.95,0,1,1,0-1.89ZM163,180a.95.95,0,1,1,1.34,1.34l-3,3a.95.95,0,0,1-1.34-1.34Z"/><rect class="cls-32" x="439.22" y="360.71" width="5.59" height="5.59" rx="1.3" ry="1.3"/><rect class="cls-6" x="428.88" y="360.71" width="5.59" height="5.59" rx="1.3" ry="1.3"/><rect class="cls-32" x="418.53" y="360.71" width="5.59" height="5.59" rx="1.3" ry="1.3"/><rect class="cls-6" x="408.19" y="360.71" width="5.59" height="5.59" rx="1.3" ry="1.3"/><rect class="cls-32" x="397.85" y="360.71" width="5.59" height="5.59" rx="1.3" ry="1.3"/><rect class="cls-6" x="418.16" y="349.43" width="5.59" height="5.59" rx="1.3" ry="1.3"/><rect class="cls-32" x="407.82" y="349.43" width="5.59" height="5.59" rx="1.3" ry="1.3"/><rect class="cls-6" x="397.48" y="349.43" width="5.59" height="5.59" rx="1.3" ry="1.3"/><rect class="cls-32" x="282.97" y="61.2" width="5.59" height="5.59" rx="1.3" ry="1.3"/><rect class="cls-6" x="272.63" y="61.2" width="5.59" height="5.59" rx="1.3" ry="1.3"/><rect class="cls-32" x="262.29" y="61.2" width="5.59" height="5.59" rx="1.3" ry="1.3"/><path class="cls-6" d="M253.25,61.2h3a1.31,1.31,0,0,1,1.31,1.31v3a1.3,1.3,0,0,1-1.3,1.3h-3a1.3,1.3,0,0,1-1.3-1.3v-3A1.3,1.3,0,0,1,253.25,61.2Z"/><rect class="cls-32" x="241.61" y="61.2" width="5.59" height="5.59" rx="1.3" ry="1.3"/><rect class="cls-6" x="261.92" y="49.92" width="5.59" height="5.59" rx="1.3" ry="1.3"/><rect class="cls-32" x="251.58" y="49.92" width="5.59" height="5.59" rx="1.3" ry="1.3"/><rect class="cls-6" x="241.23" y="49.92" width="5.59" height="5.59" rx="1.3" ry="1.3"/><path class="cls-4" d="M440.9,317.25h0a6,6,0,0,0-8.48,0l-1,1-1-1a6,6,0,0,0-8.48,0h0a6,6,0,0,0,0,8.48l1,1,8.48,8.48,8.48-8.48,1-1A6,6,0,0,0,440.9,317.25Z"/><circle class="cls-6" cx="77.67" cy="316.11" r="3.07"/><circle class="cls-6" cx="160.01" cy="264.5" r="3.07"/><circle class="cls-6" cx="332.06" cy="168.65" r="3.07"/><circle class="cls-6" cx="427.91" cy="168.65" r="3.07"/><circle class="cls-6" cx="409.48" cy="312.43" r="3.07"/><circle class="cls-6" cx="343.12" cy="318.57" r="3.07"/><circle class="cls-6" cx="182.13" cy="66.65" r="3.07"/><path class="cls-4" d="M345.24,29h0a6,6,0,0,0-8.48,0l-1,1-1-1a6,6,0,0,0-8.48,0h0a6,6,0,0,0,0,8.48l1,1L335.74,47l8.48-8.48,1-1A6,6,0,0,0,345.24,29Z"/></g></g></svg>