<svg xmlns="http://www.w3.org/2000/svg" xmlns:xlink="http://www.w3.org/1999/xlink" width="626" height="628.5" viewBox="0 0 626 628.5">
  <defs>
    <filter id="Ellipse_234" x="0" y="0" width="626" height="628.5" filterUnits="userSpaceOnUse">
      <feOffset dx="8" dy="13" input="SourceAlpha"/>
      <feGaussianBlur stdDeviation="3.5" result="blur"/>
      <feFlood flood-color="#fff"/>
      <feComposite operator="in" in2="blur"/>
      <feComposite in="SourceGraphic"/>
    </filter>
  </defs>
  <g id="Group_289" data-name="Group 289" transform="translate(-3019.5 1748)">
    <g transform="matrix(1, 0, 0, 1, 3019.5, -1748)" filter="url(#Ellipse_234)">
      <circle id="Ellipse_234-2" data-name="Ellipse 234" cx="302.5" cy="302.5" r="302.5" transform="translate(2.5)" fill="rgba(0,102,51,0.04)"/>
    </g>
    <g id="Layer_2" data-name="Layer 2" transform="translate(3058.737 -1651.62)">
      <g id="OBJECTS">
        <path id="Path_1354" data-name="Path 1354" d="M85.444,419.583A85.7,85.7,0,0,1,0,334.14H0A85.688,85.688,0,0,1,85.444,248.7h0a36.23,36.23,0,0,0,36.13-36.13h0a36.23,36.23,0,0,0-36.13-36.13H81.138a37.728,37.728,0,0,1-37.562-37.562h0a37.728,37.728,0,0,1,37.562-37.54H94.321a14.67,14.67,0,0,0,14.636-14.625h0A14.67,14.67,0,0,0,94.321,72.128H84.645a10.12,10.12,0,0,1-10.1-10.087h0a10.12,10.12,0,0,1,10.1-10.087H149.8A15.9,15.9,0,0,0,165.661,36.1h0A15.9,15.9,0,0,0,149.8,20.185h-19.5A10.12,10.12,0,0,1,120.22,10.1h0A10.12,10.12,0,0,1,130.307,0H415.622a13.2,13.2,0,0,1,13.172,13.172h0a13.2,13.2,0,0,1-13.172,13.172h-5.448a20.751,20.751,0,0,0-20.684,20.684h0a20.751,20.751,0,0,0,20.684,20.662h62.762a13.2,13.2,0,0,1,13.16,13.2h0a13.2,13.2,0,0,1-13.161,13.161h-12.65a19.142,19.142,0,0,0-19.086,19.13h0a19.142,19.142,0,0,0,19.075,19.086h17.211A49.158,49.158,0,0,1,526.5,181.285h0A49.158,49.158,0,0,1,477.485,230.3H471.87a47.282,47.282,0,0,0-47.127,47.116h0a47.283,47.283,0,0,0,47.138,47.138h12.151a47.715,47.715,0,0,1,47.493,47.5h0A47.715,47.715,0,0,1,484,419.583ZM449.322,26.343A13.172,13.172,0,1,0,436.15,13.172a13.172,13.172,0,0,0,13.172,13.172ZM56.315,72.128A10.087,10.087,0,1,0,46.228,62.041,10.087,10.087,0,0,0,56.315,72.128Z" fill="#d3d0e7" fill-rule="evenodd"/>
        <path id="Path_1355" data-name="Path 1355" d="M485.931,377.62H55.4a8.067,8.067,0,0,0-8.045,8.045h0A8.067,8.067,0,0,0,55.4,393.71H80.684a8.278,8.278,0,0,1,8.256,8.256h0a8.278,8.278,0,0,1-8.256,8.256h-2.73a5.138,5.138,0,0,0-5.127,5.127h0a5.138,5.138,0,0,0,5.127,5.127H425.565a8.4,8.4,0,0,0,8.378-8.378h0a8.4,8.4,0,0,0-8.378-8.378h-2.3a5.016,5.016,0,0,1-5-5h0a5.016,5.016,0,0,1,5-5h62.662a8.067,8.067,0,0,0,8.045-8.045h0a8.067,8.067,0,0,0-8.045-8.045Zm-36.807,42.844a8.334,8.334,0,0,1-8.311-8.311v-.122a8.345,8.345,0,0,1,8.311-8.311h0a8.334,8.334,0,0,1,8.311,8.311v.122A8.334,8.334,0,0,1,449.123,420.464Z" transform="translate(5.192 41.408)" fill="#383260" fill-rule="evenodd"/>
        <path id="Path_1356" data-name="Path 1356" d="M391.346,170.858a.644.644,0,0,1,1.2.466s-2.819,7.4-6.136,8.877a.644.644,0,0,1-.522-1.176C388.716,177.771,391.346,170.88,391.346,170.858Z" transform="translate(42.275 18.694)" fill="#87a8a6" fill-rule="evenodd"/>
        <path id="Path_1357" data-name="Path 1357" d="M349.075,136.628a.644.644,0,1,1,1.187-.5,20.573,20.573,0,0,0,3.606,5.715.644.644,0,1,1-.9.921,21.938,21.938,0,0,1-3.895-6.137Z" transform="translate(38.273 14.884)" fill="#87a8a6" fill-rule="evenodd"/>
        <path id="Path_1358" data-name="Path 1358" d="M345.427,225.762a.644.644,0,1,1,1.187-.488s2.963,7.3,6.369,9.987a.644.644,0,0,1-.8,1.01C348.512,233.374,345.438,225.784,345.427,225.762Z" transform="translate(37.871 24.654)" fill="#87a8a6" fill-rule="evenodd"/>
        <path id="Path_1359" data-name="Path 1359" d="M406.905,309.9a9.022,9.022,0,1,1-18.043,0V172.513a132.46,132.46,0,1,0-264.919,0V309.888a9.022,9.022,0,1,1-18.043,0V172.513a150.5,150.5,0,1,1,301,0Z" transform="translate(11.613 2.414)" fill="#fff" fill-rule="evenodd"/>
        <path id="Path_1360" data-name="Path 1360" d="M392.352,296.389V172.107A135.056,135.056,0,0,0,382,120.131,137.7,137.7,0,0,0,308.007,46.15a135.622,135.622,0,0,0-103.964,0A137.05,137.05,0,0,0,119.7,172.118V296.4h-2.574V172.118a138.9,138.9,0,1,1,277.808,0L394.927,296.4Zm-282.962,0h2.574V172.107a142.757,142.757,0,0,1,10.941-54.939,145.454,145.454,0,0,1,78.153-78.142,143.368,143.368,0,0,1,109.856,0A145.465,145.465,0,0,1,389.09,117.2a142.768,142.768,0,0,1,10.941,54.939V296.422h2.574V172.14a145.364,145.364,0,0,0-11.1-55.927,147.973,147.973,0,0,0-79.562-79.562,145.876,145.876,0,0,0-111.842,0,147.973,147.973,0,0,0-79.562,79.562,145.365,145.365,0,0,0-11.1,55.927Z" transform="translate(11.995 2.797)" fill="#e3e1f1" fill-rule="evenodd"/>
        <rect id="Rectangle_160" data-name="Rectangle 160" width="37.85" height="133.303" rx="4.26" transform="translate(107.614 295.268)" fill="#fff"/>
        <rect id="Rectangle_161" data-name="Rectangle 161" width="37.85" height="133.303" rx="4.26" transform="translate(390.577 295.268)" fill="#fff"/>
        <path id="Path_1361" data-name="Path 1361" d="M123.942,252.76l-18.032,5.382v9.41h18.032Z" transform="translate(11.614 27.717)" fill="#e3e1f1" fill-rule="evenodd"/>
        <path id="Path_1362" data-name="Path 1362" d="M378.943,252.76,360.9,258.142v9.41h18.043Z" transform="translate(39.575 27.717)" fill="#e3e1f1" fill-rule="evenodd"/>
        <path id="Path_1363" data-name="Path 1363" d="M124.607,272.86h0a1.287,1.287,0,0,1,1.287,1.287V382.172a1.287,1.287,0,0,1-1.287,1.287h0a1.287,1.287,0,0,1-1.287-1.287V274.125a1.287,1.287,0,0,1,1.287-1.265Z" transform="translate(13.523 29.921)" fill="#e3e1f1" fill-rule="evenodd"/>
        <path id="Path_1364" data-name="Path 1364" d="M114.123,272.86h0a1.287,1.287,0,0,1,1.332,1.265V382.15a1.287,1.287,0,0,1-1.287,1.287h0a1.287,1.287,0,0,1-1.287-1.287V274.125A1.287,1.287,0,0,1,114.123,272.86Z" transform="translate(12.378 29.921)" fill="#e3e1f1" fill-rule="evenodd"/>
        <path id="Path_1365" data-name="Path 1365" d="M103.717,272.86h0A1.287,1.287,0,0,1,105,274.147V382.172a1.287,1.287,0,0,1-1.287,1.287h0a1.287,1.287,0,0,1-1.287-1.287V274.125a1.287,1.287,0,0,1,1.287-1.265Z" transform="translate(11.232 29.921)" fill="#e3e1f1" fill-rule="evenodd"/>
        <path id="Path_1366" data-name="Path 1366" d="M379.607,272.86h0a1.287,1.287,0,0,1,1.287,1.287V382.172a1.287,1.287,0,0,1-1.287,1.287h0a1.287,1.287,0,0,1-1.287-1.287V274.125a1.287,1.287,0,0,1,1.287-1.265Z" transform="translate(41.485 29.921)" fill="#e3e1f1" fill-rule="evenodd"/>
        <path id="Path_1367" data-name="Path 1367" d="M369.127,272.86h0a1.287,1.287,0,0,1,1.287,1.287V382.172a1.287,1.287,0,0,1-1.287,1.287h0a1.287,1.287,0,0,1-1.287-1.287V274.125a1.287,1.287,0,0,1,1.287-1.265Z" transform="translate(40.336 29.921)" fill="#e3e1f1" fill-rule="evenodd"/>
        <path id="Path_1368" data-name="Path 1368" d="M358.707,272.86h0a1.287,1.287,0,0,1,1.287,1.287V382.172a1.287,1.287,0,0,1-1.287,1.287h0a1.287,1.287,0,0,1-1.287-1.287V274.125a1.287,1.287,0,0,1,1.287-1.265Z" transform="translate(39.193 29.921)" fill="#e3e1f1" fill-rule="evenodd"/>
        <path id="Path_1369" data-name="Path 1369" d="M358.649,133.192a1.886,1.886,0,0,1,.566-.222q.433,2.008.788,4.039a8.168,8.168,0,0,0-2.541,2.619c-6.869,11.74,14.9,20.4,21.672,24.523,16.379,9.987,15.591,35.354.988,46.406v-5.2c10.176-10.2,10.109-29.805-2.952-37.728-8.278-5.049-31.636-15.28-23.014-29.961a12.35,12.35,0,0,1,4.439-4.372Zm3.44,93.489a45.856,45.856,0,0,0-4.76,6.769c-4.738,8.389-5.315,17.754,4.76,26.5v4.55a1.886,1.886,0,0,1-1.176-.411c-13.316-10.653-12.783-22.26-6.924-32.635a55.264,55.264,0,0,1,8.1-10.63Z" transform="translate(38.386 14.581)" fill="#6f8c8a" fill-rule="evenodd"/>
        <path id="Path_1370" data-name="Path 1370" d="M359.474,152.744a12.75,12.75,0,0,0-1.6-.888,14.248,14.248,0,0,0-3.817-1.243c-4.139-.677-7.346,1.11-9.41,4.694a.677.677,0,0,0,.144.854c3.129,2.752,6.736,3.329,10.431,1.343a14.281,14.281,0,0,0,3.2-2.419,12.842,12.842,0,0,0,1.221-1.365.688.688,0,0,0-.166-.976Z" transform="translate(37.783 16.5)" fill="#9fbbc1" fill-rule="evenodd"/>
        <path id="Path_1371" data-name="Path 1371" d="M376.692,164.691a12.737,12.737,0,0,1-1.265-1.32,14.327,14.327,0,0,1-2.153-3.384c-1.7-3.839-.81-7.379,2.219-10.287a.677.677,0,0,1,.854-.078c3.451,2.341,4.927,5.693,3.917,9.765a14.3,14.3,0,0,1-1.542,3.706,13.085,13.085,0,0,1-1.021,1.52.677.677,0,0,1-.988.089Z" transform="translate(40.838 16.394)" fill="#9fbbc1" fill-rule="evenodd"/>
        <path id="Path_1372" data-name="Path 1372" d="M385.567,182.529a12.771,12.771,0,0,0-.211-1.82,14.293,14.293,0,0,0-1.221-3.817c-1.864-3.762-5.16-5.349-9.3-4.9a.677.677,0,0,0-.61.61c-.411,4.15,1.221,7.424,4.993,9.255a14.26,14.26,0,0,0,3.828,1.187,12.717,12.717,0,0,0,1.82.189.688.688,0,0,0,.7-.7Z" transform="translate(41.029 18.851)" fill="#9fbbc1" fill-rule="evenodd"/>
        <path id="Path_1373" data-name="Path 1373" d="M382.673,195.549a12.844,12.844,0,0,1,.6-1.731,14.259,14.259,0,0,1,1.986-3.484c2.63-3.262,6.192-4.106,10.142-2.763a.677.677,0,0,1,.455.732c-.5,4.139-2.8,6.991-6.88,7.945a14.293,14.293,0,0,1-3.995.322,12.858,12.858,0,0,1-1.82-.211.618.618,0,0,1-.488-.81Z" transform="translate(41.959 20.501)" fill="#9fbbc1" fill-rule="evenodd"/>
        <path id="Path_1374" data-name="Path 1374" d="M355.569,221.579a12.823,12.823,0,0,1-1.11-1.5,14.306,14.306,0,0,1-1.642-3.662c-1.11-4.039.266-7.424,3.651-9.854a.677.677,0,0,1,.866,0c3.074,2.819,4.05,6.347,2.452,10.22a14.235,14.235,0,0,1-2.064,3.44,12.684,12.684,0,0,1-1.232,1.354.688.688,0,0,1-.988-.055Z" transform="translate(38.647 22.634)" fill="#9fbbc1" fill-rule="evenodd"/>
        <path id="Path_1375" data-name="Path 1375" d="M353.5,238.058a12.73,12.73,0,0,0,1.831-.067,14.26,14.26,0,0,0,3.906-.921c3.895-1.565,5.726-4.727,5.548-8.877a.677.677,0,0,0-.566-.655c-4.106-.721-7.5.644-9.61,4.272a14.257,14.257,0,0,0-1.476,3.728,12.714,12.714,0,0,0-.333,1.8.688.688,0,0,0,.644.743Z" transform="translate(38.687 24.931)" fill="#9fbbc1" fill-rule="evenodd"/>
        <path id="Path_1376" data-name="Path 1376" d="M356.318,245.39a12.716,12.716,0,0,1-1.753.522,14.291,14.291,0,0,1-3.995.377c-4.195-.233-6.947-2.641-8.167-6.658a.677.677,0,0,1,.322-.8c3.651-2,7.3-1.8,10.475.954a14.261,14.261,0,0,1,2.6,3.063,12.8,12.8,0,0,1,.888,1.6.688.688,0,0,1-.366.91Z" transform="translate(37.543 26.043)" fill="#9fbbc1" fill-rule="evenodd"/>
        <path id="Path_1377" data-name="Path 1377" d="M346.489,132.873s.444-3.1,2.219-3.917,5.97,7.091,2.619,9.787-8.944-2.219-9.687-3.329S344.359,132.34,346.489,132.873Z" transform="translate(37.452 14.134)" fill="#a75268" fill-rule="evenodd"/>
        <path id="Path_1378" data-name="Path 1378" d="M349.531,131.627s2.286-2.131,4.183-1.664.211,9.266-4.084,9.277-5.615-7.29-5.46-8.666S348.2,129.852,349.531,131.627Z" transform="translate(37.739 14.237)" fill="#c37584" fill-rule="evenodd"/>
        <path id="Path_1379" data-name="Path 1379" d="M347.708,132.331s1.165-2.9,3.085-3.329,4.117,8.311.222,10.131-8.167-4.228-8.611-5.548S345.744,131.3,347.708,132.331Z" transform="translate(37.543 14.144)" fill="#d48f9e" fill-rule="evenodd"/>
        <path id="Path_1380" data-name="Path 1380" d="M392.94,166.965s2.685-1.609,4.439-.743-1.753,9.11-5.959,8.2-3.95-8.311-3.507-9.632S392,164.945,392.94,166.965Z" transform="translate(42.511 18.015)" fill="#a75268" fill-rule="evenodd"/>
        <path id="Path_1381" data-name="Path 1381" d="M395.758,168.855s3.1.433,3.928,2.219-7.069,6-9.776,2.674,2.119-8.955,3.329-9.7S396.291,166.7,395.758,168.855Z" transform="translate(42.667 17.978)" fill="#c37584" fill-rule="evenodd"/>
        <path id="Path_1382" data-name="Path 1382" d="M394.078,167.657s2.985-.921,4.439.333-3.862,8.433-7.768,6.558-1.864-9.01-1.11-10.187S393.645,165.471,394.078,167.657Z" transform="translate(42.594 17.988)" fill="#d48f9e" fill-rule="evenodd"/>
        <path id="Path_1383" data-name="Path 1383" d="M344.854,221.313s-2.685-1.609-4.439-.743,1.753,9.11,5.959,8.2,3.95-8.311,3.507-9.621S345.8,219.3,344.854,221.313Z" transform="translate(37.278 23.976)" fill="#a75268" fill-rule="evenodd"/>
        <path id="Path_1384" data-name="Path 1384" d="M342.084,223.205s-3.1.433-3.928,2.219,7.068,6,9.776,2.674-2.119-8.955-3.329-9.7S341.552,221.052,342.084,223.205Z" transform="translate(37.074 23.938)" fill="#c37584" fill-rule="evenodd"/>
        <path id="Path_1385" data-name="Path 1385" d="M343.733,222.007s-2.985-.921-4.439.333,3.862,8.433,7.768,6.558,1.853-9.01,1.11-10.187S344.166,219.821,343.733,222.007Z" transform="translate(37.179 23.948)" fill="#d48f9e" fill-rule="evenodd"/>
        <path id="Path_1386" data-name="Path 1386" d="M92.422,170.858a.644.644,0,0,0-1.2.466s2.819,7.4,6.136,8.877a.644.644,0,1,0,.522-1.176C95.052,177.771,92.422,170.88,92.422,170.858Z" transform="translate(10 18.694)" fill="#87a8a6" fill-rule="evenodd"/>
        <path id="Path_1387" data-name="Path 1387" d="M134.493,136.628a.644.644,0,1,0-1.187-.5,20.6,20.6,0,0,1-3.606,5.715.644.644,0,1,0,.9.921A21.949,21.949,0,0,0,134.493,136.628Z" transform="translate(14.201 14.884)" fill="#87a8a6" fill-rule="evenodd"/>
        <path id="Path_1388" data-name="Path 1388" d="M138.421,225.762a.644.644,0,1,0-1.187-.488s-2.963,7.3-6.369,9.987a.644.644,0,0,0,.8,1.01C135.325,233.374,138.41,225.784,138.421,225.762Z" transform="translate(14.323 24.654)" fill="#87a8a6" fill-rule="evenodd"/>
        <path id="Path_1389" data-name="Path 1389" d="M128.481,133.192a1.9,1.9,0,0,0-.566-.222q-.422,2.008-.788,4.039a8.167,8.167,0,0,1,2.541,2.619c6.869,11.74-14.9,20.4-21.672,24.523-16.379,9.987-15.591,35.354-.988,46.406v-5.2c-10.176-10.2-10.109-29.805,2.952-37.728,8.278-5.049,31.636-15.28,23.014-29.961a12.361,12.361,0,0,0-4.439-4.372Zm-3.44,93.489a45.862,45.862,0,0,1,4.76,6.769c4.738,8.389,5.315,17.754-4.76,26.5v4.55a1.887,1.887,0,0,0,1.176-.411c13.316-10.653,12.783-22.26,6.924-32.635a55.238,55.238,0,0,0-8.1-10.631Z" transform="translate(10.514 14.581)" fill="#6f8c8a" fill-rule="evenodd"/>
        <path id="Path_1390" data-name="Path 1390" d="M125.03,152.744a12.773,12.773,0,0,1,1.6-.888,14.26,14.26,0,0,1,3.817-1.243c4.139-.677,7.346,1.11,9.41,4.694a.677.677,0,0,1-.144.854c-3.129,2.752-6.736,3.329-10.431,1.343a14.259,14.259,0,0,1-3.2-2.419,12.794,12.794,0,0,1-1.221-1.365.688.688,0,0,1,.166-.977Z" transform="translate(13.677 16.5)" fill="#9fbbc1" fill-rule="evenodd"/>
        <path id="Path_1391" data-name="Path 1391" d="M107.184,164.691a12.9,12.9,0,0,0,1.265-1.32,14.293,14.293,0,0,0,2.153-3.384c1.7-3.839.81-7.379-2.219-10.287a.677.677,0,0,0-.854-.078c-3.451,2.341-4.927,5.693-3.917,9.765a14.247,14.247,0,0,0,1.542,3.706,12.685,12.685,0,0,0,1.021,1.52.677.677,0,0,0,.988.089Z" transform="translate(11.327 16.394)" fill="#9fbbc1" fill-rule="evenodd"/>
        <path id="Path_1392" data-name="Path 1392" d="M98.63,182.529a12.692,12.692,0,0,1,.211-1.82,14.248,14.248,0,0,1,1.221-3.817c1.864-3.762,5.16-5.349,9.3-4.9a.677.677,0,0,1,.61.61c.4,4.15-1.221,7.424-4.993,9.255a14.248,14.248,0,0,1-3.828,1.187,12.715,12.715,0,0,1-1.82.189.688.688,0,0,1-.7-.7Z" transform="translate(10.815 18.851)" fill="#9fbbc1" fill-rule="evenodd"/>
        <path id="Path_1393" data-name="Path 1393" d="M101.7,195.549a12.9,12.9,0,0,0-.6-1.731,14.27,14.27,0,0,0-2.053-3.484c-2.63-3.262-6.192-4.106-10.142-2.763a.677.677,0,0,0-.455.732c.5,4.139,2.8,6.991,6.88,7.945a14.293,14.293,0,0,0,3.995.322,12.857,12.857,0,0,0,1.82-.211.688.688,0,0,0,.522-.832Z" transform="translate(9.698 20.501)" fill="#9fbbc1" fill-rule="evenodd"/>
        <path id="Path_1394" data-name="Path 1394" d="M234.226,35.92a13.9,13.9,0,0,0,.4-1.942,15.436,15.436,0,0,0,0-4.339c-.655-4.439-3.507-7.235-7.923-8.167a.732.732,0,0,0-.832.422c-1.809,4.139-1.243,8.045,2.031,11.2a15.436,15.436,0,0,0,3.551,2.508,13.77,13.77,0,0,0,1.809.81.743.743,0,0,0,.954-.488Z" transform="translate(24.657 2.353)" fill="#9fbbc1" fill-rule="evenodd"/>
        <path id="Path_1395" data-name="Path 1395" d="M128.3,221.579a12.681,12.681,0,0,0,1.11-1.5,14.271,14.271,0,0,0,1.642-3.662c1.11-4.039-.266-7.424-3.651-9.854a.677.677,0,0,0-.866,0c-3.074,2.819-4.05,6.347-2.452,10.22a14.315,14.315,0,0,0,2.064,3.44,12.682,12.682,0,0,0,1.232,1.354.688.688,0,0,0,.988-.055Z" transform="translate(13.523 22.634)" fill="#9fbbc1" fill-rule="evenodd"/>
        <path id="Path_1396" data-name="Path 1396" d="M230.169,34.643a13.783,13.783,0,0,0-1.842-.588,15.435,15.435,0,0,0-4.305-.555c-4.538.1-7.612,2.6-9.077,6.869a.732.732,0,0,0,.322.877c3.884,2.3,7.834,2.219,11.363-.644a15.435,15.435,0,0,0,2.918-3.218,13.8,13.8,0,0,0,1.021-1.7.743.743,0,0,0-.366-1Z" transform="translate(23.565 3.673)" fill="#87a8a6" fill-rule="evenodd"/>
        <path id="Path_1397" data-name="Path 1397" d="M130.755,238.051a12.7,12.7,0,0,1-1.82,0,14.258,14.258,0,0,1-3.906-.921c-3.895-1.565-5.726-4.727-5.548-8.877a.677.677,0,0,1,.566-.655c4.106-.721,7.5.644,9.61,4.272a14.281,14.281,0,0,1,1.476,3.728,12.861,12.861,0,0,1,.333,1.8.688.688,0,0,1-.644.743Z" transform="translate(13.101 24.937)" fill="#9fbbc1" fill-rule="evenodd"/>
        <path id="Path_1398" data-name="Path 1398" d="M128.172,245.39a12.718,12.718,0,0,0,1.753.522,14.281,14.281,0,0,0,3.995.377c4.195-.233,6.946-2.641,8.167-6.658a.677.677,0,0,0-.322-.8c-3.651-2-7.3-1.8-10.475.954a14.281,14.281,0,0,0-2.6,3.063,12.87,12.87,0,0,0-.888,1.6.688.688,0,0,0,.377.91Z" transform="translate(14.009 26.043)" fill="#9fbbc1" fill-rule="evenodd"/>
        <path id="Path_1399" data-name="Path 1399" d="M137.6,132.873s-.444-3.1-2.219-3.917-5.97,7.091-2.619,9.787,8.944-2.219,9.687-3.329S139.822,132.34,137.6,132.873Z" transform="translate(14.42 14.134)" fill="#a75268" fill-rule="evenodd"/>
        <path id="Path_1400" data-name="Path 1400" d="M134.55,131.627s-2.286-2.131-4.183-1.664-.211,9.266,4.084,9.277,5.615-7.29,5.46-8.666S135.892,129.852,134.55,131.627Z" transform="translate(14.211 14.237)" fill="#c37584" fill-rule="evenodd"/>
        <path id="Path_1401" data-name="Path 1401" d="M136.43,132.331s-1.165-2.9-3.085-3.329-4.117,8.311-.222,10.131,8.167-4.228,8.611-5.548S138.394,131.3,136.43,132.331Z" transform="translate(14.361 14.144)" fill="#d48f9e" fill-rule="evenodd"/>
        <path id="Path_1402" data-name="Path 1402" d="M249.395,35.92a13.809,13.809,0,0,1-.4-1.942,15.457,15.457,0,0,1,0-4.339c.655-4.439,3.507-7.235,7.923-8.167a.732.732,0,0,1,.832.422c1.809,4.139,1.243,8.045-2.031,11.2a15.4,15.4,0,0,1-3.551,2.508,13.694,13.694,0,0,1-1.809.81.743.743,0,0,1-.954-.488Z" transform="translate(27.287 2.353)" fill="#9fbbc1" fill-rule="evenodd"/>
        <path id="Path_1403" data-name="Path 1403" d="M254.044,34.647a13.8,13.8,0,0,1,1.875-.633,15.446,15.446,0,0,1,4.305-.555c4.538.1,7.6,2.6,9.066,6.869a.732.732,0,0,1-.322.877c-3.884,2.3-7.834,2.219-11.363-.644a15.446,15.446,0,0,1-2.918-3.218,13.74,13.74,0,0,1-1.021-1.7.743.743,0,0,1,.366-1Z" transform="translate(27.808 3.669)" fill="#87a8a6" fill-rule="evenodd"/>
        <path id="Path_1404" data-name="Path 1404" d="M248.43,33.27a13.75,13.75,0,0,1,1.92.488,15.446,15.446,0,0,1,3.928,1.864c3.762,2.541,4.993,6.3,3.917,10.686a.732.732,0,0,1-.743.566c-4.505-.166-7.768-2.375-9.2-6.658a15.537,15.537,0,0,1-.721-4.283,14.04,14.04,0,0,1,.055-1.975.732.732,0,0,1,.854-.644Z" transform="translate(27.142 3.648)" fill="#9fbbc1" fill-rule="evenodd"/>
        <path id="Path_1405" data-name="Path 1405" d="M91.134,166.965s-2.685-1.609-4.439-.743,1.753,9.11,5.959,8.2,3.95-8.311,3.507-9.632S92.077,164.945,91.134,166.965Z" transform="translate(9.456 18.015)" fill="#a75268" fill-rule="evenodd"/>
        <path id="Path_1406" data-name="Path 1406" d="M88.394,168.855s-3.1.433-3.928,2.219,7.069,6,9.776,2.674-2.119-8.955-3.329-9.7S87.828,166.7,88.394,168.855Z" transform="translate(9.256 17.978)" fill="#c37584" fill-rule="evenodd"/>
        <path id="Path_1407" data-name="Path 1407" d="M90.013,167.657s-2.985-.921-4.439.333,3.862,8.433,7.768,6.558,1.864-9.01,1.11-10.187S90.446,165.471,90.013,167.657Z" transform="translate(9.357 17.988)" fill="#d48f9e" fill-rule="evenodd"/>
        <path id="Path_1408" data-name="Path 1408" d="M139.22,221.313s2.685-1.609,4.439-.743-1.753,9.11-5.959,8.2-3.95-8.311-3.507-9.621S138.277,219.3,139.22,221.313Z" transform="translate(14.689 23.976)" fill="#a75268" fill-rule="evenodd"/>
        <path id="Path_1409" data-name="Path 1409" d="M142.038,223.205s3.1.433,3.928,2.219-7.068,6-9.776,2.674,2.119-8.955,3.329-9.7S142.571,221.052,142.038,223.205Z" transform="translate(14.845 23.938)" fill="#c37584" fill-rule="evenodd"/>
        <path id="Path_1410" data-name="Path 1410" d="M140.358,222.007s2.985-.921,4.439.333-3.862,8.433-7.768,6.558-1.864-9.01-1.11-10.187S139.925,219.821,140.358,222.007Z" transform="translate(14.772 23.948)" fill="#d48f9e" fill-rule="evenodd"/>
        <path id="Path_1411" data-name="Path 1411" d="M235.305,33.27a13.817,13.817,0,0,0-1.92.488,15.458,15.458,0,0,0-3.961,1.853c-3.762,2.541-4.993,6.3-3.917,10.686a.732.732,0,0,0,.743.566c4.505-.166,7.768-2.375,9.21-6.658a15.446,15.446,0,0,0,.721-4.283,13.787,13.787,0,0,0-.055-1.975.732.732,0,0,0-.854-.644Z" transform="translate(24.687 3.648)" fill="#9fbbc1" fill-rule="evenodd"/>
        <path id="Path_1412" data-name="Path 1412" d="M250.081,19.283h0a3.928,3.928,0,0,0-5.548,0L242.9,20.915l-1.631-1.631a3.928,3.928,0,0,0-5.548,0h0a3.928,3.928,0,0,0,0,5.548,3.928,3.928,0,0,0-5.548,0h0a3.928,3.928,0,0,0,0,5.548l1.631,1.631-1.631,1.631a3.928,3.928,0,0,0,0,5.548h0a3.928,3.928,0,0,0,5.548,0,3.928,3.928,0,0,0,0,5.548h0a3.928,3.928,0,0,0,5.548,0l1.631-1.631,1.631,1.576a3.928,3.928,0,0,0,5.548,0h0a3.928,3.928,0,0,0,0-5.548,3.928,3.928,0,0,0,5.548,0h0a3.928,3.928,0,0,0,0-5.548L254,31.956l1.631-1.6a3.928,3.928,0,0,0,0-5.548h0a3.928,3.928,0,0,0-5.548,0,3.928,3.928,0,0,0,0-5.526Z" transform="translate(25.114 1.989)" fill="#d48f9e" fill-rule="evenodd"/>
        <circle id="Ellipse_648" data-name="Ellipse 648" cx="2.685" cy="2.685" r="2.685" transform="translate(265.352 31.281)" fill="#fff"/>
        <path id="Path_1413" data-name="Path 1413" d="M238.1,34.928a.612.612,0,0,1,.866.866l-1.886,1.886a.612.612,0,0,1-.866-.866Zm4.927,4.749a.61.61,0,1,1-1.221,0V36.97a.616.616,0,1,1,1.232,0v2.708Zm0-13.649a.616.616,0,1,1-1.232,0V23.321a.616.616,0,1,1,1.232,0V26Zm5.548,10.819a.612.612,0,0,1-.866.866l-1.886-1.886a.612.612,0,0,1,.866-.866Zm-9.643-9.654a.612.612,0,1,1-.866.866l-1.809-1.92a.612.612,0,1,1,.866-.866l1.886,1.886Zm11.607,3.7a.616.616,0,1,1,0,1.232h-2.63a.616.616,0,0,1,0-1.232Zm-13.649,0a.616.616,0,0,1,0,1.232h-2.63a.616.616,0,0,1,0-1.232ZM247.71,25.34a.612.612,0,0,1,.866.866l-1.886,1.886a.612.612,0,0,1-.866-.866Z" transform="translate(25.621 2.49)" fill="#e8bfc5" fill-rule="evenodd"/>
        <path id="Path_1414" data-name="Path 1414" d="M228.724,25.157h0a2.219,2.219,0,0,0-2.941.777l-.633,1.11-1.11-.633a2.219,2.219,0,0,0-2.941.777h0a2.219,2.219,0,0,0,.777,2.941,2.219,2.219,0,0,0-2.941.777h0a2.219,2.219,0,0,0,.777,2.941l1.11.633-.633,1.11a2.153,2.153,0,0,0,.777,2.941h0a2.219,2.219,0,0,0,2.941-.777,2.219,2.219,0,0,0,.777,2.941h0a2.219,2.219,0,0,0,2.941-.777l.633-1.11,1.11.633a2.219,2.219,0,0,0,2.941-.777h0a2.219,2.219,0,0,0-.777-2.941,2.219,2.219,0,0,0,2.941-.777h0A2.219,2.219,0,0,0,233.695,32l-1.11-.633.633-1.11a2.219,2.219,0,0,0-.777-2.941h0a2.219,2.219,0,0,0-2.941.777,2.219,2.219,0,0,0-.777-2.941Z" transform="translate(23.978 2.729)" fill="#e8bfc5" fill-rule="evenodd"/>
        <circle id="Ellipse_649" data-name="Ellipse 649" cx="1.476" cy="1.476" r="1.476" transform="matrix(0.967, -0.256, 0.256, 0.967, 248.884, 34.613)" fill="#fff"/>
        <path id="Path_1415" data-name="Path 1415" d="M224.558,35.024a.341.341,0,0,1,.588.344l-.743,1.265a.341.341,0,1,1-.588-.344Zm3.329,1.809a.338.338,0,0,1-.655.166l-.377-1.42a.339.339,0,1,1,.655-.178l.377,1.42Zm-1.92-7.257a.339.339,0,1,1-.655.178l-.377-1.42a.339.339,0,0,1,.655-.178Zm4.439,4.971a.336.336,0,1,1-.344.577L228.8,34.38a.336.336,0,1,1,.344-.577Zm-6.492-3.773a.336.336,0,0,1-.344.577l-1.265-.743a.341.341,0,0,1,.344-.588l1.265.743Zm6.658.333a.339.339,0,0,1,.178.655l-1.42.377a.338.338,0,0,1-.166-.655l1.42-.377Zm-7.257,1.92a.339.339,0,0,1,.178.655l-1.42.377a.339.339,0,0,1-.178-.655Zm4.971-4.439a.341.341,0,0,1,.588.344l-.743,1.265a.341.341,0,0,1-.588-.344Z" transform="translate(24.305 3.06)" fill="#d48f9e" fill-rule="evenodd"/>
        <path id="Path_1416" data-name="Path 1416" d="M256.227,25.157h0a2.219,2.219,0,0,1,2.941.777l.632,1.11,1.11-.633a2.219,2.219,0,0,1,2.941.777h0a2.153,2.153,0,0,1-.777,2.941,2.219,2.219,0,0,1,2.941.777h0a2.219,2.219,0,0,1-.777,2.941l-1.11.633.633,1.11a2.219,2.219,0,0,1-.777,2.941h0a2.153,2.153,0,0,1-2.941-.777,2.219,2.219,0,0,1-.777,2.941h0a2.219,2.219,0,0,1-2.941-.777l-.632-1.11-1.11.633a2.219,2.219,0,0,1-2.941-.777h0a2.219,2.219,0,0,1,.777-2.941,2.219,2.219,0,0,1-2.941-.777h0A2.153,2.153,0,0,1,251.256,32l1.11-.632-.633-1.11a2.153,2.153,0,0,1,.777-2.941h0a2.219,2.219,0,0,1,2.941.777,2.219,2.219,0,0,1,.777-2.941Z" transform="translate(27.435 2.729)" fill="#e8bfc5" fill-rule="evenodd"/>
        <circle id="Ellipse_650" data-name="Ellipse 650" cx="1.476" cy="1.476" r="1.476" transform="matrix(0.256, -0.967, 0.967, 0.256, 283.866, 36.695)" fill="#fff"/>
        <path id="Path_1417" data-name="Path 1417" d="M259.717,35.024a.341.341,0,0,0-.588.344l.743,1.265a.341.341,0,0,0,.588-.344Zm-3.329,1.809a.338.338,0,1,0,.655.166l.377-1.42a.339.339,0,0,0-.655-.178l-.322,1.487Zm1.92-7.257a.339.339,0,1,0,.655.178l.377-1.42a.339.339,0,1,0-.655-.178Zm-4.439,4.971a.336.336,0,0,0,.344.577l1.265-.743a.336.336,0,0,0-.344-.577Zm6.491-3.773a.34.34,0,0,0,.377.566L262,30.6a.341.341,0,1,0-.344-.588l-1.265.743Zm-6.658.333a.339.339,0,0,0-.178.655l1.42.377a.339.339,0,0,0,.178-.655Zm7.257,1.92a.339.339,0,1,0-.178.655l1.42.377a.339.339,0,1,0,.178-.655Zm-4.971-4.439a.341.341,0,1,0-.588.344l.743,1.265a.341.341,0,0,0,.588-.344Z" transform="translate(27.773 3.06)" fill="#d48f9e" fill-rule="evenodd"/>
        <path id="Path_1418" data-name="Path 1418" d="M275.531,91.741c26.909-1.864,15.435,19.364,21.35,45.729,11.574,51.688,70.885,128.077,9.01,188.642s-72.072-68.077-72.072-68.077L231.6,245.573s11.507-38.35,9.909-80.539S239.29,102.716,254.936,99.2,275.531,91.741,275.531,91.741Z" transform="translate(25.396 10.047)" fill="#e3e1f1" fill-rule="evenodd"/>
        <path id="Path_1419" data-name="Path 1419" d="M242.561,143.15l-6.491,14.9,1.476,27.42,9.377-15.668,5.826-10.93S248.642,145.281,242.561,143.15Z" transform="translate(25.887 15.697)" fill="#e6b5a3" fill-rule="evenodd"/>
        <path id="Path_1420" data-name="Path 1420" d="M236.969,154.72l-.9,2.053,1.476,27.42,5.881-9.82Z" transform="translate(25.887 16.966)" fill="#d2887a" fill-rule="evenodd"/>
        <path id="Path_1421" data-name="Path 1421" d="M217.019,366.06s1.4,5.337,1.476,5.748-6.07,3.651-6.07,3.651l-3.8-1.52.61-6.824Z" transform="translate(22.878 40.141)" fill="#d2887a" fill-rule="evenodd"/>
        <path id="Path_1422" data-name="Path 1422" d="M176.976,367.28s-1.4,5.337-1.476,5.748,6.07,3.651,6.07,3.651l3.229-2.7v-5.648Z" transform="translate(19.245 40.275)" fill="#d2887a" fill-rule="evenodd"/>
        <path id="Path_1423" data-name="Path 1423" d="M183.882,129.7a7.368,7.368,0,0,0-3.518,3.429c-1.11,2.419-17.244,24.834-17.244,24.834l7.634,11.884,13.9-12.206S190.617,139.8,183.882,129.7Z" transform="translate(17.887 14.222)" fill="#f4f4f9" fill-rule="evenodd"/>
        <path id="Path_1424" data-name="Path 1424" d="M227.115,198.018l-1.72,3.229-2.785-7.357,3.806,1.487Z" transform="translate(24.411 21.261)" fill="#e4b5a1" fill-rule="evenodd"/>
        <path id="Path_1425" data-name="Path 1425" d="M222.27,197.734s.677,2.963,2.375,3.984,2.386,4.028,2.386,4.028l1.11-1.265s3.451,1.365,4.283-1,4.572-10.42,6.547-14.426,2.352-11.651,1.72-16.1-7.934-34.921-10.065-37.351a32.424,32.424,0,0,0-6.159-4.9s-1.32,8.533-.977,12.828,1.276,21.694,1.276,21.694-1.343,5.271-.2,6.736,1.587-.455,1.587-.455l1.6,2.93s-.921.832-.9,1.254a3.329,3.329,0,0,0,.411,1.11L223,183.4Z" transform="translate(24.373 14.332)" fill="#f4f4f9" fill-rule="evenodd"/>
        <path id="Path_1426" data-name="Path 1426" d="M223.518,190.163s6.392,9.8,7.424,32.446-4.76,73.237-4.649,81.482-1.276,40.014-2.53,48.1-3.5,32.79-3.961,34.4-1.276,1.676-2.475,1.875-6.958,0-8.345-.8-1.11-67.689-1.753-81.26-2.463-65.725-3.329-68.887-4.649-39.814-4.439-46.506S223.518,190.163,223.518,190.163Z" transform="translate(21.871 20.594)" fill="#443e71" fill-rule="evenodd"/>
        <path id="Path_1427" data-name="Path 1427" d="M227.18,170.228s3.751-1.431,6.369-.178" transform="translate(24.912 18.591)" fill="none" stroke="#c8c4e1" stroke-linecap="round" stroke-linejoin="round" stroke-width="0.71" fill-rule="evenodd"/>
        <path id="Path_1428" data-name="Path 1428" d="M226.74,172.27s4.8.089,5.759,1.742" transform="translate(24.863 18.89)" fill="none" stroke="#c8c4e1" stroke-linecap="round" stroke-linejoin="round" stroke-width="0.71" fill-rule="evenodd"/>
        <path id="Path_1429" data-name="Path 1429" d="M233.8,192.089s3.04-8.145,2.774-14.059" transform="translate(25.638 19.522)" fill="none" stroke="#c8c4e1" stroke-linecap="round" stroke-linejoin="round" stroke-width="0.71" fill-rule="evenodd"/>
        <line id="Line_17" data-name="Line 17" x1="5.792" y1="13.005" transform="translate(257.673 166.837)" fill="none" stroke="#c8c4e1" stroke-linecap="round" stroke-linejoin="round" stroke-width="0.71"/>
        <path id="Path_1430" data-name="Path 1430" d="M223.512,190.161s2.219,3.329,4.217,10.708c-8.478,4.317-18.365,5.06-27.364,4.317-.555-6.458-.921-11.929-.843-14.137C199.754,184.357,223.512,190.161,223.512,190.161Z" transform="translate(21.878 20.596)" fill="#383260" fill-rule="evenodd"/>
        <path id="Path_1431" data-name="Path 1431" d="M215.3,193.6s-6.48,34.9-12.362,74.935-5.182,42.655-6.869,54.562-10.209,64.981-10.475,66.069-8.444,2.219-10.664.155c0,0-.71-.477-.755-3.329s3.606-67.878,4.095-71.018-9.221-77.01,7.668-122.129C185.942,192.848,209.678,185.58,215.3,193.6Z" transform="translate(19.1 20.816)" fill="#443e71" fill-rule="evenodd"/>
        <path id="Path_1432" data-name="Path 1432" d="M214.4,193.6s-.788,4.25-2.064,11.474c-11.485.766-22.892-1.864-29.961-4.006.81-2.83,1.709-5.548,2.708-8.223C185.043,192.848,208.779,185.58,214.4,193.6Z" transform="translate(19.999 20.816)" fill="#383260" fill-rule="evenodd"/>
        <path id="Path_1433" data-name="Path 1433" d="M226.078,172.47s3.873.067,4.938,1.465a1.254,1.254,0,0,1-.089,1.387l-.266.2s.965,1.642,1.165,2.153a9.586,9.586,0,0,1,.51,2.63c0,.522-.61.055-.61.055l.233,1.232s-.055.466-.366.6-.954-.422-1.176-.721a13.554,13.554,0,0,1-.732-1.5s-.51.311-.866.067a10.442,10.442,0,0,0-2.219-1.509,5.438,5.438,0,0,0-2.5.411s-.655-.444-.355-2.463A8.533,8.533,0,0,1,226.078,172.47Z" transform="translate(24.527 18.912)" fill="#e6b5a3" fill-rule="evenodd"/>
        <path id="Path_1434" data-name="Path 1434" d="M226.082,172.47a14.957,14.957,0,0,1,2.3.255,5.981,5.981,0,0,0-.91,1.62c-.133.6-.422,2.885-.588,4.317a1.408,1.408,0,0,0-.322-.122,5.381,5.381,0,0,0-1.82.166,4.039,4.039,0,0,1-1.11-1.3,6.9,6.9,0,0,1,.078-.932A8.544,8.544,0,0,1,226.082,172.47Z" transform="translate(24.522 18.912)" fill="#d2887a" fill-rule="evenodd"/>
        <path id="Path_1435" data-name="Path 1435" d="M200.264,123.82s-16.023,5.082-18.431,6.525c1.52,1.787,3.8,18.332.743,27.886,0,0,2.219,17.322,2.219,19.763s-3.074,17.521-2.985,19.386a30.017,30.017,0,0,0,1.565,5.914,71.6,71.6,0,0,0,24.9,6.381c14.426,1.11,21.083-3.063,22.959-6.17s-1.6-21.66-.71-25.644,3.773-17.089,3.651-19.9-3.551-24.412-4.206-25.522-14.492-7.4-14.492-7.4Z" transform="translate(19.936 13.578)" fill="#fff" fill-rule="evenodd"/>
        <path id="Path_1436" data-name="Path 1436" d="M179.493,113.346l-9.676-1.332s-.466-.189-.51-.133c-6.736,7.268-2.219,18.254-4.971,27.819-3.329,11.607-7.124,20.551-.743,29.961a6.258,6.258,0,0,0,8.023,2.042c8.489-5.548,5.326-15.3,6.569-28.962.821-9.01,7.035-18.864,1.4-29.151C179.548,113.557,179.548,113.357,179.493,113.346Z" transform="translate(17.56 12.267)" fill="#fff" fill-rule="evenodd"/>
        <path id="Path_1437" data-name="Path 1437" d="M206.577,385.025s23.3.289,24.235,0,1.287-.821,1.287-2.042v-2.608c0-.91-.288-1.842-2.941-2.763s-1.809-1-3.8-1.476-3.484-6.258-3.961-6.658a8,8,0,0,0-3.329-.344c-1.431,0-3.74.089-4.439,1.909s-3.662,2.075-4.783,1.52c0,0-1.11-.089-1.343.743s-.766,6.558-.843,7.168a1.2,1.2,0,0,0,.166.888,3.33,3.33,0,0,0-.588.61,4.317,4.317,0,0,0-.133,1.3C206.144,383.893,206.077,384.98,206.577,385.025Z" transform="translate(22.601 40.473)" fill="#714360" fill-rule="evenodd"/>
        <path id="Path_1438" data-name="Path 1438" d="M230.129,378.007a7.567,7.567,0,0,0-1.986-.954,24.49,24.49,0,0,1-4.561-2.619l-7.246-.244-.133,1.387s-1.2.244-.732,1.11,1.509,2.108,4.772,2.108h8.811C230.029,378.828,230.085,378.529,230.129,378.007Z" transform="translate(23.616 41.032)" fill="#855169" fill-rule="evenodd"/>
        <path id="Path_1439" data-name="Path 1439" d="M206.573,384.976h5.437c2.719-.81,5.116-1.709,5.116-1.709s-4.55-7.035-4.294-7.69a35.5,35.5,0,0,1,3.484-3.828s-.466-.954-1.11-2.219a2.608,2.608,0,0,0-1.531,1.5c-.7,1.82-3.662,2.075-4.783,1.52,0,0-1.11-.089-1.343.743s-.766,6.558-.843,7.168a1.2,1.2,0,0,0,.166.888,3.331,3.331,0,0,0-.588.61,4.316,4.316,0,0,0-.133,1.3C206.14,383.845,206.073,384.932,206.573,384.976Z" transform="translate(22.605 40.521)" fill="#855169" fill-rule="evenodd"/>
        <path id="Path_1440" data-name="Path 1440" d="M225.392,376.752c-.144,0-.255-.866-.255-.866s-4.006-6-4.439-6.358a8,8,0,0,0-3.329-.344,6.1,6.1,0,0,0-3.651.843h0c-2.131,1.8,1.187,4.217,2.574,5.981C216.9,376.819,222.441,376.874,225.392,376.752Z" transform="translate(23.359 40.478)" fill="#643954" fill-rule="evenodd"/>
        <path id="Path_1441" data-name="Path 1441" d="M230.82,380.348c-.8.255-22.459,0-23.957,0s-.5.411-.588.61a4.316,4.316,0,0,0-.133,1.3c0,.566-.067,1.653.444,1.7,0,0,23.3.289,24.235,0s1.287-.821,1.287-2.042V378.85a1.576,1.576,0,0,1-1.287,1.5Z" transform="translate(22.592 41.543)" fill="#fff" fill-rule="evenodd"/>
        <path id="Path_1442" data-name="Path 1442" d="M188.332,385.025s-23.3.289-24.235,0-1.287-.821-1.287-2.042v-2.608c0-.91.288-1.842,2.941-2.763s1.809-1,3.8-1.476,3.484-6.258,3.961-6.658a7.989,7.989,0,0,1,3.329-.344c1.431,0,3.74.089,4.439,1.909s3.662,2.075,4.783,1.52c0,0,1.11-.089,1.343.743s.766,6.558.843,7.168a1.2,1.2,0,0,1-.166.888,3.33,3.33,0,0,1,.588.61,4.3,4.3,0,0,1,.133,1.3C188.776,383.893,188.831,384.98,188.332,385.025Z" transform="translate(17.853 40.473)" fill="#714360" fill-rule="evenodd"/>
        <path id="Path_1443" data-name="Path 1443" d="M163.67,378.007a7.557,7.557,0,0,1,1.986-.954,24.49,24.49,0,0,0,4.561-2.619l7.246-.244.133,1.387s1.2.244.732,1.11-1.509,2.108-4.772,2.108h-8.811C163.77,378.828,163.714,378.529,163.67,378.007Z" transform="translate(17.947 41.032)" fill="#855169" fill-rule="evenodd"/>
        <path id="Path_1444" data-name="Path 1444" d="M186.853,384.976h-5.437c-2.719-.81-5.116-1.709-5.116-1.709s4.55-7.035,4.294-7.69a35.5,35.5,0,0,0-3.484-3.828s.466-.954,1.11-2.219a2.608,2.608,0,0,1,1.531,1.5c.7,1.82,3.662,2.075,4.783,1.52,0,0,1.11-.089,1.343.743s.777,6.558.843,7.168a1.2,1.2,0,0,1-.166.888,3.328,3.328,0,0,1,.588.61,4.328,4.328,0,0,1,.133,1.3C187.3,383.845,187.352,384.932,186.853,384.976Z" transform="translate(19.332 40.521)" fill="#855169" fill-rule="evenodd"/>
        <path id="Path_1445" data-name="Path 1445" d="M168.18,376.752c.144,0,.255-.866.255-.866s4.006-6,4.439-6.358a7.991,7.991,0,0,1,3.329-.344,6.1,6.1,0,0,1,3.651.843h0c2.131,1.8-1.187,4.217-2.574,5.981C176.669,376.819,171.132,376.875,168.18,376.752Z" transform="translate(18.442 40.478)" fill="#643954" fill-rule="evenodd"/>
        <path id="Path_1446" data-name="Path 1446" d="M164.127,380.348c.8.255,22.459,0,23.957,0s.5.411.588.61a4.3,4.3,0,0,1,.133,1.3c0,.566.067,1.653-.444,1.7,0,0-23.3.289-24.235,0s-1.287-.821-1.287-2.042V378.85a1.576,1.576,0,0,0,1.287,1.5Z" transform="translate(17.856 41.543)" fill="#fff" fill-rule="evenodd"/>
        <path id="Path_1447" data-name="Path 1447" d="M177.37,135.1s-1.975,8.444-1.265,14.559" transform="translate(19.294 14.815)" fill="none" stroke="#c8c4e1" stroke-linecap="round" stroke-linejoin="round" stroke-width="0.71" fill-rule="evenodd"/>
        <path id="Path_1448" data-name="Path 1448" d="M176.17,141.62s1.587,2.774,2.341,3.74" transform="translate(19.318 15.53)" fill="none" stroke="#c8c4e1" stroke-linecap="round" stroke-linejoin="round" stroke-width="0.71" fill-rule="evenodd"/>
        <path id="Path_1449" data-name="Path 1449" d="M164.65,133s.122,11.751.233,17.755" transform="translate(18.055 14.584)" fill="none" stroke="#c8c4e1" stroke-linecap="round" stroke-linejoin="round" stroke-width="0.71" fill-rule="evenodd"/>
        <path id="Path_1450" data-name="Path 1450" d="M173.91,163.594a133.48,133.48,0,0,1,6.314-12.084" transform="translate(19.07 16.614)" fill="none" stroke="#c8c4e1" stroke-linecap="round" stroke-linejoin="round" stroke-width="0.71" fill-rule="evenodd"/>
        <path id="Path_1451" data-name="Path 1451" d="M175.229,114.74a19.83,19.83,0,0,1-.6,14.98" transform="translate(19.149 12.582)" fill="none" stroke="#c8c4e1" stroke-linecap="round" stroke-linejoin="round" stroke-width="0.71" fill-rule="evenodd"/>
        <path id="Path_1452" data-name="Path 1452" d="M171.5,112.9a26.165,26.165,0,0,0-2.441,8.822" transform="translate(18.538 12.38)" fill="none" stroke="#c8c4e1" stroke-linecap="round" stroke-linejoin="round" stroke-width="0.71" fill-rule="evenodd"/>
        <path id="Path_1453" data-name="Path 1453" d="M188.978,197.49s-2.008,9-8.278,9.321" transform="translate(19.815 21.656)" fill="none" stroke="#383260" stroke-linecap="round" stroke-linejoin="round" stroke-width="0.71" fill-rule="evenodd"/>
        <path id="Path_1454" data-name="Path 1454" d="M222.48,198.87s1.653,6.4,4.239,7.4" transform="translate(24.396 21.807)" fill="none" stroke="#383260" stroke-linecap="round" stroke-linejoin="round" stroke-width="0.71" fill-rule="evenodd"/>
        <path id="Path_1455" data-name="Path 1455" d="M203.87,240.158s3.329-26.9,4.239-38.838" transform="translate(22.356 22.076)" fill="none" stroke="#383260" stroke-linecap="round" stroke-linejoin="round" stroke-width="0.71" fill-rule="evenodd"/>
        <path id="Path_1456" data-name="Path 1456" d="M211.778,201.31s-2.008,19.707-2.452,21.083-4.006,4.361-4.006,4.361" transform="translate(22.515 22.075)" fill="none" stroke="#383260" stroke-linecap="round" stroke-linejoin="round" stroke-width="0.71" fill-rule="evenodd"/>
        <path id="Path_1457" data-name="Path 1457" d="M181.71,112.557c1.676-2.053,4.982-2.907,5.748-3.14,1.021-.311-.788-4.261-3.862-1.565,0,0-2.508.943-2.885.166s3.839-11.84,4.361-13.016a1.309,1.309,0,0,0-1.11-1.909c-.477.111-1.21,1.82-2.219,3.928a29,29,0,0,1-2.541,4.55c-.266.1-.688-.178-.5-1.565s1.443-9.01,1.11-9.643-1.531-.666-2.031.422-1.509,8.877-1.92,9.787-1.176.388-1.265-.333,0-9.255-.333-9.854-1.52-.588-1.775.677-.588,9.443-.9,9.987-1.11.488-1.687-.988-1.409-4.683-1.764-4.949-1.576.688-1.254,2.319.988,5.7,1.01,6.314c.155,3.262-.522,6.292-.078,8.822a6.347,6.347,0,0,0,1.11,2.552C172.766,120.524,178.437,116.574,181.71,112.557Z" transform="translate(18.294 9.86)" fill="#e6b5a3" fill-rule="evenodd"/>
        <path id="Path_1458" data-name="Path 1458" d="M319.907,368a3.018,3.018,0,0,1,3.063,1.343c.9,1.709-1.542,2.885-1.542,2.885a2,2,0,0,1,.533,2.075,1.165,1.165,0,0,1-1.6.533s2.219,4.028-3.95,4.061c0,0,.277,2.463-3.085,1.964,0,0-.732,5.382-6.958,3.418a3.518,3.518,0,0,1-4.261,2.3c-3.329-.732-4.938-6.059-4.938-6.059Z" transform="translate(32.587 40.349)" fill="#c8c4e1" fill-rule="evenodd"/>
        <path id="Path_1459" data-name="Path 1459" d="M317.894,352.937a3.329,3.329,0,0,1,2.419.4c1.11.732.311,2.5-.2,3.107a2.707,2.707,0,0,1,.9,1.742,1.2,1.2,0,0,1-.954,1.11s2.774,5.548-2.33,8.245-7.967-6.392-7.967-6.392Z" transform="translate(33.967 38.694)" fill="#e3e1f1" fill-rule="evenodd"/>
        <path id="Path_1460" data-name="Path 1460" d="M281.246,191.34a39.4,39.4,0,0,1,3.806,3.74c22.6,27.309,14.348,63,37.029,175.326,1.21,5.981-2.02,11.552-2.02,11.552s-38.916-89.294-49.28-143.412C267.431,221.034,281.235,192.55,281.246,191.34Z" transform="translate(29.635 20.982)" fill="#fff" fill-rule="evenodd"/>
        <path id="Path_1461" data-name="Path 1461" d="M278.55,188.41c14.814,15.213,19.064,135.156,43.4,199.283,0,0,1.676,2.7-1.8,5.726s-12.45,8.522-20.407,10.1S278.55,188.41,278.55,188.41Z" transform="translate(30.545 20.66)" fill="#e3e1f1" fill-rule="evenodd"/>
        <path id="Path_1462" data-name="Path 1462" d="M286.429,107.34a47.2,47.2,0,0,0-.3,14.048c1.11,6.425,8.034,22.493-9.132,25.6s-30.416-1.11-31.425-12.65S247.4,120.057,247.4,111.4Z" transform="translate(26.905 11.771)" fill="#383260" fill-rule="evenodd"/>
        <path id="Path_1463" data-name="Path 1463" d="M210.623,368a3.018,3.018,0,0,0-3.074,1.343c-.9,1.709,1.542,2.885,1.542,2.885a2,2,0,0,0-.533,2.075,1.165,1.165,0,0,0,1.6.533s-2.219,4.028,3.95,4.061c0,0-.277,2.463,3.085,1.964,0,0,.732,5.382,6.958,3.418a3.518,3.518,0,0,0,4.261,2.3c3.329-.732,4.938-6.059,4.938-6.059Z" transform="translate(22.737 40.349)" fill="#c8c4e1" fill-rule="evenodd"/>
        <path id="Path_1464" data-name="Path 1464" d="M211.178,352.937a3.329,3.329,0,0,0-2.419.4c-1.11.732-.311,2.5.2,3.107a2.708,2.708,0,0,0-.9,1.742,1.2,1.2,0,0,0,.954,1.11s-2.774,5.548,2.33,8.245,7.967-6.392,7.967-6.392Z" transform="translate(22.815 38.694)" fill="#e3e1f1" fill-rule="evenodd"/>
        <path id="Path_1465" data-name="Path 1465" d="M251.862,191.34a39.361,39.361,0,0,0-3.806,3.74c-22.6,27.309-14.337,63-37.029,175.326-1.21,5.981,2.02,11.552,2.02,11.552s38.916-89.294,49.28-143.412C265.677,221.034,251.873,192.55,251.862,191.34Z" transform="translate(23.111 20.982)" fill="#fff" fill-rule="evenodd"/>
        <path id="Path_1466" data-name="Path 1466" d="M253.739,188.41c-14.814,15.213-19.064,135.156-43.4,199.283,0,0-1.687,2.7,1.8,5.726s12.45,8.522,20.407,10.1S253.739,188.41,253.739,188.41Z" transform="translate(23.02 20.66)" fill="#e3e1f1" fill-rule="evenodd"/>
        <path id="Path_1467" data-name="Path 1467" d="M309.5,387.109l2.541-.4s2.73.6,3.74,1.975.621,5.892-5.16,4.539a2.752,2.752,0,0,1-4.15,1.742s-1.964,6.725-10.264,2.519a5.027,5.027,0,0,1-5.948.9,7.124,7.124,0,0,1-6.78,1.742,2.563,2.563,0,0,1-2.131,1.454c-1.4,0-1.4-.621-1.4-.621s-2.519,2.219-6.225-.621a8.322,8.322,0,0,1-10.1,0c-3.7,2.807-6.225.621-6.225.621s0,.566-1.4.621a2.563,2.563,0,0,1-2.131-1.454,7.124,7.124,0,0,1-6.78-1.742,5.016,5.016,0,0,1-5.948-.9c-8.3,4.206-10.264-2.519-10.264-2.519a2.752,2.752,0,0,1-4.15-1.742c-5.781,1.343-6.17-3.174-5.16-4.539s3.74-1.975,3.74-1.975l2.541.4,40.846,7.168Z" transform="translate(24.249 42.405)" fill="#e3e1f1" fill-rule="evenodd"/>
        <path id="Path_1468" data-name="Path 1468" d="M289.38,158.28c.333,1,.61,1.964.821,2.841,1.454,6.17-2.918,15.136-4.039,17.755a68.893,68.893,0,0,0-2.43,8.755H249.066a69.275,69.275,0,0,0-2.43-8.755c-1.11-2.586-5.548-11.552-4.039-17.755.2-.832.455-1.731.766-2.663h0a34.977,34.977,0,0,0-1.443-14.869,5.637,5.637,0,0,1,2.064-1.11l9.144-3.329h.178c11.341,21.982,14.736,22.038,25.955.355l9.832,2.574a9.256,9.256,0,0,1,1.975.832A34.621,34.621,0,0,0,289.38,158.28Z" transform="translate(26.528 15.259)" fill="#fff" fill-rule="evenodd"/>
        <path id="Path_1469" data-name="Path 1469" d="M285.612,182.8c-.91,4.061-1.565,8.067-1.01,8.766,7.634,9.488,10.5,141.5,27.1,217.038a3.018,3.018,0,0,1-1.11,2.219c-1.11.843-15.779,7.457-42.356,7.512s-41.29-6.658-42.356-7.512a3.018,3.018,0,0,1-1.11-2.219c16.645-75.534,19.463-207.506,27.1-217.038.555-.688-.1-4.7-1.01-8.766Z" transform="translate(24.647 20.045)" fill="#fff" fill-rule="evenodd"/>
        <path id="Path_1470" data-name="Path 1470" d="M266.213,174.61h-1.5c-1.343,0-11.407,4.061-17.932,1.2a1.431,1.431,0,0,0-.233.61c0,.255,1.764,10.109,1.709,10.886s-4.439,8.611-4.439,9.055,5.382,6.17,12.728,7.679a3.107,3.107,0,0,0,3.118-1.565c1.287-1.964,3.873-6.114,4.439-7.124a2.3,2.3,0,0,1,4.217,0c.61,1.01,3.2,5.16,4.439,7.124a3.107,3.107,0,0,0,3.118,1.565c7.346-1.509,12.783-7.235,12.728-7.679s-4.439-8.267-4.439-9.055,1.709-10.642,1.709-10.886a1.431,1.431,0,0,0-.233-.61c-6.514,2.863-16.589-1.2-17.932-1.2Z" transform="translate(26.736 19.147)" fill="#a75268" fill-rule="evenodd"/>
        <path id="Path_1471" data-name="Path 1471" d="M259.857,136.5l-1.365.777a2.375,2.375,0,0,1-1.853,1.354c-1.542.355-4.439.777-4.439.777v6.525a13.127,13.127,0,0,0,13.094,13.094h0a13.127,13.127,0,0,0,13.094-13.094v-6.081l-4.96-1.3h0a2.219,2.219,0,0,1-1.4-1.221l-1.365-.777-5.415.755Z" transform="translate(27.655 14.968)" fill="#e6b5a3" fill-rule="evenodd"/>
        <path id="Path_1472" data-name="Path 1472" d="M272.472,138.631a2.375,2.375,0,0,1-1.853-1.354l-1.365-.777-3.884.544Z" transform="translate(29.1 14.968)" fill="#d2887a" fill-rule="evenodd"/>
        <path id="Path_1473" data-name="Path 1473" d="M264.893,124h-.178a7.069,7.069,0,0,0-7.135,6.969l-.1,11.163a7.08,7.08,0,0,0,6.969,7.135h.133a7.068,7.068,0,0,0,7.135-6.969l.1-11.163A7.08,7.08,0,0,0,264.893,124Z" transform="translate(28.234 13.597)" fill="#e6b5a3" fill-rule="evenodd"/>
        <path id="Path_1474" data-name="Path 1474" d="M258.365,127.662a6.947,6.947,0,0,0-.755,3.107v5.482l14.215,3.174.078-8.5a6.991,6.991,0,0,0-.144-1.476c-3.329-1.409-8.056-3.329-8.3-3.329S260.429,126.952,258.365,127.662Z" transform="translate(28.249 13.83)" fill="#d2887a" fill-rule="evenodd"/>
        <circle id="Ellipse_651" data-name="Ellipse 651" cx="3.662" cy="3.662" r="3.662" transform="translate(273.453 129.386)" fill="#d2887a"/>
        <circle id="Ellipse_652" data-name="Ellipse 652" cx="3.662" cy="3.662" r="3.662" transform="translate(305.178 129.419)" fill="#d2887a"/>
        <path id="Path_1475" data-name="Path 1475" d="M265.331,95.82h0c-8.788.1-15.9,7-15.79,15.324l.178,13.76c0,3.507,7.179,14.27,14.625,14.792,8.478.588,17.4-10.364,17.344-15.169l-.178-13.76C281.409,102.445,274.119,95.709,265.331,95.82Z" transform="translate(27.364 10.507)" fill="#e6b5a3" fill-rule="evenodd"/>
        <path id="Path_1476" data-name="Path 1476" d="M279.473,104.944a4.017,4.017,0,0,0-1.11-1.665h0c-2.375-2.319-7.612-4.749-9.654-4.749s-7.268,9.832-3.54,6.469,8.811,1.11,8.811,1.11-1.4,8.045,4.028,9.066c0,0-.266,6.2,2.1,6.392,0,0,.932-3.251,2.375-1.975l-3.407-13.5a7.537,7.537,0,0,1,.4-1.143Z" transform="translate(28.934 10.804)" fill="#383260" fill-rule="evenodd"/>
        <circle id="Ellipse_653" data-name="Ellipse 653" cx="2.242" cy="2.242" r="2.242" transform="translate(299.345 133.898) rotate(-1.54)" fill="#d2887a"/>
        <circle id="Ellipse_654" data-name="Ellipse 654" cx="2.242" cy="2.242" r="2.242" transform="translate(281.411 134.413) rotate(-1.54)" fill="#d2887a"/>
        <path id="Path_1477" data-name="Path 1477" d="M272.856,112.757a4.561,4.561,0,0,0-4.194-.078.477.477,0,1,1-.444-.843,5.548,5.548,0,0,1,5.093.1.477.477,0,1,1-.466.832Z" transform="translate(29.381 12.201)" fill="#383260" fill-rule="evenodd"/>
        <path id="Path_1478" data-name="Path 1478" d="M275.83,107.473c-1.886-10.974-6.192-4.439-8.4,1.032-1.809,4.516-6.469,10.52-17.488,10.52a5.826,5.826,0,0,1-2.741-5.337v-11.1c0-2.907,4.317-13.6,12.55-15.613A20.384,20.384,0,0,1,276.4,90.595c1.509,1.309,3.617,6.525,3.617,6.525,9.155.888,6.924,8.633,5.371,16.645-.3,1.554-3.507,7.7-3.507,7.7C281.467,117.4,281.09,102.3,275.83,107.473Z" transform="translate(27.106 9.485)" fill="#383260" fill-rule="evenodd"/>
        <path id="Path_1479" data-name="Path 1479" d="M247.2,105.672V103.8c4.993,0,19.319-1.42,20.407-16.967a20.584,20.584,0,0,1,8.711,3.74c-2.685,4.583-7.768,11.474-15.224,14.2A22.515,22.515,0,0,1,247.2,105.672Z" transform="translate(27.107 9.521)" fill="#443e71" fill-rule="evenodd"/>
        <path id="Path_1480" data-name="Path 1480" d="M268.34,191.427a.633.633,0,0,1-.61,1.11l-3.329-1.92-3.307,1.92a.633.633,0,1,1-.61-1.11l2.7-1.565-2.708-1.565a.633.633,0,1,1,.61-1.11l3.329,1.92,3.329-1.92a.636.636,0,0,1,.621,1.11l-2.708,1.565Z" transform="translate(28.526 20.517)" fill="#c8c4e1" fill-rule="evenodd"/>
        <path id="Path_1481" data-name="Path 1481" d="M268.342,187.667a.633.633,0,0,1-.61,1.11l-3.329-1.92-3.329,1.92a.633.633,0,0,1-.61-1.11l2.7-1.565-2.708-1.565a.633.633,0,0,1,.61-1.11l3.329,1.92,3.329-1.92a.636.636,0,0,1,.621,1.11l-2.708,1.565Z" transform="translate(28.524 20.105)" fill="#fff" fill-rule="evenodd"/>
        <path id="Path_1482" data-name="Path 1482" d="M268.342,183.867a.633.633,0,0,1-.61,1.11l-3.329-1.92-3.329,1.92a.633.633,0,0,1-.61-1.11l2.7-1.565-2.708-1.565a.633.633,0,0,1,.61-1.11l3.329,1.92,3.329-1.92a.636.636,0,0,1,.621,1.11l-2.708,1.531Z" transform="translate(28.524 19.688)" fill="#c8c4e1" fill-rule="evenodd"/>
        <path id="Path_1483" data-name="Path 1483" d="M268.342,180.077a.633.633,0,0,1-.61,1.11l-3.329-1.92-3.329,1.92a.633.633,0,1,1-.61-1.11l2.7-1.565-2.708-1.565a.633.633,0,0,1,.61-1.11l3.329,1.92,3.329-1.92a.636.636,0,0,1,.621,1.11l-2.708,1.565Z" transform="translate(28.524 19.273)" fill="#fff" fill-rule="evenodd"/>
        <path id="Path_1484" data-name="Path 1484" d="M270.675,114.8h0a1.553,1.553,0,0,1,.988.355.633.633,0,0,0,.422-.322.248.248,0,1,1,.444.222,1.11,1.11,0,0,1-.51.477h0a1.109,1.109,0,0,0,.644-.4.249.249,0,0,1,.388.311,1.609,1.609,0,0,1-.732.51h0a1.531,1.531,0,0,0,.744-.233.249.249,0,1,1,.266.422,2,2,0,0,1-.766.289h-.344v1.931a1.565,1.565,0,0,1-1.553,1.554h0a1.565,1.565,0,0,1-1.554-1.554v-2.031a1.565,1.565,0,0,1,1.565-1.531Z" transform="translate(29.51 12.577)" fill="#383260" fill-rule="evenodd"/>
        <path id="Path_1485" data-name="Path 1485" d="M257.274,114.8h0a1.554,1.554,0,0,0-.988.355.633.633,0,0,1-.422-.322.248.248,0,1,0-.444.222,1.11,1.11,0,0,0,.51.477h0a1.11,1.11,0,0,1-.644-.4.249.249,0,0,0-.388.311,1.609,1.609,0,0,0,.732.51h0a1.52,1.52,0,0,1-.743-.233.249.249,0,1,0-.266.422,2.008,2.008,0,0,0,.766.288h.344v1.931a1.565,1.565,0,0,0,1.553,1.554h0a1.565,1.565,0,0,0,1.554-1.554v-2.031a1.565,1.565,0,0,0-1.565-1.531Z" transform="translate(27.908 12.577)" fill="#383260" fill-rule="evenodd"/>
        <path id="Path_1486" data-name="Path 1486" d="M262.165,119.932A10.421,10.421,0,0,0,261,122.151c-.055.533,1.2,1.542,1.975.588S262.975,119.233,262.165,119.932Z" transform="translate(28.62 13.138)" fill="#f0d6ca" fill-rule="evenodd"/>
        <path id="Path_1487" data-name="Path 1487" d="M268.39,125.7a.3.3,0,0,0-.255-.544,11.1,11.1,0,0,1-8.822,0,.3.3,0,0,0-.266.544,11.74,11.74,0,0,0,9.343,0Z" transform="translate(28.388 13.72)" fill="#d2887a" fill-rule="evenodd"/>
        <path id="Path_1488" data-name="Path 1488" d="M206.432,106.08h-.144c-4.206,0-7.712,3.018-7.768,6.8l-.1,10.886c0,3.784,3.329,6.913,7.568,6.958h.144c4.206,0,7.712-3.018,7.768-6.8l.1-10.886C214.033,109.254,210.648,106.113,206.432,106.08Z" transform="translate(21.758 11.632)" fill="#e6b5a3" fill-rule="evenodd"/>
        <path id="Path_1489" data-name="Path 1489" d="M198.52,115.574v4.439l14.77,7.867a7.524,7.524,0,0,0,.633-2.963L214,115.53Z" transform="translate(21.769 12.669)" fill="#d2887a" fill-rule="evenodd"/>
        <path id="Path_1490" data-name="Path 1490" d="M222.781,100.06h.388a5.193,5.193,0,1,1-4.117,1.709c.111,1.531.644,3.329,2.608,3.251l-.522-2.952a1.786,1.786,0,0,1,1.642-2.008Z" transform="translate(23.874 10.972)" fill="#d2887a" fill-rule="evenodd"/>
        <path id="Path_1491" data-name="Path 1491" d="M190.573,97.37l-.377.055h0a5.193,5.193,0,1,0,4.317,1.11c.1,1.531-.166,3.429-2.131,3.584l.111-3a1.787,1.787,0,0,0-1.92-1.753Z" transform="translate(20.395 10.677)" fill="#d2887a" fill-rule="evenodd"/>
        <path id="Path_1492" data-name="Path 1492" d="M210.043,75a17.821,17.821,0,0,0-18.021,17.455l-.222,13.027v3.129a17.753,17.753,0,0,0,.366,3.917c3.14,8.811,11.5,13.793,18.376,14.048,7.091.255,12.728-4.439,16.279-13.449a17.643,17.643,0,0,0,.5-3.895V106.1l.222-13.027A17.821,17.821,0,0,0,210.043,75Z" transform="translate(21.032 8.224)" fill="#e6b5a3" fill-rule="evenodd"/>
        <circle id="Ellipse_655" data-name="Ellipse 655" cx="2.341" cy="2.341" r="2.341" transform="translate(238.887 116.547)" fill="#d2887a"/>
        <circle id="Ellipse_656" data-name="Ellipse 656" cx="2.341" cy="2.341" r="2.341" transform="translate(220.078 116.248)" fill="#d2887a"/>
        <path id="Path_1493" data-name="Path 1493" d="M200.9,96.792a.644.644,0,0,1-.61-1.11,5.926,5.926,0,0,1,5.548-.089.655.655,0,0,1-.644,1.11A4.605,4.605,0,0,0,200.9,96.792Z" transform="translate(21.937 10.412)" fill="#383260" fill-rule="evenodd"/>
        <path id="Path_1494" data-name="Path 1494" d="M220.8,96.4a4.605,4.605,0,0,0-4.317.055.655.655,0,1,1-.688-1.11,5.926,5.926,0,0,1,5.548-.133.655.655,0,0,1-.555,1.176Z" transform="translate(23.625 10.372)" fill="#383260" fill-rule="evenodd"/>
        <path id="Path_1495" data-name="Path 1495" d="M211.744,104a9.988,9.988,0,0,1,1.576,3.14c0,.977-1.731.555-2.053,0S210.712,103.593,211.744,104Z" transform="translate(23.137 11.4)" fill="#efd4c9" fill-rule="evenodd"/>
        <path id="Path_1496" data-name="Path 1496" d="M205.755,112.389a.466.466,0,0,1,.366-.854s5.482,2.352,8.822-.122a.466.466,0,1,1,.555.743C211.725,114.963,205.777,112.4,205.755,112.389Z" transform="translate(22.535 12.204)" fill="#d2887a" fill-rule="evenodd"/>
        <path id="Path_1497" data-name="Path 1497" d="M217.44,98.95h0a1.709,1.709,0,0,0-1.709,1.576l-.111,1.642a1.587,1.587,0,0,0,1.576,1.709h0a1.709,1.709,0,0,0,1.709-1.576l.111-1.642a1.587,1.587,0,0,0-1.576-1.709Z" transform="translate(23.644 10.85)" fill="#383260" fill-rule="evenodd"/>
        <path id="Path_1498" data-name="Path 1498" d="M222.269,90.1a15.924,15.924,0,0,1,1.01,3.329c.133,1.276.7,11.773.7,11.773s3.052-9.166,3.518-11.64-2.352-6.991-4.439-8.178S222.269,90.1,222.269,90.1Z" transform="translate(24.329 9.346)" fill="#383260" fill-rule="evenodd"/>
        <path id="Path_1499" data-name="Path 1499" d="M192.145,106.7s3-.466,2.8-6.414c0,0,3.473-3.473,4.084-5.016s-.533-5.482-.533-5.482,14.115,4.882,27.5,1.942c0,0,3.074-4.816,2.541-9.1s-6.658-10.841-10.164-11.907-3.085,1.443-3.085,1.443a44,44,0,0,0-14.315,1.742c-7.89,2.219-9.365,5.615-8.877,9.5,0,0-3.751,2.408-4.017,4.439s1.6,12.595,1.6,12.595S192.256,102.3,192.145,106.7Z" transform="translate(20.62 7.727)" fill="#383260" fill-rule="evenodd"/>
        <path id="Path_1500" data-name="Path 1500" d="M198.608,122.39s7.479,5.548,9.01,6.458l-2.685,4.439a1.4,1.4,0,0,1-2.142.288c-1.11-1.11-5.781-9.121-5.781-9.121Z" transform="translate(21.603 13.421)" fill="#855169" fill-rule="evenodd"/>
        <path id="Path_1501" data-name="Path 1501" d="M213.006,124l-6.436,4.694,2.563,4.439s.866.866,1.6.544,4.439-7.546,4.439-7.546Z" transform="translate(22.652 13.597)" fill="#855169" fill-rule="evenodd"/>
        <path id="Path_1502" data-name="Path 1502" d="M196.805,207.922a65.054,65.054,0,0,0,1.775-9.177c.477-3.573.777-7.191,1-10.786.51-8.211.6-16.423.6-24.645a58.148,58.148,0,0,0-.821-8.567c-.544-3.551-1.232-7.08-1.964-10.6-1.3-6.147-2.774-12.273-4.35-18.365a.488.488,0,0,0-.621-.333l-3.44,1.11a.477.477,0,0,0-.311.577c1.5,5.792,2.907,11.629,4.15,17.488.732,3.451,1.42,6.913,1.953,10.4a55.142,55.142,0,0,1,.81,8.234c0,8.134-.078,16.268-.577,24.412-.222,3.5-.51,7-.965,10.475a58.52,58.52,0,0,1-1.664,8.611.477.477,0,0,0,.333.6q1.742.488,3.507.9a.488.488,0,0,0,.588-.333Z" transform="translate(20.687 13.754)" fill="#383260" fill-rule="evenodd"/>
        <path id="Path_1503" data-name="Path 1503" d="M218,127.965c.943,6.125,1.731,12.317,2.219,18.5.244,3,.422,6,.455,9.01A48.116,48.116,0,0,1,220.29,163c-.466,3.151-.666,6.436-.821,9.632-.189,3.984-.266,7.99-.289,11.973q0,6.658.144,13.427c.089,3.273.2,6.58.455,9.843a.488.488,0,0,0,.633.422A19.428,19.428,0,0,0,224,206.706a.477.477,0,0,0,.244-.444c-.2-3.107-.3-6.247-.377-9.366q-.144-6.136-.111-12.273c0-3.884.1-7.768.277-11.662a93.264,93.264,0,0,1,.788-9.3,51.321,51.321,0,0,0,.433-7.867c0-3.074-.2-6.159-.444-9.221-.444-5.6-1.11-11.219-1.931-16.789a.466.466,0,0,0-.255-.355c-1.309-.677-2.63-1.332-3.961-1.975a.488.488,0,0,0-.688.51Z" transform="translate(23.901 13.971)" fill="#383260" fill-rule="evenodd"/>
        <path id="Path_1504" data-name="Path 1504" d="M231.043,136.835a36.34,36.34,0,0,0-1.11-5.06m-48.1-2.075c1.52,1.787,3.8,18.332.743,27.886M231.2,202.849c1.831-3.107-1.6-21.661-.71-25.644s3.773-17.089,3.651-19.9c0-1.11-.61-5.1-1.309-9.621" transform="translate(19.939 14.222)" fill="none" stroke="#c8c4e1" stroke-linecap="round" stroke-linejoin="round" stroke-width="0.71" fill-rule="evenodd"/>
        <path id="Path_1505" data-name="Path 1505" d="M202.18,99h0a1.709,1.709,0,0,0-1.709,1.576l-.111,1.642a1.6,1.6,0,0,0,1.576,1.709h0a1.709,1.709,0,0,0,1.709-1.576l.111-1.642A1.6,1.6,0,0,0,202.18,99Z" transform="translate(21.97 10.856)" fill="#383260" fill-rule="evenodd"/>
        <path id="Path_1506" data-name="Path 1506" d="M198.723,74.14c5.337,3.052,14.226,5.959,22.4-1.42a23.48,23.48,0,0,1,5.748,7.157c-5.215,1.986-13.316,4.017-20.773,1.642a24.568,24.568,0,0,1-10.342-6.147A21.282,21.282,0,0,1,198.723,74.14Z" transform="translate(21.466 7.974)" fill="#443e71" fill-rule="evenodd"/>
        <path id="Path_1507" data-name="Path 1507" d="M295.228,150.312c3.14,9.6,11.163,37.906,11.163,37.906s2.219,8.245-1.753,13.216-33.112,37.018-33.112,37.018l-2.086-5.892.5-3.606,24.634-35.642-9.554-23.98c-3.617-9.987-4.9-22.815,1.775-27.342A16.245,16.245,0,0,1,295.228,150.312Z" transform="translate(29.546 15.57)" fill="#e6b5a3" fill-rule="evenodd"/>
        <path id="Path_1508" data-name="Path 1508" d="M284.734,215.963l-8.644,9.554-6.58-1.465.422-3,3.961-5.737.677.721,3.174-2.031Z" transform="translate(29.553 23.468)" fill="#d2887a" fill-rule="evenodd"/>
        <path id="Path_1509" data-name="Path 1509" d="M268.5,175.387s-4.882-1.476-10.164-2.6" transform="translate(28.329 18.948)" fill="none" stroke="#c8c4e1" stroke-linecap="round" stroke-linejoin="round" stroke-width="0.71" fill-rule="evenodd"/>
        <path id="Path_1510" data-name="Path 1510" d="M243.22,157.279s2.075-5.781,2.475-7.379" transform="translate(26.671 16.437)" fill="none" stroke="#c8c4e1" stroke-linecap="round" stroke-linejoin="round" stroke-width="0.71" fill-rule="evenodd"/>
        <path id="Path_1511" data-name="Path 1511" d="M266.015,153.61s-3.418,4.516-3.5,8.988" transform="translate(28.787 16.844)" fill="none" stroke="#d2887a" stroke-linecap="round" stroke-linejoin="round" stroke-width="0.71" fill-rule="evenodd"/>
        <path id="Path_1512" data-name="Path 1512" d="M247.8,186.06a27.2,27.2,0,0,1,0,5.016" transform="translate(27.173 20.403)" fill="none" stroke="#714360" stroke-linecap="round" stroke-linejoin="round" stroke-width="0.71" fill-rule="evenodd"/>
        <path id="Path_1513" data-name="Path 1513" d="M280.255,186.06s-.821,6.048-.965,7.412" transform="translate(30.626 20.403)" fill="none" stroke="#714360" stroke-linecap="round" stroke-linejoin="round" stroke-width="0.71" fill-rule="evenodd"/>
        <path id="Path_1514" data-name="Path 1514" d="M292.09,188.275a3.828,3.828,0,0,1,2.974-.111" transform="translate(32.029 20.606)" fill="none" stroke="#d2887a" stroke-linecap="round" stroke-linejoin="round" stroke-width="0.71" fill-rule="evenodd"/>
        <path id="Path_1515" data-name="Path 1515" d="M277.109,213.42a14.75,14.75,0,0,0-2.031.61,16.557,16.557,0,0,0-4.117,2.219c-3.917,2.9-5.071,6.98-3.717,11.629a.788.788,0,0,0,.821.566c4.827-.377,8.245-2.9,9.565-7.579a16.578,16.578,0,0,0,.577-4.616,15.059,15.059,0,0,0-.144-2.119.8.8,0,0,0-.943-.655Z" transform="translate(29.245 23.403)" fill="#6f8c8a" fill-rule="evenodd"/>
        <path id="Path_1516" data-name="Path 1516" d="M263.584,240.92a6.66,6.66,0,0,0,13.061-2.619,8.711,8.711,0,1,0-2.83-17.122,6.658,6.658,0,1,0-12.55.721,9.632,9.632,0,1,0,2.319,19.019Z" transform="translate(27.612 23.323)" fill="#87a8a6" fill-rule="evenodd"/>
        <path id="Path_1517" data-name="Path 1517" d="M264.569,225.712a12.205,12.205,0,0,0-.366-1.676,13.391,13.391,0,0,0-1.5-3.451,8.056,8.056,0,0,0-9.132-3.706.632.632,0,0,0-.51.633,8.056,8.056,0,0,0,5.548,8.167,13.383,13.383,0,0,0,3.684.743,11.921,11.921,0,0,0,1.72,0,.644.644,0,0,0,.588-.721Z" transform="translate(27.748 23.749)" fill="#9fbbc1" fill-rule="evenodd"/>
        <path id="Path_1518" data-name="Path 1518" d="M282.639,241.992a11.923,11.923,0,0,0-.366-1.676,13.394,13.394,0,0,0-1.5-3.451,8.067,8.067,0,0,0-9.132-3.706.633.633,0,0,0-.51.633,8.056,8.056,0,0,0,5.548,8.167,13.314,13.314,0,0,0,3.684.755,12.1,12.1,0,0,0,1.72,0,.622.622,0,0,0,.444-.233.633.633,0,0,0,.111-.488Z" transform="translate(29.73 25.535)" fill="#9fbbc1" fill-rule="evenodd"/>
        <path id="Path_1519" data-name="Path 1519" d="M265.133,233.537a10.474,10.474,0,0,0-1.443.433,11.785,11.785,0,0,0-2.918,1.542,7.069,7.069,0,0,0-2.63,8.234.555.555,0,0,0,.588.4,7.068,7.068,0,0,0,6.78-5.371,11.742,11.742,0,0,0,.411-3.329,10.526,10.526,0,0,0-.111-1.5.555.555,0,0,0-.666-.466Z" transform="translate(28.26 25.601)" fill="#6f8c8a" fill-rule="evenodd"/>
        <path id="Path_1520" data-name="Path 1520" d="M265.134,217.025s.333-2.031,1.509-2.541,3.817,4.738,1.587,6.469-5.837-1.554-6.314-2.33S263.714,216.647,265.134,217.025Z" transform="translate(28.714 23.516)" fill="#a75268" fill-rule="evenodd"/>
        <path id="Path_1521" data-name="Path 1521" d="M267.129,216.262s1.531-1.365,2.763-1.032,0,6.092-2.819,6.037-3.584-4.86-3.462-5.77S266.263,215.075,267.129,216.262Z" transform="translate(28.905 23.579)" fill="#c37584" fill-rule="evenodd"/>
        <path id="Path_1522" data-name="Path 1522" d="M265.915,216.689s.81-1.886,2.075-2.108,2.586,5.548,0,6.658-5.3-2.9-5.548-3.762S264.639,215.979,265.915,216.689Z" transform="translate(28.776 23.529)" fill="#d48f9e" fill-rule="evenodd"/>
        <path id="Path_1523" data-name="Path 1523" d="M276.389,226.047s-.422-2.53-1.886-3.163-4.76,5.914-1.975,8.056,7.279-1.931,7.867-2.907S278.142,225.559,276.389,226.047Z" transform="translate(29.766 24.436)" fill="#e3e1f1" fill-rule="evenodd"/>
        <path id="Path_1524" data-name="Path 1524" d="M273.84,225.092s-1.909-1.709-3.451-1.287,0,7.59,3.507,7.523,4.439-6.059,4.317-7.191S274.905,223.616,273.84,225.092Z" transform="translate(29.584 24.514)" fill="#efedf6" fill-rule="evenodd"/>
        <path id="Path_1525" data-name="Path 1525" d="M275.378,225.621s-1.01-2.352-2.585-2.63-3.218,6.88,0,8.3,6.658-3.606,6.946-4.694S276.976,224.733,275.378,225.621Z" transform="translate(29.711 24.451)" fill="#fff" fill-rule="evenodd"/>
        <path id="Path_1526" data-name="Path 1526" d="M258.439,226.087s.311-3.44,2.219-4.439,7,7.5,3.462,10.675-9.987-1.886-10.9-3.14S256.02,225.609,258.439,226.087Z" transform="translate(27.752 24.296)" fill="#d8d5ea" fill-rule="evenodd"/>
        <path id="Path_1527" data-name="Path 1527" d="M261.753,224.54s2.4-2.486,4.516-2.075.766,10.231-3.984,10.486-6.658-7.768-6.525-9.266S260.166,222.653,261.753,224.54Z" transform="translate(28.045 24.39)" fill="#e3e1f1" fill-rule="evenodd"/>
        <path id="Path_1528" data-name="Path 1528" d="M259.748,225.377s1.11-3.273,3.218-3.8,5.016,8.944.821,11.185-9.266-4.206-9.832-5.637S257.506,224.389,259.748,225.377Z" transform="translate(27.842 24.296)" fill="#f4f4f9" fill-rule="evenodd"/>
        <path id="Path_1529" data-name="Path 1529" d="M267.294,232.975s.965-2.375,2.53-2.674,3.329,6.813.144,8.3-6.658-3.484-7.035-4.572S265.685,232.11,267.294,232.975Z" transform="translate(28.829 25.253)" fill="#a75268" fill-rule="evenodd"/>
        <path id="Path_1530" data-name="Path 1530" d="M269.866,232.705s2.219-1.243,3.651-.5-1.664,7.412-5.082,6.569-3.018-6.9-2.63-7.967S269.145,231.063,269.866,232.705Z" transform="translate(29.12 25.267)" fill="#c37584" fill-rule="evenodd"/>
        <path id="Path_1531" data-name="Path 1531" d="M268.313,232.747s1.5-2.075,3.1-1.986,1.62,7.413-1.831,8.089-5.659-4.971-5.748-6.114S266.959,231.537,268.313,232.747Z" transform="translate(28.93 25.304)" fill="#d48f9e" fill-rule="evenodd"/>
        <path id="Path_1532" data-name="Path 1532" d="M171.1,105.816a.466.466,0,1,0,.366.854s5.482-2.352,8.822.122a.466.466,0,1,0,.555-.743C177.071,103.253,171.123,105.816,171.1,105.816Z" transform="translate(18.728 11.486)" fill="#d2887a" fill-rule="evenodd"/>
        <path id="Path_1533" data-name="Path 1533" d="M96.822,121.4h0a6.658,6.658,0,0,0-9.41,0l-1.11,1.11-1.11-1.11a6.658,6.658,0,0,0-9.41,0h0a6.658,6.658,0,0,0,0,9.41l1.11,1.11,9.332,9.432,9.41-9.41,1.11-1.11a6.658,6.658,0,0,0,.078-9.432Z" transform="translate(8.096 13.099)" fill="#fff" fill-rule="evenodd"/>
        <path id="Path_1534" data-name="Path 1534" d="M323.893,102.584a1.054,1.054,0,0,1,2.1,0v4.727a1.054,1.054,0,1,1-2.1,0Zm-7.157,3.839a1.054,1.054,0,1,1,1.487-1.487l3.329,3.329a1.054,1.054,0,1,1-1.487,1.487Zm-2.352,7.768a1.054,1.054,0,0,1,0-2.1h4.727a1.054,1.054,0,1,1,0,2.1Zm3.839,7.157a1.054,1.054,0,0,1-1.487-1.487l3.329-3.329a1.054,1.054,0,1,1,1.487,1.487Zm7.768,2.352a1.054,1.054,0,0,1-2.1,0v-4.727a1.054,1.054,0,1,1,2.1,0Zm7.168-3.839a1.054,1.054,0,0,1-1.487,1.487l-3.329-3.329a1.054,1.054,0,0,1,1.487-1.487Zm2.352-7.768a1.054,1.054,0,1,1,0,2.1h-4.727a1.054,1.054,0,1,1,0-2.1Zm-3.839-7.168a1.054,1.054,0,0,1,1.487,1.487l-3.329,3.329a1.054,1.054,0,1,1-1.487-1.487Z" transform="translate(34.37 11.145)" fill="#fff" fill-rule="evenodd"/>
        <path id="Path_1535" data-name="Path 1535" d="M157.055,178.035a1.054,1.054,0,1,1,2.1,0v4.727a1.054,1.054,0,1,1-2.1,0Zm-7.157,3.839a1.054,1.054,0,1,1,1.487-1.487l3.329,3.329a1.054,1.054,0,1,1-1.487,1.487Zm-2.352,7.768a1.054,1.054,0,1,1,0-2.1h4.727a1.054,1.054,0,1,1,0,2.1Zm3.839,7.168a1.054,1.054,0,1,1-1.487-1.487l3.329-3.329a1.054,1.054,0,1,1,1.487,1.487Zm7.768,2.352a1.054,1.054,0,0,1-2.1,0v-4.727a1.054,1.054,0,1,1,2.1,0v4.772Zm7.157-3.839a1.054,1.054,0,1,1-1.487,1.487l-3.329-3.329a1.054,1.054,0,1,1,1.487-1.487Zm2.352-7.768a1.054,1.054,0,1,1,0,2.1h-4.727a1.054,1.054,0,1,1,0-2.1Zm-3.839-7.213a1.054,1.054,0,1,1,1.487,1.487l-3.329,3.329a1.054,1.054,0,0,1-1.487-1.487Z" transform="translate(16.052 19.395)" fill="#fff" fill-rule="evenodd"/>
        <rect id="Rectangle_162" data-name="Rectangle 162" width="6.203" height="6.203" rx="1.3" transform="translate(487.383 400.264)" fill="#bab6d7"/>
        <rect id="Rectangle_163" data-name="Rectangle 163" width="6.203" height="6.203" rx="1.3" transform="translate(475.909 400.264)" fill="#fff"/>
        <rect id="Rectangle_164" data-name="Rectangle 164" width="6.203" height="6.203" rx="1.3" transform="translate(464.424 400.264)" fill="#bab6d7"/>
        <rect id="Rectangle_165" data-name="Rectangle 165" width="6.203" height="6.203" rx="1.3" transform="translate(452.951 400.264)" fill="#fff"/>
        <rect id="Rectangle_166" data-name="Rectangle 166" width="6.203" height="6.203" rx="1.3" transform="translate(441.477 400.264)" fill="#bab6d7"/>
        <rect id="Rectangle_167" data-name="Rectangle 167" width="6.203" height="6.203" rx="1.3" transform="translate(464.014 387.747)" fill="#fff"/>
        <rect id="Rectangle_168" data-name="Rectangle 168" width="6.203" height="6.203" rx="1.3" transform="translate(452.54 387.747)" fill="#bab6d7"/>
        <rect id="Rectangle_169" data-name="Rectangle 169" width="6.203" height="6.203" rx="1.3" transform="translate(441.066 387.747)" fill="#fff"/>
        <rect id="Rectangle_170" data-name="Rectangle 170" width="6.203" height="6.203" rx="1.3" transform="translate(313.999 67.911)" fill="#bab6d7"/>
        <rect id="Rectangle_171" data-name="Rectangle 171" width="6.203" height="6.203" rx="1.3" transform="translate(302.526 67.911)" fill="#fff"/>
        <rect id="Rectangle_172" data-name="Rectangle 172" width="6.203" height="6.203" rx="1.3" transform="translate(291.052 67.911)" fill="#bab6d7"/>
        <path id="Path_1536" data-name="Path 1536" d="M253.391,61.2h3.329a1.454,1.454,0,0,1,1.454,1.454v3.329a1.443,1.443,0,0,1-1.443,1.443H253.4a1.443,1.443,0,0,1-1.443-1.443V62.654A1.443,1.443,0,0,1,253.391,61.2Z" transform="translate(27.629 6.711)" fill="#fff"/>
        <rect id="Rectangle_173" data-name="Rectangle 173" width="6.203" height="6.203" rx="1.3" transform="translate(268.104 67.911)" fill="#bab6d7"/>
        <rect id="Rectangle_174" data-name="Rectangle 174" width="6.203" height="6.203" rx="1.3" transform="translate(290.641 55.394)" fill="#fff"/>
        <rect id="Rectangle_175" data-name="Rectangle 175" width="6.203" height="6.203" rx="1.3" transform="translate(279.167 55.394)" fill="#bab6d7"/>
        <rect id="Rectangle_176" data-name="Rectangle 176" width="6.203" height="6.203" rx="1.3" transform="translate(267.682 55.394)" fill="#fff"/>
        <path id="Path_1537" data-name="Path 1537" d="M443.171,317.442h0a6.658,6.658,0,0,0-9.41,0l-1.11,1.11-1.11-1.11a6.658,6.658,0,0,0-9.41,0h0a6.658,6.658,0,0,0,0,9.41l1.11,1.11,9.41,9.41,9.41-9.41,1.11-1.11a6.658,6.658,0,0,0,0-9.41Z" transform="translate(46.076 34.596)" fill="#fff" fill-rule="evenodd"/>
        <circle id="Ellipse_657" data-name="Ellipse 657" cx="3.407" cy="3.407" r="3.407" transform="translate(82.78 347.367)" fill="#fff"/>
        <circle id="Ellipse_658" data-name="Ellipse 658" cx="3.407" cy="3.407" r="3.407" transform="translate(174.149 290.097)" fill="#fff"/>
        <circle id="Ellipse_659" data-name="Ellipse 659" cx="3.407" cy="3.407" r="3.407" transform="translate(365.066 183.737)" fill="#fff"/>
        <circle id="Ellipse_660" data-name="Ellipse 660" cx="3.407" cy="3.407" r="3.407" transform="translate(471.426 183.737)" fill="#fff"/>
        <circle id="Ellipse_661" data-name="Ellipse 661" cx="3.407" cy="3.407" r="3.407" transform="translate(450.975 343.283)" fill="#fff"/>
        <circle id="Ellipse_662" data-name="Ellipse 662" cx="3.407" cy="3.407" r="3.407" transform="translate(377.339 350.097)" fill="#fff"/>
        <circle id="Ellipse_663" data-name="Ellipse 663" cx="3.407" cy="3.407" r="3.407" transform="translate(198.695 70.552)" fill="#fff"/>
        <path id="Path_1538" data-name="Path 1538" d="M347.511,29.192h0a6.658,6.658,0,0,0-9.41,0l-1.11,1.11-1.11-1.11a6.658,6.658,0,0,0-9.41,0h0a6.658,6.658,0,0,0,0,9.41l1.11,1.11,9.388,9.454,9.41-9.41,1.11-1.11a6.658,6.658,0,0,0,.022-9.454Z" transform="translate(35.586 2.988)" fill="#fff" fill-rule="evenodd"/>
      </g>
    </g>
  </g>
</svg>
