<svg xmlns="http://www.w3.org/2000/svg" xmlns:xlink="http://www.w3.org/1999/xlink" viewBox="0 0 268 150.13"><defs><style>.cls-1{isolation:isolate;}.cls-2{fill:#e83a5c;}.cls-3{fill:#e5cadb;opacity:0.66;}.cls-24,.cls-3,.cls-6{mix-blend-mode:multiply;}.cls-14,.cls-15,.cls-37,.cls-4{mix-blend-mode:overlay;}.cls-5{fill:#e6ddae;}.cls-6{fill:url(#Áåçûìÿííûé_ãðàäèåíò_16);}.cls-7{fill:#7ebfce;}.cls-8{fill:#b6e7f2;}.cls-9{fill:#2a445d;}.cls-10{fill:#48647c;}.cls-11{fill:#6aafba;}.cls-12{fill:#628096;}.cls-13{fill:#fff;}.cls-14,.cls-19{fill:#bcbec0;}.cls-15,.cls-18{fill:#939598;}.cls-16{fill:#58595b;}.cls-17{fill:#7f8c8d;}.cls-20{fill:#e6e7e8;}.cls-21{fill:#c8cacc;}.cls-22{fill:#808285;}.cls-23{fill:#ce1b31;}.cls-25{fill:#2c3e50;}.cls-26{fill:#c1c1c1;}.cls-27{fill:#a5a8aa;}.cls-28{fill:#37474f;}.cls-29{fill:#455a64;}.cls-30{fill:#b0b0b0;}.cls-31{fill:#838487;}.cls-32{fill:#707172;}.cls-33{fill:#34495e;}.cls-34{fill:#87ccd8;}.cls-35{fill:#a7d6db;}.cls-36{fill:#ecf0f1;}.cls-37,.cls-41{fill:#a7a9ac;}.cls-38{fill:#bdc3c7;}.cls-39{fill:#17c5cc;}.cls-40{fill:#14b0bf;}</style><radialGradient id="Áåçûìÿííûé_ãðàäèåíò_16" cx="117.57" cy="-2573.69" r="32.99" gradientTransform="translate(-315.55 488.6) scale(3.73 0.14)" gradientUnits="userSpaceOnUse"><stop offset="0" stop-color="#ad9292"/><stop offset="1" stop-color="#fff"/></radialGradient></defs><title>categoryCard</title><g class="cls-1"><g id="Layer_2" data-name="Layer 2"><g id="_1" data-name="1"><g id="_1-2" data-name="1"><rect class="cls-2" width="268" height="150.13"/><path class="cls-3" d="M260.13,37.36c0,2.07,1,3.75,2.23,3.75H268V74.62H255.38c-1.33,0-2.4,1.8-2.4,4s1.07,4,2.4,4H268v67.46H175.14a5.3,5.3,0,0,0,.42-2.14c0-2-1-3.61-2.15-3.61H133c-1.63,0-3-2.22-3-5v-.71c0-2.74,1.32-5,3-5h56.41c1.1,0,2-1.49,2-3.33s-.89-3.34-2-3.34H106.62c-1.23,0-2.23-1.67-2.23-3.74s1-3.73,2.23-3.73h52c1,0,1.72-1.3,1.72-2.9s-.77-2.89-1.72-2.89H99.28c-1.29,0-2.33-1.75-2.33-3.91S98,106,99.28,106h30.42c.83,0,1.5-1.12,1.5-2.52s-.67-2.52-1.5-2.52H108.55c-1.3,0-2.36-1.77-2.36-4s1.06-4,2.36-4h88.58c1,0,1.8-1.36,1.8-3s-.8-3-1.8-3H123c-1.22,0-2.22-1.67-2.22-3.72s1-3.72,2.22-3.72h56c.57,0,1-.77,1-1.71s-.45-1.71-1-1.71H103.42c-1.6,0-2.9-2.18-2.9-4.87s1.3-4.86,2.9-4.86h29.66c1.28,0,2.32-1.75,2.32-3.9s-1-3.89-2.32-3.89H108c-1.29,0-2.33-1.75-2.33-3.91s1-3.91,2.33-3.91h38.76C148,50.78,149,49.09,149,47s-1-3.77-2.25-3.77H127.07c-1.33,0-2.42-1.82-2.42-4.07s1.09-4.07,2.42-4.07h40.62c.89,0,1.62-1.22,1.62-2.72s-.73-2.73-1.62-2.73H112.61c-.91,0-1.65-1.24-1.65-2.77s.74-2.77,1.65-2.77h23.88c1,0,1.85-1.39,1.85-3.11s-.83-3.11-1.85-3.11H122.77c-1.39,0-2.52-1.89-2.52-4.23s1.13-4.23,2.52-4.23H268V33.61h-5.63C261.13,33.61,260.13,35.29,260.13,37.36Z"/><g id="_1-3" data-name="1" class="cls-4"><rect class="cls-5" x="147.65" y="17.37" width="8.57" height="10.3"/><rect class="cls-5" x="158.45" y="17.37" width="8.57" height="10.3"/><rect class="cls-5" x="169.26" y="17.37" width="8.57" height="10.3"/><rect class="cls-5" x="180.06" y="17.37" width="8.57" height="10.3"/><rect class="cls-5" x="201.67" y="17.37" width="8.57" height="10.3"/><rect class="cls-5" x="136.84" y="29.9" width="8.57" height="10.3"/><rect class="cls-5" x="147.65" y="29.9" width="8.57" height="10.3"/><rect class="cls-5" x="158.45" y="29.9" width="8.57" height="10.3"/><rect class="cls-5" x="169.26" y="29.9" width="8.57" height="10.3"/><rect class="cls-5" x="180.06" y="29.9" width="8.57" height="10.3"/><rect class="cls-5" x="190.87" y="29.9" width="8.57" height="10.3"/><rect class="cls-5" x="201.67" y="29.9" width="8.57" height="10.3"/><rect class="cls-5" x="136.84" y="29.9" width="8.57" height="10.3"/><rect class="cls-5" x="212.48" y="29.9" width="8.57" height="10.3"/><rect class="cls-5" x="147.65" y="29.9" width="8.57" height="10.3"/><rect class="cls-5" x="223.28" y="29.9" width="8.57" height="10.3"/><rect class="cls-5" x="158.45" y="29.9" width="8.57" height="10.3"/><rect class="cls-5" x="126.04" y="42.9" width="8.57" height="10.3"/><rect class="cls-5" x="136.84" y="42.9" width="8.57" height="10.3"/><rect class="cls-5" x="147.65" y="42.9" width="8.57" height="10.3"/><rect class="cls-5" x="158.45" y="42.9" width="8.57" height="10.3"/><rect class="cls-5" x="169.26" y="42.9" width="8.57" height="10.3"/><rect class="cls-5" x="180.06" y="42.9" width="8.57" height="10.3"/><rect class="cls-5" x="190.87" y="42.9" width="8.57" height="10.3"/><rect class="cls-5" x="201.67" y="42.9" width="8.57" height="10.3"/><rect class="cls-5" x="136.84" y="42.9" width="8.57" height="10.3"/><rect class="cls-5" x="212.48" y="42.9" width="8.57" height="10.3"/><rect class="cls-5" x="147.65" y="42.9" width="8.57" height="10.3"/><rect class="cls-5" x="223.28" y="42.9" width="8.57" height="10.3"/><rect class="cls-5" x="158.45" y="42.9" width="8.57" height="10.3"/><rect class="cls-5" x="234.08" y="42.9" width="8.57" height="10.3"/><rect class="cls-5" x="126.04" y="55.9" width="8.57" height="10.3"/><rect class="cls-5" x="136.84" y="55.9" width="8.57" height="10.3"/><rect class="cls-5" x="147.65" y="55.9" width="8.57" height="10.3"/><rect class="cls-5" x="158.45" y="55.9" width="8.57" height="10.3"/><rect class="cls-5" x="169.26" y="55.9" width="8.57" height="10.3"/><rect class="cls-5" x="180.06" y="55.9" width="8.57" height="10.3"/><rect class="cls-5" x="190.87" y="55.9" width="8.57" height="10.3"/><rect class="cls-5" x="201.67" y="55.9" width="8.57" height="10.3"/><rect class="cls-5" x="136.84" y="55.9" width="8.57" height="10.3"/><rect class="cls-5" x="212.48" y="55.9" width="8.57" height="10.3"/><rect class="cls-5" x="147.65" y="55.9" width="8.57" height="10.3"/><rect class="cls-5" x="223.28" y="55.9" width="8.57" height="10.3"/><rect class="cls-5" x="158.45" y="55.9" width="8.57" height="10.3"/><rect class="cls-5" x="234.08" y="55.9" width="8.57" height="10.3"/><rect class="cls-5" x="126.04" y="68.9" width="8.57" height="10.3"/><rect class="cls-5" x="136.84" y="68.9" width="8.57" height="10.3"/><rect class="cls-5" x="147.65" y="68.9" width="8.57" height="10.3"/><rect class="cls-5" x="158.45" y="68.9" width="8.57" height="10.3"/><rect class="cls-5" x="169.26" y="68.9" width="8.57" height="10.3"/><rect class="cls-5" x="180.06" y="68.9" width="8.57" height="10.3"/><rect class="cls-5" x="190.87" y="68.9" width="8.57" height="10.3"/><rect class="cls-5" x="201.67" y="68.9" width="8.57" height="10.3"/><rect class="cls-5" x="136.84" y="68.9" width="8.57" height="10.3"/><rect class="cls-5" x="212.48" y="68.9" width="8.57" height="10.3"/><rect class="cls-5" x="147.65" y="68.9" width="8.57" height="10.3"/><rect class="cls-5" x="223.28" y="68.9" width="8.57" height="10.3"/><rect class="cls-5" x="158.45" y="68.9" width="8.57" height="10.3"/><rect class="cls-5" x="234.08" y="68.9" width="8.57" height="10.3"/><rect class="cls-5" x="126.04" y="81.9" width="8.57" height="10.3"/><rect class="cls-5" x="136.84" y="81.9" width="8.57" height="10.3"/><rect class="cls-5" x="147.65" y="81.9" width="8.57" height="10.3"/><rect class="cls-5" x="158.45" y="81.9" width="8.57" height="10.3"/><rect class="cls-5" x="169.26" y="81.9" width="8.57" height="10.3"/><rect class="cls-5" x="180.06" y="81.9" width="8.57" height="10.3"/><rect class="cls-5" x="190.87" y="81.9" width="8.57" height="10.3"/><rect class="cls-5" x="201.67" y="81.9" width="8.57" height="10.3"/><rect class="cls-5" x="136.84" y="81.9" width="8.57" height="10.3"/><rect class="cls-5" x="212.48" y="81.9" width="8.57" height="10.3"/><rect class="cls-5" x="147.65" y="81.9" width="8.57" height="10.3"/><rect class="cls-5" x="223.28" y="81.9" width="8.57" height="10.3"/><rect class="cls-5" x="158.45" y="81.9" width="8.57" height="10.3"/><rect class="cls-5" x="234.08" y="81.9" width="8.57" height="10.3"/><rect class="cls-5" x="126.04" y="94.9" width="8.57" height="10.3"/><rect class="cls-5" x="136.84" y="94.9" width="8.57" height="10.3"/><rect class="cls-5" x="147.65" y="94.9" width="8.57" height="10.3"/><rect class="cls-5" x="158.45" y="94.9" width="8.57" height="10.3"/><rect class="cls-5" x="169.26" y="94.9" width="8.57" height="10.3"/><rect class="cls-5" x="180.06" y="94.9" width="8.57" height="10.3"/><rect class="cls-5" x="190.87" y="94.9" width="8.57" height="10.3"/><rect class="cls-5" x="201.67" y="94.9" width="8.57" height="10.3"/><rect class="cls-5" x="136.84" y="94.9" width="8.57" height="10.3"/><rect class="cls-5" x="212.48" y="94.9" width="8.57" height="10.3"/><rect class="cls-5" x="147.65" y="94.9" width="8.57" height="10.3"/><rect class="cls-5" x="223.28" y="94.9" width="8.57" height="10.3"/><rect class="cls-5" x="158.45" y="94.9" width="8.57" height="10.3"/><rect class="cls-5" x="126.04" y="107.9" width="8.57" height="10.3"/><rect class="cls-5" x="136.84" y="107.9" width="8.57" height="10.3"/><rect class="cls-5" x="147.65" y="107.9" width="8.57" height="10.3"/><rect class="cls-5" x="158.45" y="107.9" width="8.57" height="10.3"/><rect class="cls-5" x="169.26" y="107.9" width="8.57" height="10.3"/><rect class="cls-5" x="180.06" y="107.9" width="8.57" height="10.3"/><rect class="cls-5" x="190.87" y="107.9" width="8.57" height="10.3"/><rect class="cls-5" x="201.67" y="107.9" width="8.57" height="10.3"/><rect class="cls-5" x="136.84" y="107.9" width="8.57" height="10.3"/><rect class="cls-5" x="212.48" y="107.9" width="8.57" height="10.3"/><rect class="cls-5" x="147.65" y="107.9" width="8.57" height="10.3"/><rect class="cls-5" x="223.28" y="107.9" width="8.57" height="10.3"/><rect class="cls-5" x="158.45" y="107.9" width="8.57" height="10.3"/><rect class="cls-5" x="136.84" y="120.9" width="8.57" height="10.3"/><rect class="cls-5" x="158.45" y="120.9" width="8.57" height="10.3"/><rect class="cls-5" x="169.26" y="120.9" width="8.57" height="10.3"/><rect class="cls-5" x="180.06" y="120.9" width="8.57" height="10.3"/><rect class="cls-5" x="190.87" y="120.9" width="8.57" height="10.3"/><rect class="cls-5" x="136.84" y="120.9" width="8.57" height="10.3"/><rect class="cls-5" x="212.48" y="120.9" width="8.57" height="10.3"/></g></g><g id="_2" data-name="2"><ellipse id="_0" data-name="0" class="cls-6" cx="123.11" cy="135.49" rx="123.11" ry="4.53"/><g id="_1-4" data-name="1"><rect class="cls-7" x="22.49" y="74.61" width="52.11" height="2.95"/><rect class="cls-7" x="22.49" y="132.29" width="52.11" height="1.97"/><rect class="cls-8" x="22.49" y="77.56" width="52.11" height="54.73"/><rect class="cls-7" x="40.3" y="78.72" width="12.56" height="6.21"/><polygon class="cls-9" points="51.98 79.54 41.17 79.54 41.17 79.61 51.98 84.08 51.98 79.54"/><polygon class="cls-10" points="41.17 79.61 41.17 84.11 51.98 84.11 51.98 84.08 41.17 79.61"/><circle class="cls-7" cx="64.3" cy="80.16" r="0.86"/><circle class="cls-7" cx="64.3" cy="83.33" r="0.86"/><circle class="cls-7" cx="67.27" cy="80.16" r="0.86"/><circle class="cls-7" cx="67.27" cy="83.33" r="0.86"/><circle class="cls-7" cx="70.23" cy="80.16" r="0.86"/><circle class="cls-7" cx="70.23" cy="83.33" r="0.86"/><path class="cls-7" d="M38.81,76.52l-.65,1L34.3,83.76a5.19,5.19,0,0,1-4.41,2.45h-7.4V84.58H29a5.12,5.12,0,0,0,4.35-2.42l2.86-4.6,1.19-1.91Z"/><circle class="cls-7" cx="57.92" cy="81.83" r="2.62"/><circle class="cls-8" cx="58" cy="81.75" r="1.87"/><polygon class="cls-7" points="57.46 79.81 57.92 82.64 58.39 79.81 57.46 79.81"/><path class="cls-9" d="M58,79a.3.3,0,0,1-.33-.25V78.1a.34.34,0,0,1,.66,0v.67A.3.3,0,0,1,58,79Z"/><path class="cls-9" d="M55.46,80.31a.3.3,0,0,1-.38.16l-.58-.33a.34.34,0,0,1,.33-.57l.58.33A.3.3,0,0,1,55.46,80.31Z"/><path class="cls-9" d="M55.33,83.12a.3.3,0,0,1-.05.41l-.58.33a.34.34,0,0,1-.33-.57L55,83A.3.3,0,0,1,55.33,83.12Z"/><path class="cls-9" d="M57.7,84.64a.3.3,0,0,1,.33.25v.67a.34.34,0,0,1-.66,0v-.67A.3.3,0,0,1,57.7,84.64Z"/><path class="cls-9" d="M60.19,83.35a.3.3,0,0,1,.38-.16l.58.33a.34.34,0,0,1-.33.57l-.58-.33A.3.3,0,0,1,60.19,83.35Z"/><path class="cls-9" d="M60.33,80.54a.3.3,0,0,1,.05-.41L61,79.8a.34.34,0,0,1,.33.57l-.58.33A.3.3,0,0,1,60.33,80.54Z"/><rect class="cls-8" x="22.49" y="68.71" width="52.11" height="7.37"/><path class="cls-7" d="M30.55,80.56H25.41a1,1,0,0,0,0,1.91h5.14a1,1,0,0,0,0-1.91Z"/><circle class="cls-7" cx="48.54" cy="103.22" r="16.62"/><circle class="cls-8" cx="48.54" cy="103.22" r="14.86"/><path class="cls-11" d="M59.76,103.22a11.16,11.16,0,0,1-2,6.42l-1-.66a10,10,0,1,1-.24-11.85l1-.65A11.18,11.18,0,0,1,59.76,103.22Z"/><path class="cls-7" d="M58.56,103.22a10,10,0,1,1-2.06-6.09A9.95,9.95,0,0,1,58.56,103.22Z"/><path class="cls-12" d="M57.39,103.22a8.85,8.85,0,0,1-8.85,8.85H48.4a8.85,8.85,0,0,0-4.25-16.53,8.85,8.85,0,0,1,13.24,7.68Z"/><path class="cls-10" d="M52.86,104.39a8.84,8.84,0,0,1-4.46,7.68,8.85,8.85,0,0,1-4.25-16.53A8.85,8.85,0,0,1,52.86,104.39Z"/><rect class="cls-7" x="22.49" y="123.23" width="52.11" height="1.65"/><path class="cls-7" d="M54.77,126.23v6.06h1v-5.08H70.6v5.08h1v-6.06Z"/><path class="cls-13" d="M48.54,90.11c8.32-.76,15.38,6.13,13.9,15.58a12.74,12.74,0,0,1-13.9,10.44C64.42,113,64.29,93.18,48.54,90.11Z"/><polygon class="cls-14" points="23.58 69.91 73.61 69.91 73.61 74.61 23.58 69.91"/><path class="cls-15" d="M74.6,68.71H23l51.59,65.4Z"/><rect class="cls-7" x="60.91" y="127.7" width="4.59" height="0.98"/></g><g id="_2-2" data-name="2"><rect class="cls-16" x="184.74" y="133.42" width="2.61" height="2.08"/><rect class="cls-17" x="184.17" y="135.49" width="3.76" height="1.04"/><rect class="cls-16" x="220.57" y="133.42" width="2.61" height="2.08"/><rect class="cls-17" x="220" y="135.49" width="3.76" height="1.04"/><rect class="cls-18" x="183.35" y="91.51" width="42.09" height="6.23"/><rect class="cls-16" x="183.35" y="91.13" width="42.09" height="3.11"/><rect class="cls-19" x="181.85" y="96.75" width="45.35" height="37.16"/><rect class="cls-20" x="181.85" y="95.69" width="45.35" height="1.06"/><rect class="cls-20" x="181.66" y="45.15" width="45.35" height="1.2"/><rect class="cls-19" x="181.66" y="46.35" width="45.35" height="47.21"/><rect class="cls-20" x="196.61" y="52.01" width="16.79" height="6.83"/><rect class="cls-21" x="186.43" y="46.35" width="8.38" height="47.21"/><rect class="cls-21" x="186.43" y="96.75" width="8.38" height="37.16"/><path class="cls-18" d="M185.73,69.36a1.52,1.52,0,0,0-1.63,1.38v17a1.52,1.52,0,0,0,1.63,1.38,1.87,1.87,0,0,0,.63-.11V69.46A1.87,1.87,0,0,0,185.73,69.36Z"/><path class="cls-22" d="M186.36,69.46V89a1.4,1.4,0,0,0,1-1.27v-17A1.4,1.4,0,0,0,186.36,69.46Z"/><path class="cls-18" d="M185.73,99.51a1.52,1.52,0,0,0-1.63,1.38v17a1.52,1.52,0,0,0,1.63,1.38,1.88,1.88,0,0,0,.63-.11V99.62A1.88,1.88,0,0,0,185.73,99.51Z"/><path class="cls-22" d="M186.36,99.62v19.53a1.4,1.4,0,0,0,1-1.27v-17A1.4,1.4,0,0,0,186.36,99.62Z"/><polygon class="cls-9" points="198 52.76 210.6 58.1 210.72 58.1 210.72 52.76 198 52.76"/><polygon class="cls-10" points="198 52.76 197.69 52.76 197.69 58.1 210.6 58.1 198 52.76"/><rect class="cls-18" x="211.33" y="52.79" width="1.84" height="0.85"/><rect class="cls-18" x="211.33" y="54.21" width="1.84" height="0.85"/><rect class="cls-18" x="211.33" y="55.62" width="1.84" height="0.85"/><rect class="cls-18" x="211.33" y="57.04" width="1.84" height="0.85"/><rect class="cls-21" x="214.5" y="46.35" width="8.38" height="47.21"/><rect class="cls-21" x="214.5" y="96.75" width="8.38" height="37.16"/></g><g id="_3" data-name="3"><rect class="cls-7" x="78.2" y="84.01" width="0.62" height="2.2"/><rect class="cls-7" x="76.4" y="77.02" width="48.99" height="2.77"/><rect class="cls-7" x="76.4" y="131.24" width="48.99" height="1.85"/><rect class="cls-8" x="76.4" y="79.79" width="48.99" height="51.45"/><rect class="cls-7" x="93.14" y="80.88" width="11.81" height="8.05"/><polygon class="cls-9" points="104.12 81.94 93.96 81.94 93.96 82.04 104.12 87.84 104.12 81.94"/><polygon class="cls-10" points="93.96 82.04 93.96 87.88 104.12 87.88 104.12 87.84 93.96 82.04"/><rect class="cls-8" x="76.4" y="74.33" width="48.99" height="4.07"/><rect class="cls-7" x="76.4" y="122.72" width="48.99" height="1.55"/><rect class="cls-7" x="76.4" y="89.73" width="48.99" height="1.55"/><rect class="cls-7" x="86.29" y="81.21" width="3.7" height="1.4"/><rect class="cls-7" x="86.29" y="83.71" width="3.7" height="1.4"/><rect class="cls-7" x="86.29" y="86.2" width="3.7" height="1.4"/><rect class="cls-7" x="107.04" y="81.76" width="3.7" height="1.4"/><rect class="cls-7" x="107.04" y="84.26" width="3.7" height="1.4"/><rect class="cls-7" x="107.04" y="86.75" width="3.7" height="1.4"/><circle class="cls-7" cx="113.4" cy="82.58" r="0.77"/><circle class="cls-7" cx="113.4" cy="84.74" r="0.77"/><circle class="cls-23" cx="113.4" cy="86.89" r="0.77"/><circle class="cls-7" cx="119.3" cy="84.74" r="2.46"/><circle class="cls-8" cx="119.3" cy="84.74" r="1.79"/><circle class="cls-7" cx="83.32" cy="85.11" r="2.46"/><circle class="cls-8" cx="83.32" cy="85.11" r="1.79"/><path class="cls-7" d="M78.51,86.52a1.41,1.41,0,1,1,1.41-1.41A1.41,1.41,0,0,1,78.51,86.52Zm0-2.2a.79.79,0,1,0,.79.79A.79.79,0,0,0,78.51,84.31Z"/><rect class="cls-7" x="121.54" y="82.34" width="2.08" height="0.62"/><rect class="cls-7" x="121.54" y="86.44" width="2.08" height="0.62"/><rect class="cls-7" x="115.2" y="82.38" width="2.08" height="0.62"/><rect class="cls-7" x="115.2" y="86.48" width="2.08" height="0.62"/><g class="cls-24"><rect class="cls-19" x="93.96" y="84.26" width="10.17" height="0.7"/></g><rect class="cls-7" x="92.15" y="93.18" width="16.74" height="1.95"/><g class="cls-4"><path class="cls-18" d="M78.39,74.33,80.55,77l1.12,1.39,1.12,1.39,3.51,4.33.8,1L88,86.2l1.14,1.4,1.73,2.12,1.26,1.55,1.54,1.9,1.59,1.95c7.7,9.46,16.08,19.74,22.49,27.6l1.27,1.55,5.69,7,.71.87V74.33Z"/></g><polygon class="cls-14" points="77.41 75.41 124.39 75.41 124.39 77.48 77.41 75.41"/></g><g id="_4" data-name="4"><rect class="cls-25" x="128.82" y="76.73" width="48.09" height="59.3"/><rect class="cls-26" x="128.82" y="122.58" width="48.09" height="9.72"/><rect class="cls-26" x="128.82" y="91.29" width="48.09" height="29.29"/><rect class="cls-26" x="128.82" y="79.22" width="48.09" height="10.22"/><polygon class="cls-27" points="133 95.19 172.74 95.19 171.66 96.69 134.03 96.69 133 95.19"/><polygon class="cls-28" points="133.96 97.66 133.68 97.66 133.68 116.6 172.05 116.6 172.05 116.38 133.96 97.66"/><polygon class="cls-29" points="172.05 97.66 133.96 97.66 172.05 116.38 172.05 97.66"/><path class="cls-20" d="M132.06,94.14h0a1.46,1.46,0,0,0,1.46,1.46h38.68a1.46,1.46,0,0,0,1.46-1.46h0a1.46,1.46,0,0,0-1.46-1.46H133.53A1.46,1.46,0,0,0,132.06,94.14Z"/><circle class="cls-20" cx="148.04" cy="84.25" r="2.87"/><circle class="cls-20" cx="137.73" cy="84.25" r="2.87"/><circle class="cls-20" cx="156.14" cy="84.25" r="2.87"/><circle class="cls-20" cx="164.24" cy="84.25" r="2.87"/><circle class="cls-20" cx="172.33" cy="84.25" r="2.87"/><rect class="cls-25" x="130.54" y="81.98" width="3.18" height="1.68"/><rect class="cls-25" x="130.54" y="84.84" width="3.18" height="1.68"/><rect class="cls-25" x="133.35" y="75.23" width="14.43" height="1.49"/><rect class="cls-25" x="157.96" y="75.23" width="14.43" height="1.49"/></g><g id="_5" data-name="5"><rect class="cls-26" x="153.04" y="15.26" width="6.14" height="15.86"/><rect class="cls-30" x="147.03" y="15.26" width="6.01" height="15.86"/><polygon class="cls-30" points="147.03 31.12 127.17 46.4 153.04 46.4 153.04 31.12 147.03 31.12"/><polygon class="cls-26" points="179.04 46.4 153.04 46.4 153.04 31.12 159.18 31.12 179.04 46.4"/><rect class="cls-31" x="127.17" y="46.4" width="25.87" height="5.24"/><rect class="cls-18" x="153.04" y="46.4" width="26" height="5.24"/><circle class="cls-26" cx="159.18" cy="49.02" r="1.27"/><circle class="cls-26" cx="163.42" cy="49.02" r="1.27"/><circle class="cls-26" cx="167.65" cy="49.02" r="1.27"/><circle class="cls-23" cx="171.89" cy="49.02" r="1.27"/><rect class="cls-30" x="130.73" y="47.75" width="17.26" height="2.53"/><path class="cls-32" d="M147,29.27a.93.93,0,0,0,0,1.85H153V29.27Z"/><path class="cls-18" d="M159.26,29.27H153v1.85h6.23a.93.93,0,0,0,0-1.85Z"/><path class="cls-32" d="M126.51,45a.72.72,0,0,0-.72.72v.09a.72.72,0,0,0,.72.72H153V45Z"/><path class="cls-31" d="M179.52,45H153v1.54h26.49a.72.72,0,0,0,.72-.72v-.09A.72.72,0,0,0,179.52,45Z"/></g><g id="_6" data-name="6"><rect class="cls-10" x="24.85" y="50.77" width="48.62" height="3.86"/><path class="cls-8" d="M62.27,22.77H24.9a2.37,2.37,0,0,0-2.55,2.14V50.43a2.37,2.37,0,0,0,2.55,2.14H66.52V22.77Z"/><path class="cls-8" d="M73.69,22.77H67.42v29.8h6.27a2.34,2.34,0,0,0,2.5-2.14V24.9A2.34,2.34,0,0,0,73.69,22.77Z"/><rect class="cls-13" x="26.29" y="27.22" width="34.07" height="20.9"/><rect class="cls-33" x="26.98" y="27.93" width="32.69" height="19.47"/><polygon class="cls-10" points="33.02 27.93 26.98 34.23 26.98 39.1 37.7 27.93 33.02 27.93"/><polygon class="cls-10" points="47.04 27.93 28.35 47.4 32.75 47.4 51.43 27.93 47.04 27.93"/><polygon class="cls-10" points="59.67 29.94 42.91 47.4 46.76 47.4 59.67 33.95 59.67 29.94"/><polygon class="cls-10" points="69.02 26.18 69.02 29.7 69.17 29.7 74.45 26.18 69.02 26.18"/><polygon class="cls-33" points="69.17 29.7 74.6 29.7 74.6 26.18 74.45 26.18 69.17 29.7"/><rect class="cls-13" x="68.68" y="31.25" width="2.39" height="1.28"/><rect class="cls-13" x="68.68" y="33.42" width="2.39" height="1.28"/><rect class="cls-13" x="68.68" y="35.6" width="2.39" height="1.28"/><rect class="cls-13" x="68.68" y="37.77" width="2.39" height="1.28"/><rect class="cls-13" x="68.68" y="39.94" width="2.39" height="1.28"/><rect class="cls-13" x="72.54" y="31.25" width="2.39" height="1.28"/><rect class="cls-13" x="72.54" y="33.42" width="2.39" height="1.28"/><rect class="cls-13" x="72.54" y="35.6" width="2.39" height="1.28"/><rect class="cls-13" x="72.54" y="37.77" width="2.39" height="1.28"/><rect class="cls-13" x="72.54" y="39.94" width="2.39" height="1.28"/><path class="cls-34" d="M73.07,42.43H70.81a2,2,0,0,0-2,1.93h6.23A2,2,0,0,0,73.07,42.43Z"/><path class="cls-7" d="M68.82,44.36s0,0,0,.07a2,2,0,0,0,2,2h2.26a2,2,0,0,0,2-2s0,0,0-.07Z"/><path class="cls-35" d="M65.53,52.53h1.25V28.34L64.47,26l-.78.63H63V50.07C63,50,64.44,51.41,65.53,52.53Z"/><rect class="cls-7" x="66.52" y="22.77" width="0.9" height="29.8"/><path class="cls-36" d="M63.7,25.71a1.1,1.1,0,0,0-1.1,1.1V49.34a1.1,1.1,0,1,0,2.19,0V26.81a1.1,1.1,0,0,0-1.1-1.1Z"/><path class="cls-13" d="M63.7,40.58c-.37,0-.68-.18-.68-.41V26.54c0-.23.3-.41.68-.41a.94.94,0,0,1,.48.12.35.35,0,0,1,.2.29V40.17C64.38,40.4,64.07,40.58,63.7,40.58Z"/><rect class="cls-13" x="68.68" y="48.05" width="6.38" height="1.6"/></g><g id="_7" data-name="7"><path class="cls-10" d="M93,21.51V59.79H83.86V29.66A8.14,8.14,0,0,1,92,21.51Z"/><path class="cls-10" d="M115.94,29.66V59.79h-9.11V21.51h1a8.14,8.14,0,0,1,2.79.49,8.05,8.05,0,0,1,1.82.94,8.16,8.16,0,0,1,3.54,6.72Z"/><path class="cls-25" d="M90.89,21.51h18.54A1.59,1.59,0,0,1,111,23.1V59.79a0,0,0,0,1,0,0H89.29a0,0,0,0,1,0,0V23.1A1.59,1.59,0,0,1,90.89,21.51Z"/><path class="cls-10" d="M111.18,23.91v-.05a7.89,7.89,0,0,0-5.73-6.45,24.13,24.13,0,0,0-11.07,0,7.88,7.88,0,0,0-5.73,6.45v.05Z"/><rect class="cls-10" x="92.2" y="24.35" width="15.41" height="13.95"/><path class="cls-33" d="M107.61,38.31H92.19l1,3.18a7,7,0,0,0,6.66,4.82h0a7,7,0,0,0,6.66-4.82Z"/><path class="cls-10" d="M118.25,61.48a2.46,2.46,0,0,0-2.44-2.2H84a2.46,2.46,0,0,0-2.44,2.2Z"/><rect class="cls-37" x="96.88" y="24.35" width="6.04" height="13.95"/><rect class="cls-18" x="95.86" y="47.18" width="1.21" height="3.62"/><rect class="cls-18" x="102.73" y="47.18" width="1.21" height="3.62"/><rect class="cls-18" x="95.74" y="38.31" width="2.37" height="0.95"/><path class="cls-38" d="M95.74,39.26v9.5A.24.24,0,0,0,96,49h1.9a.24.24,0,0,0,.24-.24v-9.5Z"/><path class="cls-38" d="M101.69,39.26v9.5a.24.24,0,0,0,.24.24h1.9a.24.24,0,0,0,.24-.24v-9.5Z"/><rect class="cls-18" x="101.69" y="38.31" width="2.37" height="0.95"/><path class="cls-38" d="M105.25,46.93a.81.81,0,0,0-.81-.81H95.36a.81.81,0,0,0-.81.81v.13h10.69Z"/><path class="cls-18" d="M94.56,47.06v.1a.81.81,0,0,0,.81.81h9.08a.81.81,0,0,0,.81-.81v-.1Z"/><path class="cls-36" d="M107.24,57.44a2.54,2.54,0,0,1-1.67-.62l.34-.38a2,2,0,0,0,3.28-1.13,1.6,1.6,0,0,0-.71-1.69,1.17,1.17,0,0,0-1,0,.91.91,0,0,0-.55.55l-.49-.16a1.43,1.43,0,0,1,.85-.87,1.67,1.67,0,0,1,1.4.05,2.12,2.12,0,0,1,1,2.23A2.54,2.54,0,0,1,108,57.3,2.46,2.46,0,0,1,107.24,57.44Z"/><path class="cls-36" d="M102.29,59.28h4.25a6.2,6.2,0,0,0,1.05-3.6V52.4h-6.36v3.28A6.2,6.2,0,0,0,102.29,59.28Z"/><path class="cls-38" d="M102,58.87c.08.14.17.28.26.41h4.25a6.2,6.2,0,0,0,1.05-3.6v-3.2C107.52,55.32,104.76,58.34,102,58.87Z"/><path class="cls-36" d="M98.46,57.39a2.54,2.54,0,0,1-1.67-.62l.34-.38a2,2,0,0,0,3.28-1.13,1.6,1.6,0,0,0-.71-1.69,1.17,1.17,0,0,0-1,0,.91.91,0,0,0-.55.55l-.49-.16a1.43,1.43,0,0,1,.85-.87,1.67,1.67,0,0,1,1.4.05,2.12,2.12,0,0,1,1,2.23,2.54,2.54,0,0,1-1.64,1.91A2.45,2.45,0,0,1,98.46,57.39Z"/><path class="cls-36" d="M93.51,59.23h4.25a6.2,6.2,0,0,0,1.05-3.6V52.36H92.45v3.28A6.2,6.2,0,0,0,93.51,59.23Z"/><path class="cls-38" d="M93.25,58.83a4.46,4.46,0,0,0,.26.41h4.25a6.2,6.2,0,0,0,1.05-3.6v-3.2C98.74,55.28,96,58.3,93.25,58.83Z"/><polygon class="cls-39" points="103.27 18.63 96.72 18.63 103.27 21.47 103.27 18.63"/><polygon class="cls-40" points="96.72 18.63 96.53 18.63 96.53 21.51 103.27 21.51 103.27 21.47 96.72 18.63"/><path class="cls-38" d="M94.7,19.55H93.12a.42.42,0,1,0,0,.83H94.7a.42.42,0,1,0,0-.83Z"/><path class="cls-38" d="M94.7,20.94H93.12a.42.42,0,1,0,0,.83H94.7a.42.42,0,1,0,0-.83Z"/><path class="cls-38" d="M94.7,22.33H93.12a.42.42,0,1,0,0,.83H94.7a.42.42,0,1,0,0-.83Z"/><path class="cls-38" d="M106.68,19.55H105.1a.42.42,0,1,0,0,.83h1.58a.42.42,0,1,0,0-.83Z"/><path class="cls-38" d="M106.68,20.94H105.1a.42.42,0,1,0,0,.83h1.58a.42.42,0,1,0,0-.83Z"/><path class="cls-38" d="M106.68,22.33H105.1a.42.42,0,1,0,0,.83h1.58a.42.42,0,1,0,0-.83Z"/><path class="cls-38" d="M102.81,22.33H97a.42.42,0,0,0-.42.42h0a.42.42,0,0,0,.42.42h5.82a.42.42,0,0,0,.42-.42h0A.42.42,0,0,0,102.81,22.33Z"/><g class="cls-4"><path class="cls-41" d="M87.46,22.86V59.28H85.62V24.52A8.19,8.19,0,0,1,87.46,22.86Z"/><path class="cls-41" d="M114.18,24.69V59.28h-1.84V22.94A8.13,8.13,0,0,1,114.18,24.69Z"/></g><rect class="cls-25" x="81.53" y="61.48" width="36.73" height="2.3"/><circle class="cls-25" cx="99.9" cy="31.32" r="2.28"/><circle class="cls-10" cx="99.9" cy="31.32" r="1.76"/></g></g></g></g></g></svg>